<svg xmlns="http://www.w3.org/2000/svg" viewBox="0 0 13.18 12.6"><defs><style>.cls-1{fill:#fff;}</style></defs><title>icon-li</title><g id="Layer_2" data-name="Layer 2"><g id="footer"><path class="cls-1" d="M3,12.6H.17V4.1H3ZM1.58,2.94h0A1.46,1.46,0,0,1,0,1.47,1.48,1.48,0,0,1,1.6,0a1.47,1.47,0,1,1,0,2.94Zm11.6,9.66H10.36V8.05c0-1.14-.41-1.92-1.43-1.92a1.55,1.55,0,0,0-1.45,1,1.86,1.86,0,0,0-.1.69V12.6H4.56s0-7.7,0-8.5H7.38V5.3A2.81,2.81,0,0,1,9.93,3.9c1.86,0,3.25,1.22,3.25,3.83Z"/><path class="cls-1" d="M7.38,5.33v0l0,0Z"/></g></g></svg>