<?xml version="1.0" encoding="utf-8"?>
<!-- Generator: Adobe Illustrator 22.1.0, SVG Export Plug-In . SVG Version: 6.00 Build 0)  -->
<svg version="1.1" id="Layer_1" xmlns="http://www.w3.org/2000/svg" xmlns:xlink="http://www.w3.org/1999/xlink" x="0px" y="0px"
	 viewBox="0 0 19 19" style="enable-background:new 0 0 19 19;" xml:space="preserve">
<style type="text/css">
	.st0{fill:#FFFFFF;}
</style>
<title>icon-arrow-circle</title>
<g id="Layer_2_1_">
	<g id="Layer_2-2">
		<polygon class="st0" points="4.6,9.8 5.1,9.2 9.7,13.8 14.3,9.2 14.8,9.8 9.7,14.9 		"/>
		<rect x="9.3" y="3.2" class="st0" width="0.8" height="11.2"/>
		<path class="st0" d="M0,9.5C0,4.3,4.2,0,9.5,0S19,4.2,19,9.5S14.8,19,9.5,19c0,0,0,0,0,0C4.2,19,0,14.7,0,9.5z M18.2,9.5
			c0-4.8-3.9-8.8-8.8-8.8S0.7,4.7,0.7,9.5s3.9,8.8,8.8,8.8C14.3,18.3,18.2,14.3,18.2,9.5z"/>
	</g>
</g>
</svg>
