<svg xmlns="http://www.w3.org/2000/svg" viewBox="0 0 13.5 10.97"><defs><style>.cls-1{fill:#fff;}</style></defs><title>icon-tw</title><g id="Layer_2" data-name="Layer 2"><g id="footer"><path class="cls-1" d="M12.12,2.73c0,.12,0,.24,0,.36A7.83,7.83,0,0,1,4.25,11,7.81,7.81,0,0,1,0,9.73c.22,0,.44,0,.66,0A5.52,5.52,0,0,0,4.1,8.58,2.78,2.78,0,0,1,1.51,6.66a3.05,3.05,0,0,0,.52,0,2.86,2.86,0,0,0,.73-.1A2.77,2.77,0,0,1,.54,3.89v0a2.83,2.83,0,0,0,1.26.35A2.76,2.76,0,0,1,.57,1.9,2.72,2.72,0,0,1,.94.51,7.87,7.87,0,0,0,6.65,3.4a2.59,2.59,0,0,1-.07-.63A2.77,2.77,0,0,1,11.37.87,5.35,5.35,0,0,0,13.13.2a2.74,2.74,0,0,1-1.22,1.53A5.27,5.27,0,0,0,13.5,1.3,5.68,5.68,0,0,1,12.12,2.73Z"/></g></g></svg>