<?xml version="1.0" encoding="utf-8"?>
<!-- Generator: Adobe Illustrator 19.1.0, SVG Export Plug-In . SVG Version: 6.00 Build 0)  -->
<svg version="1.0" id="Layer_2" xmlns="http://www.w3.org/2000/svg" xmlns:xlink="http://www.w3.org/1999/xlink" x="0px" y="0px"
	 viewBox="290 -288.6 1539.6 1536.6" enable-background="new 290 -288.6 1539.6 1536.6" xml:space="preserve">
<g display="none" opacity="0.6">
	<g display="inline">
		<path fill="#E5FF1D" d="M1064.5,1258.1c431.6,1.1,778.7-343.8,778.5-773.6c-0.2-430-347.3-774.4-779.1-773.1
			c-428.7,1.3-771.6,342.2-773.9,769C287.7,910.8,632.5,1257,1064.5,1258.1z M1068.5,1218.9c-403-9.5-731.9-305.6-736.4-727.5
			c-4.3-405.4,300-734.7,732.1-738c416.5-3.1,735.2,320.2,737.9,733.8C1804.7,888.8,1471.3,1215.3,1068.5,1218.9z"/>
	</g>
	<path display="inline" fill="#E5FF1D" d="M1481.1,214.1c0.4-45.1-18.8-57.4-60.9-57.2c-236.8,1.2-473.6,0.3-710.4,1
		c-13.2,0-30.5-2.9-41.7,3c-31,2.1-23.7,34.4-23.8,55.9c-0.7,168.5,0.6,336.9-1,505.4c-0.4,45.1,18.8,57.4,60.9,57.2
		c236.8-1.2,473.6-0.3,710.4-1c13.2,0,30.5,2.9,41.7-3c31-2.1,23.7-34.4,23.8-55.9C1480.8,551,1479.5,382.5,1481.1,214.1z
		 M1084.7,723.5c-104.6,0-209.2-3-313.6,1.1c-58.4,2.3-73.2-19.8-72.1-74.4c3.1-143.9,1.4-287.9,0.6-431.9c0-1.9,0-3.9,0.1-5.9
		c2.7-0.1,5.3-0.2,7.8-0.2c110.7,0.8,221.4,0.4,332.1,0.4c104.6,0,209.2,3,313.6-1.1c58.4-2.3,73.2,19.8,72.1,74.4
		c-3.1,143.9-1.4,287.9-0.6,431.9c0,1.9,0,3.9-0.1,5.9c-2.7,0.1-5.3,0.2-7.8,0.2C1306.2,723.1,1195.4,723.5,1084.7,723.5z"/>
</g>
<g>
	<path fill="#666666" d="M1459.3,729.4v49.9H660.3V180.1h49.9v549.3H1459.3z M1409.4,242.5v169.7c0,5.5-2.5,9.3-7.6,11.5
		c-5.1,2.2-9.7,1.2-13.9-2.9l-47.2-47.2l-247,247c-2.6,2.6-5.6,3.9-9,3.9c-3.4,0-6.4-1.3-9-3.9l-90.9-90.9L822.6,691.9L747.7,617
		l228.2-228.2c2.6-2.6,5.6-3.9,9-3.9s6.4,1.3,9,3.9l90.9,90.9l181-181l-47.2-47.2c-4.2-4.2-5.1-8.8-2.9-13.9c2.2-5.1,6-7.6,11.5-7.6
		h169.7c3.6,0,6.6,1.2,9,3.5C1408.2,235.8,1409.4,238.8,1409.4,242.5z"/>
</g>
</svg>
