<?xml version="1.0" encoding="utf-8"?>
<!-- Generator: Adobe Illustrator 19.1.0, SVG Export Plug-In . SVG Version: 6.00 Build 0)  -->
<svg version="1.0" id="Layer_2" xmlns="http://www.w3.org/2000/svg" xmlns:xlink="http://www.w3.org/1999/xlink" x="0px" y="0px"
	 viewBox="290 -288.6 1539.6 1536.6" enable-background="new 290 -288.6 1539.6 1536.6" xml:space="preserve">
<g display="none" opacity="0.6">
	<g display="inline">
		<path fill="#E5FF1D" d="M1064.5,1258.1c431.6,1.1,778.7-343.8,778.5-773.6c-0.2-430-347.3-774.4-779.1-773.1
			c-428.7,1.3-771.6,342.2-773.9,769C287.7,910.8,632.5,1257,1064.5,1258.1z M1068.5,1218.9c-403-9.5-731.9-305.6-736.4-727.5
			c-4.3-405.4,300-734.7,732.1-738c416.5-3.1,735.2,320.2,737.9,733.8C1804.7,888.8,1471.3,1215.3,1068.5,1218.9z"/>
	</g>
	<path display="inline" fill="#E5FF1D" d="M1481.1,214.1c0.4-45.1-18.8-57.4-60.9-57.2c-236.8,1.2-473.6,0.3-710.4,1
		c-13.2,0-30.5-2.9-41.7,3c-31,2.1-23.7,34.4-23.8,55.9c-0.7,168.5,0.6,336.9-1,505.4c-0.4,45.1,18.8,57.4,60.9,57.2
		c236.8-1.2,473.6-0.3,710.4-1c13.2,0,30.5,2.9,41.7-3c31-2.1,23.7-34.4,23.8-55.9C1480.8,551,1479.5,382.5,1481.1,214.1z
		 M1084.7,723.5c-104.6,0-209.2-3-313.6,1.1c-58.4,2.3-73.2-19.8-72.1-74.4c3.1-143.9,1.4-287.9,0.6-431.9c0-1.9,0-3.9,0.1-5.9
		c2.7-0.1,5.3-0.2,7.8-0.2c110.7,0.8,221.4,0.4,332.1,0.4c104.6,0,209.2,3,313.6-1.1c58.4-2.3,73.2,19.8,72.1,74.4
		c-3.1,143.9-1.4,287.9-0.6,431.9c0,1.9,0,3.9-0.1,5.9c-2.7,0.1-5.3,0.2-7.8,0.2C1306.2,723.1,1195.4,723.5,1084.7,723.5z"/>
</g>
<g>
	<g id="Layer_1_3_">
	</g>
	<g>
		<path fill="#666666" d="M1142.6,724.2c14.2-19.9,13.4-48.6-1.7-68.1c-16-19.9-35-23.6-57.8-10.2c-19,11.1-26.3,4.2-27.2-19v-65
			H932.5l107.6-182.1l7.9-13.2V181.7v-54.3h-76c-6.8,0-12.8,2.7-17.8,8.1c-5,5.4-7.5,11.8-7.5,19.1c0,7.3,2.5,13.7,7.5,19.1
			c5,5.4,11,8.1,17.8,8.1h25.3V351L857.6,587.5c-8.2,8-16.2,4.8-23.5-10.4c-9.1-19.1-23.6-25.5-42.2-25.3
			c-25.8,0.5-47,24.7-47.2,53.6c0,29.5,17.3,48.9,44.4,49.8c13.8,0.4,21.2,3.2,22.8,9.7l-13.5,22.8c-14.8,25.2-17.6,46.8-8.5,64.7
			c9.1,18,27.6,27,55.6,27h210.3v-23.1c0-25.5,7.3-30.6,27.6-18.5C1104.1,749.7,1127.9,744.6,1142.6,724.2z"/>
		<path fill="#666666" d="M1331.1,612.7c25.8-0.5,38.3-20,42.4-39.8c5.7-25.8-8.6-51.7-32.2-61.4c-24-9.5-43.2-1.3-56.7,24.3
			c-6.8,13-12.1,17.4-18,13.5L1149.4,351V181.7h25.3c6.8,0,12.8-2.7,17.8-8.1c5-5.4,7.5-11.8,7.5-19.1c0-7.3-2.5-13.7-7.5-19.1
			c-5-5.4-11-8.1-17.8-8.1h-76.8v54.3h0.9v185.1l7.9,13.2L1214.3,562h-129.1c0,16.1,0,32.2,0,48.3c60.4-10.7,94.5,39.3,93.2,79.6
			c-0.9,24.1-6.5,45.8-23.3,61.6c-19.4,18-43.6,27.8-70.3,19.4c0,2.8,0,5.5,0,8.3h216.6c28,0,46.5-9,55.6-27
			c9.1-18,6.3-39.6-8.5-64.7l-37.7-63.8C1310.1,616.2,1316.6,613.1,1331.1,612.7z"/>
	</g>
</g>
</svg>
