<?xml version="1.0" encoding="utf-8"?>
<!-- Generator: Adobe Illustrator 19.1.0, SVG Export Plug-In . SVG Version: 6.00 Build 0)  -->
<svg version="1.0" id="Layer_2" xmlns="http://www.w3.org/2000/svg" xmlns:xlink="http://www.w3.org/1999/xlink" x="0px" y="0px"
	 viewBox="290 -288.6 1539.6 1536.6" enable-background="new 290 -288.6 1539.6 1536.6" xml:space="preserve">
<g display="none" opacity="0.6">
	<g display="inline">
		<path fill="#E5FF1D" d="M1064.5,1258.1c431.6,1.1,778.7-343.8,778.5-773.6c-0.2-430-347.3-774.4-779.1-773.1
			c-428.7,1.3-771.6,342.2-773.9,769C287.7,910.8,632.5,1257,1064.5,1258.1z M1068.5,1218.9c-403-9.5-731.9-305.6-736.4-727.5
			c-4.3-405.4,300-734.7,732.1-738c416.5-3.1,735.2,320.2,737.9,733.8C1804.7,888.8,1471.3,1215.3,1068.5,1218.9z"/>
	</g>
	<path display="inline" fill="#E5FF1D" d="M1481.1,214.1c0.4-45.1-18.8-57.4-60.9-57.2c-236.8,1.2-473.6,0.3-710.4,1
		c-13.2,0-30.5-2.9-41.7,3c-31,2.1-23.7,34.4-23.8,55.9c-0.7,168.5,0.6,336.9-1,505.4c-0.4,45.1,18.8,57.4,60.9,57.2
		c236.8-1.2,473.6-0.3,710.4-1c13.2,0,30.5,2.9,41.7-3c31-2.1,23.7-34.4,23.8-55.9C1480.8,551,1479.5,382.5,1481.1,214.1z
		 M1084.7,723.5c-104.6,0-209.2-3-313.6,1.1c-58.4,2.3-73.2-19.8-72.1-74.4c3.1-143.9,1.4-287.9,0.6-431.9c0-1.9,0-3.9,0.1-5.9
		c2.7-0.1,5.3-0.2,7.8-0.2c110.7,0.8,221.4,0.4,332.1,0.4c104.6,0,209.2,3,313.6-1.1c58.4-2.3,73.2,19.8,72.1,74.4
		c-3.1,143.9-1.4,287.9-0.6,431.9c0,1.9,0,3.9-0.1,5.9c-2.7,0.1-5.3,0.2-7.8,0.2C1306.2,723.1,1195.4,723.5,1084.7,723.5z"/>
</g>
<g>
	<g>
		<g>
			<g id="Layer_1_2_">
			</g>
			<g id="Layer_1_copy_1_">
				<g>
					<path fill="#666666" d="M917.8,591.3c1.1-25.5,7.8-48.6,28.3-65.3c23.6-19.1,52.9-29.4,85.4-20.6c0-31.9,0-65.3,0-98.6
						c-33.5,25.5-66.6,50.5-102.7,77.5c0-112.8,0-220.3,0-327.3c-66,0-130,0-194.5,0c0,8.4,0,15.2,0,22.1c0,114.3,0,228.7,0,343.5
						c0,24.6-11,31.4-32.5,18.7c-20.4-12.3-39.3-9.8-58.7,1c-26.8,15.2-35.2,49.6-18.8,76.1c16.8,27,46.1,34.8,74.9,20.1
						c25.7-13.3,35.2-8.4,35.2,18.7c0,40.3,0,80.5,0,121.7c100.1,0,198.6,0,296.6,0c0-34.8,0-68.7,0-103
						C957.7,686.9,916.3,633.9,917.8,591.3z"/>
					<path fill="#666666" d="M1494.9,630c21.5-19.7,22.5-51.5,4.2-74.6c-18.8-23-43.5-27.5-72.9-12.7c-22.5,11.3-29.3,7.3-29.3-16.2
						c0-7.9,0-17.2,0-26.5l0,0c0-80,0-175.2-0.5-181.5c-83.4,58.4-164.5,116.7-248.4,175.7V320.8c-6.8,3-72.9,54.9-72.9,54.9
						c-8.4,5.4-8.4,15.7-8.4,15.7V521c0,27-8.9,32.4-33.5,19.7c-25.2-12.7-53.9-7.3-71.8,14.3c-17.3,21.1-16.3,51.5,2.1,72.1
						c19.3,21.1,42.4,25.1,70.2,10.8c23.1-11.8,32-4.4,33,20.1v120.7c109,0,221.2,0,329.7,0c0-23.6,0-46.1,0-68.7l0,0
						c0-18.1,0-35.8,0-53c0-26,7.3-30.4,30.9-17.2C1454.1,655,1478.7,645.2,1494.9,630z"/>
				</g>
			</g>
		</g>
	</g>
</g>
</svg>
