<?xml version="1.0" encoding="utf-8"?>
<!-- Generator: Adobe Illustrator 19.1.0, SVG Export Plug-In . SVG Version: 6.00 Build 0)  -->
<svg version="1.0" id="Layer_2" xmlns="http://www.w3.org/2000/svg" xmlns:xlink="http://www.w3.org/1999/xlink" x="0px" y="0px"
	 viewBox="290 -288.6 1539.6 1536.6" enable-background="new 290 -288.6 1539.6 1536.6" xml:space="preserve">
<g display="none" opacity="0.6">
	<g display="inline">
		<path fill="#E5FF1D" d="M1064.5,1258.1c431.6,1.1,778.7-343.8,778.5-773.6c-0.2-430-347.3-774.4-779.1-773.1
			c-428.7,1.3-771.6,342.2-773.9,769C287.7,910.8,632.5,1257,1064.5,1258.1z M1068.5,1218.9c-403-9.5-731.9-305.6-736.4-727.5
			c-4.3-405.4,300-734.7,732.1-738c416.5-3.1,735.2,320.2,737.9,733.8C1804.7,888.8,1471.3,1215.3,1068.5,1218.9z"/>
	</g>
	<path display="inline" fill="#E5FF1D" d="M1481.1,214.1c0.4-45.1-18.8-57.4-60.9-57.2c-236.8,1.2-473.6,0.3-710.4,1
		c-13.2,0-30.5-2.9-41.7,3c-31,2.1-23.7,34.4-23.8,55.9c-0.7,168.5,0.6,336.9-1,505.4c-0.4,45.1,18.8,57.4,60.9,57.2
		c236.8-1.2,473.6-0.3,710.4-1c13.2,0,30.5,2.9,41.7-3c31-2.1,23.7-34.4,23.8-55.9C1480.8,551,1479.5,382.5,1481.1,214.1z
		 M1084.7,723.5c-104.6,0-209.2-3-313.6,1.1c-58.4,2.3-73.2-19.8-72.1-74.4c3.1-143.9,1.4-287.9,0.6-431.9c0-1.9,0-3.9,0.1-5.9
		c2.7-0.1,5.3-0.2,7.8-0.2c110.7,0.8,221.4,0.4,332.1,0.4c104.6,0,209.2,3,313.6-1.1c58.4-2.3,73.2,19.8,72.1,74.4
		c-3.1,143.9-1.4,287.9-0.6,431.9c0,1.9,0,3.9-0.1,5.9c-2.7,0.1-5.3,0.2-7.8,0.2C1306.2,723.1,1195.4,723.5,1084.7,723.5z"/>
</g>
<g>
	<path fill="#666666" d="M1461,197.4c-4.1-1.6-8-2.3-11.7-2.3c-8.4,0-15.5,3-21.1,8.9l-188.7,188.2v-77.3
		c0-37.1-13.2-68.9-39.6-95.3c-26.4-26.4-58.1-39.6-95.3-39.6H775.1c-37.1,0-68.9,13.2-95.3,39.6c-26.4,26.4-39.6,58.1-39.6,95.3
		v329.6c0,37.1,13.2,68.9,39.6,95.3c26.4,26.4,58.1,39.6,95.3,39.6h329.6c37.1,0,68.9-13.2,95.3-39.6c26.4-26.4,39.6-58.1,39.6-95.3
		v-77.7l188.7,188.7c5.6,5.9,12.6,8.9,21.1,8.9c3.7,0,7.6-0.8,11.7-2.3c12.2-5.3,18.3-14.5,18.3-27.6V225
		C1479.3,211.9,1473.2,202.7,1461,197.4z M1042.7,483.4c-1.5,68.7-53.9,128-128.2,144.9C856.4,641.6,795.7,612,768.4,557
		c-32-64.6-2.3-151.4,78.9-164.8c54.4-9,107.7,33.7,108,89c0.1,18.7-5.4,35.4-24.2,43.2c-21.1,8.8-43.2,10.1-64.6,1.2
		c-8.2-3.4-11.6-12.2-8.9-21.3c3.5-12.2,12.4-17.4,24.9-18.3c10.1-0.7,25.7,7,28.7-6.4c3.6-16.4-7.8-30.2-22.6-38
		c-21.8-11.5-43.6-8.4-62.9,5.7c-20.9,15.3-30.9,37-27.2,63c6.7,46.9,42.8,77,90.7,76.6c59.2-0.4,103.6-41.8,112-106.1
		c2-15.3,3.8-29,22.5-28.2C1043.3,453.5,1043,468.8,1042.7,483.4z M1021.2,396.9c-15.9-2.5-31.2-9.4-32.2-31.2
		c-1.1-23.1,12.2-38.3,33.4-37.7c20.3,0.6,32.9,11.8,34.7,32.3C1058.9,380.1,1043.5,396.4,1021.2,396.9z"/>
</g>
</svg>
