<?xml version="1.0" encoding="utf-8"?>
<!-- Generator: Adobe Illustrator 19.1.0, SVG Export Plug-In . SVG Version: 6.00 Build 0)  -->
<svg version="1.0" id="Layer_2" xmlns="http://www.w3.org/2000/svg" xmlns:xlink="http://www.w3.org/1999/xlink" x="0px" y="0px"
	 viewBox="290 -288.6 1539.6 1536.6" enable-background="new 290 -288.6 1539.6 1536.6" xml:space="preserve">
<g display="none" opacity="0.6">
	<g display="inline">
		<path fill="#E5FF1D" d="M1064.5,1258.1c431.6,1.1,778.7-343.8,778.5-773.6c-0.2-430-347.3-774.4-779.1-773.1
			c-428.7,1.3-771.6,342.2-773.9,769C287.7,910.8,632.5,1257,1064.5,1258.1z M1068.5,1218.9c-403-9.5-731.9-305.6-736.4-727.5
			c-4.3-405.4,300-734.7,732.1-738c416.5-3.1,735.2,320.2,737.9,733.8C1804.7,888.8,1471.3,1215.3,1068.5,1218.9z"/>
	</g>
	<path display="inline" fill="#E5FF1D" d="M1481.1,214.1c0.4-45.1-18.8-57.4-60.9-57.2c-236.8,1.2-473.6,0.3-710.4,1
		c-13.2,0-30.5-2.9-41.7,3c-31,2.1-23.7,34.4-23.8,55.9c-0.7,168.5,0.6,336.9-1,505.4c-0.4,45.1,18.8,57.4,60.9,57.2
		c236.8-1.2,473.6-0.3,710.4-1c13.2,0,30.5,2.9,41.7-3c31-2.1,23.7-34.4,23.8-55.9C1480.8,551,1479.5,382.5,1481.1,214.1z
		 M1084.7,723.5c-104.6,0-209.2-3-313.6,1.1c-58.4,2.3-73.2-19.8-72.1-74.4c3.1-143.9,1.4-287.9,0.6-431.9c0-1.9,0-3.9,0.1-5.9
		c2.7-0.1,5.3-0.2,7.8-0.2c110.7,0.8,221.4,0.4,332.1,0.4c104.6,0,209.2,3,313.6-1.1c58.4-2.3,73.2,19.8,72.1,74.4
		c-3.1,143.9-1.4,287.9-0.6,431.9c0,1.9,0,3.9-0.1,5.9c-2.7,0.1-5.3,0.2-7.8,0.2C1306.2,723.1,1195.4,723.5,1084.7,723.5z"/>
</g>
<g>
	<g>
		<g>
			<g>
				<g>
					<path fill="#666666" d="M1409.5,249.3c-60.1-34.1-124.8-51.1-194-51.1c-62.5,0-114.4,14.2-155.7,42.7
						c-41.3-28.5-93.2-42.7-155.7-42.7c-69.2,0-133.9,17-194,51.1l-62.4,511.9h2c33.3,0,67.1-7.6,101.4-22.9
						c53.6-24.4,106.4-36.6,158.2-36.6c60.6,0,110.8,19.8,150.5,59.6c39.7-39.7,89.9-59.6,150.5-59.6c51.8,0,104.5,12.2,158.2,36.6
						c33.8,15.3,68.3,22.9,103.4,22.9L1409.5,249.3z M1303.7,657.8c-27.6-7.6-58.8-11.5-93.4-11.5c-54.2,0-104.3,14.5-150.5,43.5
						c-46.2-29-96.3-43.5-150.5-43.5c-24.1,0-48,2.3-71.6,7s-43.5,10-59.8,15.9c-16.2,5.9-38.4,14.6-66.6,26.2l49.9-410.9
						c45.9-20.9,95.3-31.4,148.1-31.4c60.1,0,110.3,18.9,150.5,56.7c40.2-37.8,90.4-56.7,150.5-56.7c52.8,0,102.2,10.5,148.1,31.4
						l49.9,410.9C1366.2,678,1331.3,665.5,1303.7,657.8z"/>
				</g>
			</g>
		</g>
		<g>
			<path fill="#666666" d="M1204.3,267.8c-56.6,1.1-104.8,21.9-144.5,62.4c-40.8-41.6-90.9-62.4-150.5-62.4
				c-47.2,0-92.3,8.9-135.2,26.6l-45.9,378.7c33.3-13.7,63.9-23.9,92-30.6c28-6.7,57.7-10.1,89.1-10.1c56.1,0,106.2,13.7,150.5,41
				c46.2-28.7,96.3-42.4,150.5-41l16.1,0.4L1204.3,267.8z M969,440.9c-0.8,39.6-31.1,73.8-73.9,83.5c-33.5,7.7-68.5-9.4-84.3-41.1
				c-18.5-37.3-1.3-87.3,45.5-95.1c31.4-5.2,62.1,19.4,62.3,51.3c0,10.8-3.1,20.4-14,24.9c-12.2,5.1-24.9,5.8-37.3,0.7
				c-4.7-2-6.7-7-5.2-12.3c2-7,7.2-10,14.4-10.5c5.8-0.4,14.8,4,16.5-3.7c2.1-9.5-4.5-17.4-13-21.9c-12.6-6.6-25.2-4.8-36.3,3.3
				c-12,8.8-17.8,21.3-15.7,36.3c3.9,27,24.7,44.4,52.3,44.2c34.1-0.2,59.8-24.1,64.6-61.2c1.2-8.8,2.2-16.7,13-16.3
				C969.3,423.5,969.1,432.4,969,440.9z M956.6,391c-9.2-1.4-18-5.4-18.6-18c-0.6-13.3,7-22.1,19.3-21.7c11.7,0.4,19,6.8,20,18.6
				C978.3,381.3,969.4,390.7,956.6,391z"/>
		</g>
	</g>
</g>
</svg>
