<?xml version="1.0" encoding="utf-8"?>
<!-- Generator: Adobe Illustrator 19.1.0, SVG Export Plug-In . SVG Version: 6.00 Build 0)  -->
<svg version="1.0" id="Layer_2" xmlns="http://www.w3.org/2000/svg" xmlns:xlink="http://www.w3.org/1999/xlink" x="0px" y="0px"
	 viewBox="290 -288.6 1539.6 1536.6" enable-background="new 290 -288.6 1539.6 1536.6" xml:space="preserve">
<g display="none" opacity="0.6">
	<g display="inline">
		<path fill="#E5FF1D" d="M1064.5,1258.1c431.6,1.1,778.7-343.8,778.5-773.6c-0.2-430-347.3-774.4-779.1-773.1
			c-428.7,1.3-771.6,342.2-773.9,769C287.7,910.8,632.5,1257,1064.5,1258.1z M1068.5,1218.9c-403-9.5-731.9-305.6-736.4-727.5
			c-4.3-405.4,300-734.7,732.1-738c416.5-3.1,735.2,320.2,737.9,733.8C1804.7,888.8,1471.3,1215.3,1068.5,1218.9z"/>
	</g>
	<path display="inline" fill="#E5FF1D" d="M1481.1,214.1c0.4-45.1-18.8-57.4-60.9-57.2c-236.8,1.2-473.6,0.3-710.4,1
		c-13.2,0-30.5-2.9-41.7,3c-31,2.1-23.7,34.4-23.8,55.9c-0.7,168.5,0.6,336.9-1,505.4c-0.4,45.1,18.8,57.4,60.9,57.2
		c236.8-1.2,473.6-0.3,710.4-1c13.2,0,30.5,2.9,41.7-3c31-2.1,23.7-34.4,23.8-55.9C1480.8,551,1479.5,382.5,1481.1,214.1z
		 M1084.7,723.5c-104.6,0-209.2-3-313.6,1.1c-58.4,2.3-73.2-19.8-72.1-74.4c3.1-143.9,1.4-287.9,0.6-431.9c0-1.9,0-3.9,0.1-5.9
		c2.7-0.1,5.3-0.2,7.8-0.2c110.7,0.8,221.4,0.4,332.1,0.4c104.6,0,209.2,3,313.6-1.1c58.4-2.3,73.2,19.8,72.1,74.4
		c-3.1,143.9-1.4,287.9-0.6,431.9c0,1.9,0,3.9-0.1,5.9c-2.7,0.1-5.3,0.2-7.8,0.2C1306.2,723.1,1195.4,723.5,1084.7,723.5z"/>
</g>
<g>
	<g>
		<path fill="#666666" d="M1113.7,614.3v53.8H844.5v-53.8H1113.7z M1382.8,614.3v53.8h-215.3v-53.8H1382.8z M1382.8,506.6v53.8
			h-215.3v-53.8H1382.8z M1382.8,398.9v53.8h-215.3v-53.8H1382.8z M1382.8,291.3v53.8h-215.3v-53.8H1382.8z M736.8,695V291.3H683
			v403.8c0,7.3,2.6,13.6,8,18.9c5.3,5.3,11.7,8,18.9,8c7.2,0,13.6-2.6,18.9-8C734.2,708.6,736.8,702.3,736.8,695z M1436.7,695V237.4
			h-646V695c0,9.3-1.6,18.2-4.6,26.9h623.7c7.3,0,13.6-2.6,18.9-8C1434,708.6,1436.7,702.3,1436.7,695z M1490.5,183.6V695
			c0,22.4-7.9,41.5-23.6,57.2c-15.7,15.7-34.8,23.6-57.2,23.6H709.9c-22.4,0-41.5-7.9-57.2-23.6c-15.7-15.7-23.6-34.8-23.6-57.2
			V237.4h107.7v-53.8H1490.5z"/>
		<g>
			<g>
				<path fill="#666666" d="M964.6,520.9c52.5-0.3,91.9-37.1,99.3-94.1c1.8-13.6,3.4-25.7,19.9-25c17.4,0.8,17.1,14.4,16.9,27.3
					c-1.3,60.9-47.8,113.5-113.7,128.5c-51.5,11.8-105.4-14.5-129.6-63.3c-28.3-57.3-2-134.2,70-146.2c48.2-8,95.5,29.9,95.8,78.9
					c0.1,16.6-4.8,31.4-21.4,38.3c-18.7,7.8-38.3,9-57.3,1.1c-7.3-3-10.3-10.8-7.9-18.9c3.1-10.8,11-15.4,22.1-16.2
					c9-0.6,22.8,6.2,25.4-5.7c3.2-14.6-6.9-26.8-20.1-33.7c-19.3-10.2-38.7-7.4-55.8,5c-18.5,13.6-27.4,32.8-24.1,55.9
					C890.1,494.6,922.1,521.3,964.6,520.9z"/>
				<path fill="#666666" d="M1081.7,352.4c-14.1-2.2-27.7-8.3-28.6-27.7c-1-20.5,10.8-34,29.6-33.4c18,0.5,29.2,10.5,30.8,28.6
					C1115.1,337.5,1101.5,351.9,1081.7,352.4z"/>
			</g>
		</g>
	</g>
</g>
</svg>
