<?xml version="1.0" encoding="utf-8"?>
<!-- Generator: Adobe Illustrator 19.1.0, SVG Export Plug-In . SVG Version: 6.00 Build 0)  -->
<svg version="1.0" id="Layer_2" xmlns="http://www.w3.org/2000/svg" xmlns:xlink="http://www.w3.org/1999/xlink" x="0px" y="0px"
	 viewBox="290 -288.6 1539.6 1536.6" enable-background="new 290 -288.6 1539.6 1536.6" xml:space="preserve">
<g display="none" opacity="0.6">
	<g display="inline">
		<path fill="#E5FF1D" d="M1064.5,1258.1c431.6,1.1,778.7-343.8,778.5-773.6c-0.2-430-347.3-774.4-779.1-773.1
			c-428.7,1.3-771.6,342.2-773.9,769C287.7,910.8,632.5,1257,1064.5,1258.1z M1068.5,1218.9c-403-9.5-731.9-305.6-736.4-727.5
			c-4.3-405.4,300-734.7,732.1-738c416.5-3.1,735.2,320.2,737.9,733.8C1804.7,888.8,1471.3,1215.3,1068.5,1218.9z"/>
	</g>
	<path display="inline" fill="#E5FF1D" d="M1481.1,214.1c0.4-45.1-18.8-57.4-60.9-57.2c-236.8,1.2-473.6,0.3-710.4,1
		c-13.2,0-30.5-2.9-41.7,3c-31,2.1-23.7,34.4-23.8,55.9c-0.7,168.5,0.6,336.9-1,505.4c-0.4,45.1,18.8,57.4,60.9,57.2
		c236.8-1.2,473.6-0.3,710.4-1c13.2,0,30.5,2.9,41.7-3c31-2.1,23.7-34.4,23.8-55.9C1480.8,551,1479.5,382.5,1481.1,214.1z
		 M1084.7,723.5c-104.6,0-209.2-3-313.6,1.1c-58.4,2.3-73.2-19.8-72.1-74.4c3.1-143.9,1.4-287.9,0.6-431.9c0-1.9,0-3.9,0.1-5.9
		c2.7-0.1,5.3-0.2,7.8-0.2c110.7,0.8,221.4,0.4,332.1,0.4c104.6,0,209.2,3,313.6-1.1c58.4-2.3,73.2,19.8,72.1,74.4
		c-3.1,143.9-1.4,287.9-0.6,431.9c0,1.9,0,3.9-0.1,5.9c-2.7,0.1-5.3,0.2-7.8,0.2C1306.2,723.1,1195.4,723.5,1084.7,723.5z"/>
</g>
<g>
	<g>
		<g id="id2_1_">
			<g id="bg-id2_1_">
			</g>
			<g id="bo-id2_1_">
			</g>
		</g>
	</g>
	<g>
		<g id="id5_1_">
			<path fill="#666666" d="M1060.1-155.3l20.2,62.1l65.5-0.3L1092.5-55L1113,7.4l-52.9-38.5l-53.2,38.5l20.5-62.4l-52.9-38.5h65.8
				L1060.1-155.3z"/>
		</g>
	</g>
	<g>
		<g id="id6_1_">
			<path fill="#666666" d="M1331.1-82.5l20.2,62.4l65.8,0.3l-53.5,38.2l20.5,62.4l-52.9-38.5l-53.2,38.5l20.5-62.4l-52.9-38.5h65.5
				L1331.1-82.5z"/>
		</g>
	</g>
	<g>
		<g id="id7_1_">
			<path fill="#666666" d="M1529.4,115.7l20.2,62.4h65.5l-53.2,38.5l20.2,62.4l-52.9-38.5l-52.9,38.5l20.5-62.4l-53.2-38.5h65.5
				L1529.4,115.7z"/>
		</g>
	</g>
	<g>
		<g id="id8_1_">
			<path fill="#666666" d="M1601.9,386.7l20.2,62.1h65.5l-53.2,38.5l20.2,62.4l-52.9-38.5l-52.9,38.5l20.5-62.4l-53.2-38.5h65.2
				L1601.9,386.7z"/>
		</g>
	</g>
	<g>
		<g id="id9_1_">
			<path fill="#666666" d="M1529.4,657.5l20.2,61.8h65.5l-52.9,38.5l20.2,62.4l-52.9-38.5l-53.2,38.5l20.5-62.1l-53.2-39.2l65.5-0.3
				L1529.4,657.5z"/>
		</g>
	</g>
	<g>
		<g id="id10_1_">
			<path fill="#666666" d="M1331.1,855.7l20.2,61.8h65.8l-53.2,38.5l20.2,62.4l-52.9-38.5l-52.9,38.5l20.5-62.4l-53.2-38.5l65.5-0.3
				L1331.1,855.7z"/>
		</g>
	</g>
	<g>
		<g id="id11_1_">
			<path fill="#666666" d="M1060.1,928.5l20.2,62.1l65.8-0.3l-53.2,38.8l20.5,62.4l-52.9-38.5l-53.2,38.5l20.5-62.4l-52.9-38.8h65.5
				L1060.1,928.5z"/>
		</g>
	</g>
	<g>
		<g id="id12_1_">
			<path fill="#666666" d="M789.1,855.7l19.9,61.8h65.8L821.5,956l20.2,62.4l-52.9-38.5l-52.9,38.5l20.5-62.4l-52.9-38.5l65.5-0.3
				L789.1,855.7z"/>
		</g>
	</g>
	<g>
		<g id="id13_1_">
			<path fill="#666666" d="M590.9,657.5l20.2,61.8h65.8l-53.2,38.5l20.2,62.4l-53.2-38.5l-53.2,38.5l20.5-62.4l-52.9-38.5l65.5-0.3
				L590.9,657.5z"/>
		</g>
	</g>
	<g>
		<g id="id14_1_">
			<path fill="#666666" d="M518.4,386.7l19.9,62.1h65.2l-53.2,38.5l20.5,62.4l-52.9-38.5l-53.2,38.5l20.5-62.4l-52.9-38.5h65.5
				L518.4,386.7z"/>
		</g>
	</g>
	<g>
		<g id="id15_1_">
			<path fill="#666666" d="M590.9,115.7l20.2,62.4h65.8l-52.9,38.5l20.2,62.4l-53.2-38.5l-53.2,38.5l20.5-62.4l-52.9-38.5h65.5
				L590.9,115.7z"/>
		</g>
	</g>
	<g>
		<g id="id16_1_">
			<path fill="#666666" d="M789.4-82.5l20.2,62.4l65.8,0.3l-53.2,38.2l20.2,62.1L789.1,42l-53.2,38.5l20.5-62.4l-52.9-38.5h65.5
				L789.4-82.5z"/>
		</g>
	</g>
	<g>
		<path fill="#666666" d="M1255.6,316.7c0-11-4-20.2-11.6-27.8c-7.6-7.6-17.1-11.6-27.8-11.6c-11,0-20.2,4-27.8,11.6
			c-7.6,7.6-11.6,17.1-11.6,27.8s4,20.2,11.6,27.8c7.6,7.6,17.1,11.6,27.8,11.6c11,0,20.2-4,27.8-11.6S1255.6,327.7,1255.6,316.7z
			 M1347.7,198.3c0,68.2-10.4,127.3-30.9,176.8c-20.5,49.6-55.4,99.1-104,148.1c-22.3,22-48.9,45.9-80.1,72.2l-8.3,155.7
			c-0.6,4.3-2.8,8-6.4,10.7l-157.8,92.1c-1.8,1.2-4,1.5-6.4,1.5c-3.4,0-6.4-1.2-9.5-3.7l-26.3-26.3c-3.7-4-4.6-8.3-3.4-13.2
			l34.9-113.5l-115.6-115l-113.5,34.9c-0.9,0.3-2.1,0.3-3.7,0.3c-4,0-7-1.2-9.5-3.7l-26.3-26.3c-4.6-5.2-5.2-10.4-2.1-15.9
			l92.1-157.8c2.8-4,6.4-6.1,10.7-6.4l155.7-8.3c26.3-31.2,50.5-57.8,72.2-80.1c51.4-51.1,100.6-86.6,147.1-105.8
			s105.5-29.1,177.1-29.1c4,0,7,1.2,9.8,4C1346.1,191.9,1347.7,194.9,1347.7,198.3z"/>
	</g>
</g>
</svg>
