<?xml version="1.0" encoding="utf-8"?>
<!-- Generator: Adobe Illustrator 19.1.0, SVG Export Plug-In . SVG Version: 6.00 Build 0)  -->
<svg version="1.0" id="Layer_2" xmlns="http://www.w3.org/2000/svg" xmlns:xlink="http://www.w3.org/1999/xlink" x="0px" y="0px"
	 viewBox="290 -288.6 1539.6 1536.6" enable-background="new 290 -288.6 1539.6 1536.6" xml:space="preserve">
<g display="none" opacity="0.6">
	<g display="inline">
		<path fill="#E5FF1D" d="M1064.5,1258.1c431.6,1.1,778.7-343.8,778.5-773.6c-0.2-430-347.3-774.4-779.1-773.1
			c-428.7,1.3-771.6,342.2-773.9,769C287.7,910.8,632.5,1257,1064.5,1258.1z M1068.5,1218.9c-403-9.5-731.9-305.6-736.4-727.5
			c-4.3-405.4,300-734.7,732.1-738c416.5-3.1,735.2,320.2,737.9,733.8C1804.7,888.8,1471.3,1215.3,1068.5,1218.9z"/>
	</g>
	<path display="inline" fill="#E5FF1D" d="M1481.1,214.1c0.4-45.1-18.8-57.4-60.9-57.2c-236.8,1.2-473.6,0.3-710.4,1
		c-13.2,0-30.5-2.9-41.7,3c-31,2.1-23.7,34.4-23.8,55.9c-0.7,168.5,0.6,336.9-1,505.4c-0.4,45.1,18.8,57.4,60.9,57.2
		c236.8-1.2,473.6-0.3,710.4-1c13.2,0,30.5,2.9,41.7-3c31-2.1,23.7-34.4,23.8-55.9C1480.8,551,1479.5,382.5,1481.1,214.1z
		 M1084.7,723.5c-104.6,0-209.2-3-313.6,1.1c-58.4,2.3-73.2-19.8-72.1-74.4c3.1-143.9,1.4-287.9,0.6-431.9c0-1.9,0-3.9,0.1-5.9
		c2.7-0.1,5.3-0.2,7.8-0.2c110.7,0.8,221.4,0.4,332.1,0.4c104.6,0,209.2,3,313.6-1.1c58.4-2.3,73.2,19.8,72.1,74.4
		c-3.1,143.9-1.4,287.9-0.6,431.9c0,1.9,0,3.9-0.1,5.9c-2.7,0.1-5.3,0.2-7.8,0.2C1306.2,723.1,1195.4,723.5,1084.7,723.5z"/>
</g>
<g>
	<path fill="#666666" d="M1442.3,199.7c11.9-35.6,9.7-63.1-6.7-82.3c-19.3-16.3-46.8-18.5-82.3-6.7c-35.6,11.9-67.5,31.9-95.7,60.1
		l-89,89l-370.1-88.5c-5.9-1.8-11.5-0.4-16.7,4.5L710.5,247c-4.1,4.1-5.8,9.1-5,15c1.1,5.9,4.3,10.4,9.5,13.3l282.6,155.3
		L853.5,574.8l-108-29.5c-0.7-0.4-2.2-0.6-4.5-0.6c-5.2,0-9.5,1.7-12.8,5l-53.4,53.9c-3.7,4.5-5.4,9.1-5,13.9
		c0.7,5.9,3.2,10.2,7.2,12.8l140.3,105.2l105.2,140.3c3.4,4.1,7.8,6.5,13.3,7.2h1.1c5.2,0,9.5-1.7,12.8-5l53.4-53.4
		c4.8-5.2,6.3-11,4.5-17.3l-29.5-107.9l144.1-144.1l155.3,282.6c2.2,4.8,6.1,7.8,11.7,8.9c1.1,0.4,2.4,0.6,3.9,0.6
		c4.5,0,8-1.1,10.6-3.4l71.2-53.4c6.3-5.2,8.5-11.3,6.7-18.4l-89-387.3l89.6-89.6C1410.3,267.2,1430.4,235.3,1442.3,199.7z
		 M1318.2,265l-141.6,141.6c3.2,7.2,5,15.2,5,23.7c0,32.6-26.4,59-59,59c-8.4,0-16.4-1.8-23.7-5l-131,131c3.2,7.2,5,15.2,5,23.7
		c0,32.6-26.4,59-59,59s-59-26.4-59-59s26.4-59,59-59c8.4,0,16.4,1.8,23.7,5l131-131c-3.2-7.2-5-15.2-5-23.7c0-32.6,26.4-59,59-59
		c8.4,0,16.4,1.8,23.7,5l141.6-141.6c-3.2-7.2-5-15.2-5-23.7c0-32.6,26.4-59,59-59c32.6,0,59,26.4,59,59s-26.4,59-59,59
		C1333.5,270,1325.5,268.2,1318.2,265z"/>
	<g>
		<path fill="#666666" d="M892,599.4l61.2,61.2l-15.2,15.2L905.1,643c-4.7-4.7-7.7-7.5-8.9-8.2c-1.2-0.7-2.5-0.9-4-0.3
			c-1.5,0.6-4,2.6-7.5,6.1l-1.5,1.5L876,635c5.8-8.9,8.1-17.8,7-26.6L892,599.4z"/>
	</g>
	<g>
		<path fill="#666666" d="M1159.8,433.3l10.2,10.2l-33,33l-8.6-8.6c-6.2-25.8-10.3-41.4-12.2-47.1s-4-9.6-6.1-11.6
			c-1.7-1.7-3.1-2.6-4.5-2.8c-1.3-0.2-2.6,0.2-3.7,1.3c-1.2,1.2-1.5,2.4-1.2,3.9c0.3,1.5,1.8,3.5,4.5,6.1l5.7,5.7l-13.4,13.4
			l-2.2-2.2c-3.4-3.4-5.8-6.2-7.5-8.4c-1.6-2.3-2.6-5.1-3.2-8.3c-0.5-3.2-0.2-6.4,1-9.6s3.4-6.2,6.4-9.3c5.9-5.9,11.9-9,17.9-9.1
			c6-0.1,11.3,2.1,15.8,6.6c3.4,3.4,6.2,8,8.3,13.5c2.1,5.5,5.2,18.7,9.2,39.6L1159.8,433.3z"/>
	</g>
	<g>
		<path fill="#666666" d="M1350.4,194.6c2.9-1.5,5.8-1.9,8.6-1.3c2.8,0.6,7.3,4,13.5,10.3c4.7,4.7,7.7,8.8,9.2,12.4
			c1.5,3.6,1.6,7.4,0.4,11.3c-1.3,3.9-3.9,7.9-8,11.9c-4.6,4.6-9,7.5-13.2,8.5c-4.2,1.1-7.8,0.9-10.9-0.5
			c-3.1-1.4-7.3-4.9-12.9-10.4l-4.6-4.6l14.5-14.5l9.5,9.5c2.5,2.5,4.3,4,5.3,4.3c1,0.4,2,0.1,3-1c1.1-1.1,1.5-2.3,0.9-3.6
			c-0.5-1.2-2.6-3.7-6.2-7.3l-4-4c-2.2-2.2-4.1-3.6-5.6-4.2c-1.5-0.6-2.9-0.5-4.3,0.2c-1.3,0.7-3.4,2.4-6.3,5.1l-8.4-8.4
			c3.4-3.4,5.4-5.7,6-6.8c0.6-1.1,0.6-2.3,0.1-3.5c-0.6-1.2-1.7-2.8-3.6-4.7l-3.2-3.2c-2-2-3.6-3.2-4.7-3.4c-1-0.2-2,0.1-2.9,1
			c-1,1-1.3,2-1,3.1c0.3,1,1.6,2.7,3.8,5l4.8,4.8l-14.5,14.5l-5-5c-5.6-5.6-8.1-10.6-7.5-15.1c0.6-4.5,3.7-9.5,9.2-15.1
			c6.9-6.9,13-10.3,18.2-10s10.2,2.8,15,7.6c3.2,3.2,5.1,6.1,5.8,8.4C1351.7,188.3,1351.5,191.1,1350.4,194.6z"/>
	</g>
</g>
</svg>
