<?xml version="1.0" encoding="utf-8"?>
<!-- Generator: Adobe Illustrator 19.1.0, SVG Export Plug-In . SVG Version: 6.00 Build 0)  -->
<svg version="1.0" id="Layer_2" xmlns="http://www.w3.org/2000/svg" xmlns:xlink="http://www.w3.org/1999/xlink" x="0px" y="0px"
	 viewBox="290 -288.6 1539.6 1536.6" enable-background="new 290 -288.6 1539.6 1536.6" xml:space="preserve">
<g display="none" opacity="0.6">
	<g display="inline">
		<path fill="#494949" d="M1064.5,1258.1c431.6,1.1,778.7-343.8,778.5-773.6c-0.2-430-347.3-774.4-779.1-773.1
			c-428.7,1.3-771.6,342.2-773.9,769C287.7,910.8,632.5,1257,1064.5,1258.1z M1068.5,1218.9c-403-9.5-731.9-305.6-736.4-727.5
			c-4.3-405.4,300-734.7,732.1-738c416.5-3.1,735.2,320.2,737.9,733.8C1804.7,888.8,1471.3,1215.3,1068.5,1218.9z"/>
	</g>
	<path display="inline" fill="#494949" d="M1481.1,214.1c0.4-45.1-18.8-57.4-60.9-57.2c-236.8,1.2-473.6,0.3-710.4,1
		c-13.2,0-30.5-2.9-41.7,3c-31,2.1-23.7,34.4-23.8,55.9c-0.7,168.5,0.6,336.9-1,505.4c-0.4,45.1,18.8,57.4,60.9,57.2
		c236.8-1.2,473.6-0.3,710.4-1c13.2,0,30.5,2.9,41.7-3c31-2.1,23.7-34.4,23.8-55.9C1480.8,551,1479.5,382.5,1481.1,214.1z
		 M1084.7,723.5c-104.6,0-209.2-3-313.6,1.1c-58.4,2.3-73.2-19.8-72.1-74.4c3.1-143.9,1.4-287.9,0.6-431.9c0-1.9,0-3.9,0.1-5.9
		c2.7-0.1,5.3-0.2,7.8-0.2c110.7,0.8,221.4,0.4,332.1,0.4c104.6,0,209.2,3,313.6-1.1c58.4-2.3,73.2,19.8,72.1,74.4
		c-3.1,143.9-1.4,287.9-0.6,431.9c0,1.9,0,3.9-0.1,5.9c-2.7,0.1-5.3,0.2-7.8,0.2C1306.2,723.1,1195.4,723.5,1084.7,723.5z"/>
</g>
<g>
	<path fill="#494949" d="M1119.3,741.1c4.4,5.3,8.4,7.5,11.9,6.6c2.7-0.6,4.8-2.2,6.3-4.9c2.8-3.7,3.9-9.5,3.9-17.5
		c-14.2,7.1-26.1,2.3-33.2-11.9c0,0-0.1-2.5-2.4-4.8c0-2.5-2.4-4.8-2.4-4.8c0-1.1-0.5-2.1-1-2.9c-0.1-0.4-0.2-0.8-0.3-1.2
		c-0.4-2-0.4-3.6,0-5s1.5-2,3.3-2c4,0,6.2-0.8,6.6-2.3s0-4.3-1.3-8.3c-1.3-4-2.2-6.8-2.7-8.6c-0.3-2.2-1.3-4.7-3.1-7.5
		c-1.1-2.4-3.1-5-6.1-9.4c-4.8-4.6-7.1-9.4-7.1-9.4c-2.5,4.8-4.8,4.8-11.9,4.8c-4.8,0-9.8-2.3-11.9-7.1c0,0,0,2.5,0,4.8
		c0,2.5,0,2.6,0,4.7c-2.8,0-5.9,0-7.8,0c0.3-2,0.7-5,1.1-9.1c0.7-6.4,1.4-11.4,2.3-14.9c0.4-1.8,1.7-4.4,3.6-8
		c0.1-0.2,0.2-0.3,0.3-0.5c0.2-0.2,0.3-0.3,0.5-0.5c2.5-2.3,4.8-7.1,4.8-9.4c2.3-2.3,2.3-4.6,2.3-9.4c0-2.3,0-4.8-2.3-7.1
		c-2.5-2.3-7.1-2.3-11.9-2.3c-8.9,0-13.7,4.4-16.1,12.9c-0.6,1.1-1.2,2.3-1.7,3.7c-0.4,1.3-1.1,3.6-2,7c-0.6,2.4-1.4,4.3-2.2,5.9
		c-1.5,1.6-2.1,1.9-6.2,3.8c-2.3,2.3-9.4,2.3-16.5,2.3c-7.1,0-11.7-2.3-16.5-2.3c-3.2-3.2-7.5-6.4-10.6-11.1
		c-0.7-1.1-1.4-2.3-2.1-3.6c-0.6-1.3-1.1-2.8-1.5-4.3c-2.9-5.7-4.8-11.3-5.9-16.5c-0.5-2.7-0.8-5.3-0.8-7.7c0-2.9,0.2-6.5,0.7-10.7
		c-4.5-1.2-8.8-3.5-12.7-6.7l-0.8-0.6l-24.6-24.6l-0.4-0.5c-7.6-8.6-10.2-19.4-7.2-30.3l0.1-0.3l27.8-90.2l-86.2-86.2l-89.4,27.5
		c-3.6,1.3-7.1,1.4-9.7,1.4c-8.8,0-16.6-3.2-22.5-9.2l-15.1-15.1c-0.1,7-2.6,14-2.6,23.3c0,9.4,0,14.5,0,16.6h2.6
		c-2.3,4.2,0,14.2,4.8,23.6c1.5,2.9,3,5.4,4.4,7.4c2.2,5.1,4.8,8.5,7.6,10c-0.4,4,3.3,11.3,12.9,21.5c1.8,2.4,3.8,4.9,6.1,7.7
		c0.8,1.1,1.5,2,2.1,2.7c0,0.1,0,0.1,0,0.2c0.1,0,0.1,0,0.2,0c1.4,1.7,2.4,2.7,3,3c1.3,0.9,4,2.5,8,5c1.4,0.8,2.6,1.6,3.9,2.4
		c0.5,0.5,1,1,1.5,1.5c2.3,2.3,4.8,4.8,7.1,7.1c2.3,2.3,4.8,7.1,7.1,14.2c2.3,7.1,4.6,14.2,9.4,16.5c0,2.3,2.3,7.1,7.1,14.2
		s7.1,12.2,7.1,16.5c0,0,0,0-2.3,0s-2.3,0-2.3,0c2.3,2.1,4.6,7.1,9.4,9.4c4.6,2.3,9.4,7.1,9.4,9.4s0,4.8,2.3,7.1
		c0,2.3,0,4.8,2.3,7.1c0,2.3,2.5,2.3,4.8,2.3c0-0.4,0-0.9,0-1.3c1,1.2,2.6,1.4,4.8,0.6c0.9-8.8-4.4-22.5-15.9-41.1
		c-6.6-11-10.4-17.5-11.3-19.2c-1.3-2.2-2.5-5.6-3.6-10.3c-0.8-3.4-1.6-6.1-2.3-7.9c1.4,0.6,2.4,1.5,2.4,1.5c2.5,0,4.8,2.1,4.8,2.1
		c2.3,0,2.3,2.3,2.3,2.3c-2.5,2.5,0,7.1,2.3,11.9c2.3,4.8,4.8,9.6,7.1,11.9c2.5,4.8,7.1,7.2,11.9,11.9c4.8,4.6,7.1,7.1,7.1,9.4
		c2.3,2.3,4.6,7.1,9.4,14.2c4.8,7.1,4.8,9.4,0,9.4c4.8,0,9.4,2.3,14.2,7.1c4.8,4.8,9.5,9.5,11.9,14.2c2.5,4.6,4.8,9.4,4.8,16.5
		c2.3,7.1,2.3,14.2,2.3,16.5s2.5,7.1,4.8,9.4s4.6,4.8,9.4,7.1l11.9,4.8l9.4,4.8c2.5,0,7.1,2.3,11.9,7.1c7.1,4.8,11.9,7.1,14.2,7.1
		c4.8,2.3,7.3,2.3,11.9,2.3s7.1,0,9.4-2.3c4.7,0,7.1-2.3,9.4-2.3c7.1,0,14,2.3,18.8,9.4c7.1,7.1,11.8,11.9,14.1,14.2
		c16.5,9.4,28.2,11.9,37.7,7.1c0,0,0,2.5,0,4.8s2.6,7.1,4.9,9.4c2.3,4.6,4.9,7.1,7.2,9.4c2.2,2.2,2.5,4.2,4,4.7
		c0.1,0.1,0.2,0.3,0.3,0.4c2.2,2.7,6.2,6,11.9,9.9c5.7,4,9.7,7.3,11.9,9.9c1.8-1.2,3.1-2.5,3.9-3.9c0.1-0.1,0.3-0.2,0.4-0.3
		C1113.9,732.9,1115.6,736.7,1119.3,741.1z"/>
	<path fill="#494949" d="M1233.7,271c-18.4,18.2-40.1,37.9-66.2,60.1l-6.7,127.1c5.3-6.4,6.9-12.4,4.9-17.9c3.1,0,5.5-2,7.3-6
		c-0.4,0-1.5-0.7-3.3-2c-0.6-0.4-1.2-0.8-1.7-1.2c0.7-1,1.4-2.2,2.1-3.7c0,0-2.3,0-2.3-2.3c0-1.6-1.2-2.1-2.7-2.2
		c0-1.4-0.4-3-1.4-4.7c0.4-0.6,0.7-1.3,0.8-2.1c1.5-1.4,2.7-3.5,3.6-6.2c1.1-3.5,2.8-5.7,5-6.6c4,5.3,8.6,5.7,13.9,1.3
		c3-3.4,3.3-6.8,0.9-10.2c0.1-0.4,0.2-0.8,0.3-1.1c2.4-2.7,6.7-4.8,13-6.2c6.8-1.5,10.9-3.6,12.3-6.3c3.1,0.9,4.9,0.4,5.3-1.3
		c0.4-1.8,0.7-4.4,0.7-8c0-3.5,0.7-6.2,2-8c1.8-2.2,5.1-4.2,9.9-6c4.9-1.8,7.7-2.9,8.6-3.3l11.3-7.3c1.3-1.8,1.3-2.7,0-2.7
		c8,0.9,14.8-1.5,20.5-7.3c3.1-3.4,3.4-6.6,0.9-9.5c3.6-4.5,1.2-8.9-5.5-13.5c0.2-0.2,0.4-0.4,0.5-0.6c1.4-0.2,2.3-0.5,2.8-1
		c6.6-4.4,5.1-8-4.6-10.6c-0.1,0-0.1,0-0.2,0c2.7,0,4,0,4,0c6.5-3.8,4.9-6.3-2.6-10.3c3.8-0.7,8.1-1.5,12.7-2.2
		c15-3.5,26.3-1.1,33.8,7.3c-0.9-0.9,1.2-3.8,6.3-8.6c5.1-4.9,8.3-7.5,9.6-8c1.3-0.9,4.6-1.9,9.9-3c5.3-1.1,8.6-2.8,9.9-5l1.3-14.6
		c-0.8,0.1-1.6,0.1-2.4,0l1.1-7.1c-4.8,0-9.6,0-11.9-4.8c-1-1.8-1.9-3.7-2.7-5.5c0-0.4-0.1-0.8-0.1-1.3c0,0.2-0.1,0.4-0.1,0.6
		c-1.1-2.7-1.9-5.4-1.9-8.2c0,0-2.5,2.2-4.8,4.5c0-2.4,0-5-2.3-5s-4.8,0-7.1,0s-4.8,0-7.1,0c-4.6-2.2-7.1-2.2-9.4-4.5
		c-1.5-1.4-3-2.7-3.9-5.2c-0.2-0.9-0.4-1.7-0.6-2.4c-0.2-1.1-0.3-2.4-0.3-3.9c-2.3-4.6-2.3-9.4-2.3-9.4c0-1.3-0.7-2.7-2.3-4
		c-16.4,23.4-36,46.7-58.9,69.7L1233.7,271z"/>
	<path fill="#494949" d="M1004.3,61.1c-6-0.4-10.3,0.4-12.9,2.7c-2.2,3.1-3.4,5.6-3.6,7.6c-0.2,2,0.9,3.8,3.3,5.3
		c2.4,1.5,4.8,2.8,7,3.6c1.7,0.7,3.7,1.4,5.9,2.1c5.5-5.9,10.8-11.5,16-16.8c-0.6-0.4-1.3-0.8-2-1.2
		C1014.8,62.7,1010.3,61.6,1004.3,61.1z"/>
	<path fill="#494949" d="M987.8,98.8c0.2,0.3,0.3,0.6,0.4,0.9c0,0,0.1-0.1,0.1-0.1C988.1,99.3,988,99,987.8,98.8z"/>
	<path fill="#494949" d="M1345.4,89.9c-4,14.8-8.7,28.8-14.3,42.2c-0.8,1.9-1.6,3.8-2.4,5.7c98.4,77.8,160.7,197.8,160.7,333.8
		c0,114.5-46.6,220.2-120.6,297.6c-2.3-2.2-4.6-2.2-9.3-2.2c-4.6,0-7.1-2.3-9.4-2.3c-7.1-2.5-14.2-4.8-16.5-4.8c0-2.3,0-7.1-2.3-9.4
		c-2.5-2.3-2.5-4.8-4.8-7.1c-2.3-2.5-4.6-2.5-9.4-4.8c-4.8-2.5-7.1-4.8-7.1-4.8s-2.5-2.4-4.8-4.7c-2.5-2.4-4.8-2.4-4.8-4.7
		c0,0-2.5-2.2-4.8-2.2c-2.5,0-4.8-2.1-4.8-2.1s-4.8,0-7.1,0h-2.3c-2.4,0-2.4-0.2-4.7,2.1c0,0-2.4,2.1-4.7,2.1
		c-2.3,0-2.2,2.3-2.2,2.3v2.2c-9.5-7.1-16.6-11.9-23.7-14.2c-2.3,0-4.9-2.5-7.2-4.8c-2.3-2.5-4.8-4.8-7.1-4.8s-4.8-2.3-7.1,0
		c-2.3,0-4.8,2.5-7.1,4.8c-2.5,2.3-4.8,4.6-4.8,9.4c0,4.6,0,7.1-2.3,9.4c-2.3-2.5-2.3-7.1,0-11.9c2.3-4.8,4.6-9.6,2.3-11.9
		c-2.3-2.3-4.8-4.6-7.1-2.3c-2.3,0-7.1,2.3-7.1,2.3s-4.8,2.5-7.1,4.8c-2.3,2.5-4.8,4.8-7.1,4.8c0,0-2.5,2.5-4.8,4.8
		c-2.5,2.5-4.8,4.8-4.8,4.8c-2.5,2.3-2.5,4.8-4.8,7.1c-2.3,4.8-2.3,7.1-2.3,7.1c0-2.5-2.3-2.5-7.1-4.8c-4.8,0-4.8-2.3-7.1-2.3
		c0,4.6,2.3,11.7,2.3,23.6s2.3,19,2.3,26.1c2.3,14.2,0,23.8-7.1,33.2c-11.9,11.9-19,21.3-19,26.1c-2.3,9.4,0,16.5,7.1,16.5
		c0,2.3-2.5,7.1-4.8,14.2c-2.4,7.1-4.8,11.9-4.8,14.2c0,2.5,0,4.8,0,4.8c-21.2,2.5-42.6,4.8-66.2,4.8
		c-233.9,0-425.2-189-425.6-425.1c0-79.3,23-154,60-219.6c1.3,1.2,2.6,2.2,3.7,2.9c0,4.4,0.1,6.5,2.3,6.5c0,1.8,1.2,1,3.8-0.5
		c0.1,0.4,0.1,0.8,0.2,1.2c0.4,3.5,1,6,1.7,7.3c0.5,1,2,0.9,4.6-0.3c-0.2,0.6-0.5,1.3-0.8,2c0,0,2.4,1.2,7.4,4.2
		c-0.1,1.5-0.6,3.1-1.5,4.8c0.3-0.3,3.8,1.8,10.7,6l78.5-134.4l0.4-0.6c5.5-8.1,13.9-13.2,23.5-14.4l0.7-0.1l131.3-6.9
		c7.6-9,15-17.4,22-25.4c-2.7,0.8-7.7,0.8-15.2,0.1l-6.6-0.7c-1.8,0-5.3,0.4-10.6,1.3c-5.3,0.9-9.8,1.1-13.6,0.7
		c-3.8-0.4-6.7-2.2-8.9-5.3c-1.8-3.5-1.8-8,0-13.3c0.4-1.8,1.3-2.2,2.7-1.3c-1.8-1.3-4.2-3.4-7.3-6.3c-3.1-2.9-5.3-4.8-6.6-5.6
		c-18.7,6.1-37.7,14.2-57.1,24.4c-0.1-2.4-0.2-4.8-0.2-7.1c0-3.5,0.1-7.1,0.2-10.6c2.6-1.4,5.3-2.8,8-4.2
		c60.2-30.7,125.1-45.4,189.2-46.1c15.4-13.2,30.6-24.8,45.6-34.9c-86.4-8.4-176.1,6.8-258.8,48.9C760,82.2,692.7,148.5,648.5,227.7
		c-41.1,69.6-64.7,150.5-64.7,237.1c0,260,212.7,472.5,472.6,472.5s472.5-212.6,472.5-472.5C1534.6,314,1460.5,176.7,1345.4,89.9z"
		/>
	<path fill="#494949" d="M1112.7,523.7c4.9,17.7,9.1,27.4,12.6,29.2c3.1,1.3,5.5,1.8,7.3,1.3c1.8-0.4,2.8-2.5,3-6.3s0.2-6.8,0-9.3
		s-0.6-5.2-1-8.3l-0.7-5.3v-11.9l-0.7-5.3c-0.4-0.1-0.8-0.2-1.2-0.3v-1.9v-4.8c-2.2-0.8-4.3-1.6-6-2.5l-19.8,11.5
		C1109.7,515.2,1111.9,519.8,1112.7,523.7z"/>
</g>
<path fill="#494949" d="M1336.9-41.9c-2.4-2.3-5.4-3.5-8.8-3.5c-63.9,0-116.7,8.7-158.3,26.1s-85.4,49-131.5,94.7
	c-19.6,19.8-41.1,43.7-64.6,71.6l-139.2,7.3c-3.9,0.5-7.1,2.4-9.5,5.9l-82.3,141c-2.9,4.9-2.3,9.7,1.8,14.3L768,339
	c2.2,2.2,5,3.3,8.4,3.3c1.5,0,2.6-0.1,3.3-0.4l101.4-31.2l103.2,103.2l-31.2,101.4c-1.2,4.4-0.2,8.3,2.9,11.8l23.5,23.5
	c2.7,2.2,5.5,3.3,8.4,3.3c2.2,0,4.2-0.5,5.9-1.5l141-82.3c3.4-2.4,5.4-5.6,5.9-9.5l7.3-139.2c27.9-23.5,51.8-45,71.6-64.6
	c43.6-43.8,74.6-87.9,93.1-132.4c18.5-44.4,27.7-97.1,27.7-158.1C1340.6-36.8,1339.4-39.5,1336.9-41.9z M1248.1,97.1
	c-6.9,6.9-15.2,10.3-25,10.3s-18.1-3.4-25-10.3s-10.3-15.2-10.3-25s3.4-18.1,10.3-25s15.2-10.3,25-10.3s18.1,3.4,25,10.3
	s10.3,15.2,10.3,25C1258.4,82,1254.9,90.3,1248.1,97.1z"/>
</svg>
