<?xml version="1.0" encoding="utf-8"?>
<!-- Generator: Adobe Illustrator 19.1.0, SVG Export Plug-In . SVG Version: 6.00 Build 0)  -->
<svg version="1.0" xmlns="http://www.w3.org/2000/svg" xmlns:xlink="http://www.w3.org/1999/xlink" x="0px" y="0px"
	 viewBox="290 -288.6 1539.6 1536.6" enable-background="new 290 -288.6 1539.6 1536.6" xml:space="preserve">
<g id="Layer_2">
	<g display="none" opacity="0.6">
		<g display="inline">
			<path fill="#494949" d="M1064.5,1258.1c431.6,1.1,778.7-343.8,778.5-773.6c-0.2-430-347.3-774.4-779.1-773.1
				c-428.7,1.3-771.6,342.2-773.9,769C287.7,910.8,632.5,1257,1064.5,1258.1z M1068.5,1218.9c-403-9.5-731.9-305.6-736.4-727.5
				c-4.3-405.4,300-734.7,732.1-738c416.5-3.1,735.2,320.2,737.9,733.8C1804.7,888.8,1471.3,1215.3,1068.5,1218.9z"/>
		</g>
		<path display="inline" fill="#494949" d="M1481.1,214.1c0.4-45.1-18.8-57.4-60.9-57.2c-236.8,1.2-473.6,0.3-710.4,1
			c-13.2,0-30.5-2.9-41.7,3c-31,2.1-23.7,34.4-23.8,55.9c-0.7,168.5,0.6,336.9-1,505.4c-0.4,45.1,18.8,57.4,60.9,57.2
			c236.8-1.2,473.6-0.3,710.4-1c13.2,0,30.5,2.9,41.7-3c31-2.1,23.7-34.4,23.8-55.9C1480.8,551,1479.5,382.5,1481.1,214.1z
			 M1084.7,723.5c-104.6,0-209.2-3-313.6,1.1c-58.4,2.3-73.2-19.8-72.1-74.4c3.1-143.9,1.4-287.9,0.6-431.9c0-1.9,0-3.9,0.1-5.9
			c2.7-0.1,5.3-0.2,7.8-0.2c110.7,0.8,221.4,0.4,332.1,0.4c104.6,0,209.2,3,313.6-1.1c58.4-2.3,73.2,19.8,72.1,74.4
			c-3.1,143.9-1.4,287.9-0.6,431.9c0,1.9,0,3.9-0.1,5.9c-2.7,0.1-5.3,0.2-7.8,0.2C1306.2,723.1,1195.4,723.5,1084.7,723.5z"/>
	</g>
	<g>
		<path fill="#666666" d="M1427,311c-1.7,0-8.1,3-19,9.2c-10.9,6.2-25.2,12.3-42.8,18.7c-1.2,0.4-2.4,0.9-3.6,1.3
			c5.7,12.5,6.3,28.7-3.2,49.7c-6.6,14.5-11.3,30.3-16.7,48.7c-2.7,9-5.4,18.4-8.6,28.4l-15.6,48.7c7,6,13.7,12.7,20,20.2h58.9
			c24,0,44.3-5.9,60.7-17.7s24.6-29.2,24.6-52C1481.3,362.7,1463.2,311,1427,311z"/>
		<path fill="#666666" d="M789.1,467.3c-3.9-11.5-7.7-22.4-11.5-33c-8.7-24.5-16.9-47.6-22.8-71.5c-2-8.1-1.3-16,1.9-23.1
			c-0.8-0.3-1.6-0.5-2.4-0.8c-17.6-6.3-31.8-12.5-42.8-18.7s-17.3-9.2-19-9.2c-36.4,0-54.5,51.8-54.5,155.1c0,22.9,8.3,40.2,24.6,52
			c16.4,11.8,36.7,17.7,60.7,17.7h58.9c7-8.4,14.5-15.8,22.4-22.3L789.1,467.3z"/>
	</g>
	<path fill="#666666" d="M1035.4,801.7c-5.5-16.5-10.9-32.7-16.2-48.5c-15.1-45.3-29.4-88.1-43.8-130.9
		c-7.7-22.9-1.4-43.3,17.8-57.5c2.3-1.7,4.7-3.5,7-5.3c-19.5-6.3-35.2-13.3-46.8-21c-11.7-7.8-22.5-14.8-32.1-21.1
		c-9.7-6.3-15.9-9.5-18.9-9.5c-17.9,0-34.2,2.9-49,8.8c-14.8,5.8-27.3,13.7-37.6,23.5c-10.2,9.9-19.3,21.7-27.2,35.6
		c-7.9,13.9-14.2,28.2-18.9,42.8s-8.5,30.5-11.7,47.7c-3,17.1-5.1,33.1-6.2,47.9c-1.1,14.8-1.6,30-1.6,45.5
		c0,35.2,10.6,62.9,32.1,83.3s49.8,30.5,85.3,30.5h191.8L1035.4,801.7z"/>
	<path fill="#666666" d="M1083.6,143.6c8.4,1.8,16.8,3.3,25.1,5.3c89,22.3,149.3,99.6,149.3,191.3c0,88.4-60.5,166.2-146.4,188.1
		c-1.2,0.3-2.4,0.4-3.8,0.1c41-15.1,71.1-41.8,88.9-81.7c11.6-26,15.2-57.6,9.6-78.3c-7.6,1.5-15.2,3.6-23,4.5
		c-35.1,4.1-67.8-4.6-99-19.6c-40.9-19.8-74.6-47.5-96-88.5c-0.2-0.4-0.8-0.6-1.9-1.4c-42.8,27.6-67.5,66.5-70.6,117.9
		c-2,33.1,7.1,63.5,26.1,90.8c18.7,26.8,44,45.2,74.7,56.5c-20-3.9-38.4-11.5-55.6-22C892,464.7,856,388,868.7,309
		c13.4-82.7,74-145.3,154.5-161.9c5.9-1.2,11.8-2.4,17.6-3.6C1055.1,143.6,1069.4,143.6,1083.6,143.6z"/>
	<path fill="#666666" d="M1339.5,89.2c-4.8-1.2-9.6-2.1-14.4-3.1c-8.2,0-16.4,0-24.6,0c-3.4,0.7-6.8,1.4-10.1,2.1
		c-40.6,8.4-72.4,37.1-84.8,76.2c10.8,8.8,20.7,18.6,29.8,29.4c6.7-15.7,18.2-28.5,34-38.7c0.7,0.5,1,0.6,1.1,0.8
		c12.3,23.6,31.7,39.6,55.2,50.9c17.9,8.7,36.8,13.7,56.9,11.3c4.5-0.5,8.8-1.7,13.2-2.6c3.2,11.9,1.1,30.1-5.5,45.1
		c-10.2,23-27.6,38.3-51.2,47c0.8,0.2,1.5,0.1,2.2-0.1c49.4-12.6,84.3-57.4,84.3-108.2C1425.4,146.5,1390.8,102.1,1339.5,89.2z"/>
	<path fill="#666666" d="M1275.9,412.4c-8,23.4-19.9,45.5-35.2,65.2c-0.9,1.2-1.8,2.3-2.7,3.4c26.7,3.3,50.5,12.7,71.2,28.1
		l-14.1-41.8c-3.9-11.5-7.7-22.4-11.5-33C1281,426.9,1278.4,419.6,1275.9,412.4z"/>
	<path fill="#666666" d="M1367.4,714.1c-1.1-14.8-3-30.7-6.2-47.9s-7-33-11.7-47.7c-4.7-14.6-11-28.9-18.9-42.8
		c-7.9-13.9-16.9-25.7-27.2-35.6c-10.2-9.9-22.7-17.6-37.6-23.5c-14.8-5.8-31.1-8.8-49-8.8c-1.6,0-4.1,0.9-7.6,2.7
		c-16.6,14.1-35.2,25.9-55.1,34.7c-8,4.2-17.3,8.1-27.9,11.8c10.7,10,17.7,19.5,21.6,31.8c7.1,22.6,0.3,43.2-12.2,80.5
		c-9.6,29-19.1,57.9-29,88.5c-4.6,14.2-9.3,28.7-14.2,43.7l-23.5,71.9h182.7c35.5,0,63.8-10.2,85.3-30.5
		c21.4-20.4,32.1-48.1,32.1-83.3C1368.9,744.1,1368.4,729,1367.4,714.1z M1262.6,736.3c-0.5,6.1-6.4,7-11.5,7.1
		c-12.8,0.2-25.7,0.1-38.5,0.1c-12.1,0-24.3,0.2-36.4,0c-4.9-0.1-10.9-0.1-11.5-6.7c-0.6-7.1,5.6-7.6,10.3-7.6
		c25.7-0.3,51.4-0.2,77,0C1256.6,729.1,1263.2,729.3,1262.6,736.3z"/>
	<path fill="#666666" d="M871.1,218.6c8.1-12.9,17.4-24.9,28-36c5-5.2,10.2-10.2,15.7-14.9c-10.8-38.3-41-68.3-81.5-78.5
		c-4.8-1.2-9.6-2.1-14.4-3.1c-8.2,0-16.4,0-24.6,0c-3.4,0.7-6.8,1.4-10.1,2.1c-46.3,9.6-81.2,45.6-88.9,93.2
		c-7.4,45.4,13.4,89.6,53.1,113.6c9.9,6,20.5,10.4,32,12.6c-17.7-6.5-32.2-17.1-43-32.5c-10.9-15.7-16.2-33.2-15-52.2
		c1.8-29.6,16-51.9,40.6-67.8c0.7,0.5,1,0.6,1.1,0.8c12.3,23.6,31.7,39.6,55.2,50.9C835.7,214.8,852.9,219.6,871.1,218.6z"/>
	<path fill="#666666" d="M857,434.4c-4.4-9.3-8-18.9-11-28.6c-3.6,10.1-6.8,20.9-10.3,32.8c-2.7,9-5.4,18.4-8.6,28.4l-12.5,39
		c20.8-14.4,44.6-22.9,71.4-25.5C874.5,466.4,864.8,451,857,434.4z"/>
</g>
<g id="Layer_3">
</g>
</svg>
