<?xml version="1.0" encoding="utf-8"?>
<!-- Generator: Adobe Illustrator 19.1.0, SVG Export Plug-In . SVG Version: 6.00 Build 0)  -->
<svg version="1.0" id="Layer_2" xmlns="http://www.w3.org/2000/svg" xmlns:xlink="http://www.w3.org/1999/xlink" x="0px" y="0px"
	 viewBox="290 -288.6 1539.6 1536.6" enable-background="new 290 -288.6 1539.6 1536.6" xml:space="preserve">
<g display="none" opacity="0.6">
	<g display="inline">
		<path fill="#E5FF1D" d="M1064.5,1258.1c431.6,1.1,778.7-343.8,778.5-773.6c-0.2-430-347.3-774.4-779.1-773.1
			c-428.7,1.3-771.6,342.2-773.9,769C287.7,910.8,632.5,1257,1064.5,1258.1z M1068.5,1218.9c-403-9.5-731.9-305.6-736.4-727.5
			c-4.3-405.4,300-734.7,732.1-738c416.5-3.1,735.2,320.2,737.9,733.8C1804.7,888.8,1471.3,1215.3,1068.5,1218.9z"/>
	</g>
	<path display="inline" fill="#E5FF1D" d="M1481.1,214.1c0.4-45.1-18.8-57.4-60.9-57.2c-236.8,1.2-473.6,0.3-710.4,1
		c-13.2,0-30.5-2.9-41.7,3c-31,2.1-23.7,34.4-23.8,55.9c-0.7,168.5,0.6,336.9-1,505.4c-0.4,45.1,18.8,57.4,60.9,57.2
		c236.8-1.2,473.6-0.3,710.4-1c13.2,0,30.5,2.9,41.7-3c31-2.1,23.7-34.4,23.8-55.9C1480.8,551,1479.5,382.5,1481.1,214.1z
		 M1084.7,723.5c-104.6,0-209.2-3-313.6,1.1c-58.4,2.3-73.2-19.8-72.1-74.4c3.1-143.9,1.4-287.9,0.6-431.9c0-1.9,0-3.9,0.1-5.9
		c2.7-0.1,5.3-0.2,7.8-0.2c110.7,0.8,221.4,0.4,332.1,0.4c104.6,0,209.2,3,313.6-1.1c58.4-2.3,73.2,19.8,72.1,74.4
		c-3.1,143.9-1.4,287.9-0.6,431.9c0,1.9,0,3.9-0.1,5.9c-2.7,0.1-5.3,0.2-7.8,0.2C1306.2,723.1,1195.4,723.5,1084.7,723.5z"/>
</g>
<g>
	<path fill="#666666" d="M952.2,403c1.8,1.8,4,2.7,6.8,2.7c1.2,0,2.1-0.1,2.7-0.3l81.3-25l69.9,69.9c20.8,0,40.6,0,60.5,0.1
		c19.5,0,36.7,6.6,48.5,18.5c10.5,10.7,16.2,25.3,16.1,41.1c0,1.1-0.1,2.2-0.1,3.2l8.6-5c2.7-2,4.3-4.5,4.7-7.7l5.9-111.6
		c22.4-18.8,41.5-36.1,57.4-51.8c34.9-35.1,59.8-70.5,74.7-106.2c14.8-35.6,22.2-77.9,22.2-126.8c0-2.6-1-4.8-2.9-6.6
		s-4.3-2.8-7.1-2.8c-51.2,0-93.5,7-126.9,20.9c-33.4,13.9-68.5,39.3-105.4,76c-15.7,15.9-33,35-51.8,57.4l-111.6,5.9
		c-3.1,0.4-5.7,2-7.7,4.7l-66,113.1c-2.4,3.9-1.9,7.8,1.5,11.5L952.2,403z M1297.1,168.9c5.5-5.5,12.2-8.2,20-8.2s14.5,2.7,20,8.2
		c5.5,5.5,8.2,12.2,8.2,20c0,7.9-2.7,14.5-8.2,20c-5.5,5.5-12.2,8.2-20,8.2s-14.5-2.7-20-8.2c-5.5-5.5-8.2-12.2-8.2-20
		C1288.8,181.1,1291.6,174.4,1297.1,168.9z"/>
	<path fill="#666666" d="M1069.3,685.1c-60.6,0-121.2,0.3-181.8-0.3c-13.3-0.1-22.8,4.1-32.1,13.5c-49.3,50.1-99.4,99.4-148.8,149.4
		c-13.8,14-28.7,21.1-47.8,14.3c-17.7-6.3-25.8-21.3-25.9-45.6c0-39.2,0.3-78.4-0.2-117.7c-0.2-16.8,4.9-30.2,17.1-42.2
		c57.2-56.6,114.1-113.5,170.7-170.7c10.9-11,22.8-15.8,38-15.8c104.9,0.2,209.8,0,314.8,0.2c27.2,0,44.8,16.1,44.6,39.4
		c-0.3,23.4-18.3,39.3-45.1,39.4c-40.2,0.1-80.5,0.1-120.7,0c-9.6,0-17.3,1-17.5,13.4c-0.2,12.5,7,15.6,17.6,15.6
		c70.3,0,140.6,0.3,210.9-0.5c6.5-0.1,14.1-5.1,19.1-10c45.3-44.7,90-90.1,135.3-134.8c23.9-23.6,58.8-14.9,67.8,16.1
		c4.1,14.1,0.3,26.6-9.6,36.5c-62.8,63.2-125.5,126.6-189.5,188.6c-7.8,7.6-23.1,10.3-35,10.5
		C1190.5,685.6,1129.9,685.1,1069.3,685.1z"/>
</g>
</svg>
