<?xml version="1.0" encoding="utf-8"?>
<!-- Generator: Adobe Illustrator 19.1.0, SVG Export Plug-In . SVG Version: 6.00 Build 0)  -->
<svg version="1.0" id="Layer_2" xmlns="http://www.w3.org/2000/svg" xmlns:xlink="http://www.w3.org/1999/xlink" x="0px" y="0px"
	 viewBox="290 -288.6 1539.6 1536.6" enable-background="new 290 -288.6 1539.6 1536.6" xml:space="preserve">
<g display="none" opacity="0.6">
	<g display="inline">
		<path fill="#494949" d="M1064.5,1258.1c431.6,1.1,778.7-343.8,778.5-773.6c-0.2-430-347.3-774.4-779.1-773.1
			c-428.7,1.3-771.6,342.2-773.9,769C287.7,910.8,632.5,1257,1064.5,1258.1z M1068.5,1218.9c-403-9.5-731.9-305.6-736.4-727.5
			c-4.3-405.4,300-734.7,732.1-738c416.5-3.1,735.2,320.2,737.9,733.8C1804.7,888.8,1471.3,1215.3,1068.5,1218.9z"/>
	</g>
	<path display="inline" fill="#494949" d="M1481.1,214.1c0.4-45.1-18.8-57.4-60.9-57.2c-236.8,1.2-473.6,0.3-710.4,1
		c-13.2,0-30.5-2.9-41.7,3c-31,2.1-23.7,34.4-23.8,55.9c-0.7,168.5,0.6,336.9-1,505.4c-0.4,45.1,18.8,57.4,60.9,57.2
		c236.8-1.2,473.6-0.3,710.4-1c13.2,0,30.5,2.9,41.7-3c31-2.1,23.7-34.4,23.8-55.9C1480.8,551,1479.5,382.5,1481.1,214.1z
		 M1084.7,723.5c-104.6,0-209.2-3-313.6,1.1c-58.4,2.3-73.2-19.8-72.1-74.4c3.1-143.9,1.4-287.9,0.6-431.9c0-1.9,0-3.9,0.1-5.9
		c2.7-0.1,5.3-0.2,7.8-0.2c110.7,0.8,221.4,0.4,332.1,0.4c104.6,0,209.2,3,313.6-1.1c58.4-2.3,73.2,19.8,72.1,74.4
		c-3.1,143.9-1.4,287.9-0.6,431.9c0,1.9,0,3.9-0.1,5.9c-2.7,0.1-5.3,0.2-7.8,0.2C1306.2,723.1,1195.4,723.5,1084.7,723.5z"/>
</g>
<path opacity="0.13" fill="#737373" d="M1327.1,180.1C1261,70.2,1165.3,17.7,1039.7,17.7c-33.1,0-56.2,43.9-89.7,56.7
	s-56.5,14.2-83.3,35.7c-26.9,21.5-60.6,27.4-82,55.7c-20.7,27.3-26.5,63.1-26.5,97.4c0,22.3,3.2,43.2,9.6,62.6s13.6,35.2,21.7,47.4
	c8.1,12.2,19.4,24.5,34.1,36.9c14.7,12.4,26.5,21.4,35.6,27s21.7,12.9,37.8,22c16.9,9.5,31.1,22.9,42.5,40.3
	c11.4,17.4,17,31.2,17,41.5c0,7,2.5,13.7,7.4,20.1c5,6.4,10.7,9.6,17.4,9.6H1111c6.2,0,12-11.8,16.3-19.5c4.3-7.6-5-19.8-5-27.7
	l30-15.5c0-30.6-10.7-59.7-32.1-87.1h91.8c5.5,0,9.9-4.5,9.9-9.9V288.3l99-75.4c5.4-4.1,8.6-9.3,9.6-15.5S1330.4,185.4,1327.1,180.1
	z"/>
<path fill="#666666" d="M1135.9,203.7c8.4,8.6,12.7,18.7,12.7,30.4c0,2.9-1.1,5.5-3.2,7.6c-2.1,2.1-4.7,3.2-7.6,3.2
	c-2.9,0-5.5-1.1-7.6-3.2c-2.1-2.1-3.2-4.7-3.2-7.6c0-10.3-6.1-18.3-18.2-24c-12.2-5.6-24.1-8.4-35.8-8.4c-2.9,0-5.5-1.1-7.6-3.2
	c-2.1-2.1-3.2-4.7-3.2-7.6c0-2.9,1.1-5.5,3.2-7.6c2.1-2.1,4.7-3.2,7.6-3.2c11.3,0,22.4,1.8,33.6,5.4
	C1117.7,189.1,1127.5,195.1,1135.9,203.7z"/>
<path fill="#666666" d="M1319,164.9c-16.9-31.2-38.8-57.5-65.7-79c-26.9-21.5-57-38.6-90.5-51.4c-33.5-12.8-66.7-19.2-99.8-19.2
	c-15.1,0-29.8,0.8-44.1,2.4C916.2,29.1,835.9,81.9,777.9,176.1c-0.8,1.3-1.6,2.6-2.4,3.9c-3.3,5.4-4.4,11.2-3.4,17.4
	c1,6.2,4.2,11.4,9.6,15.5L850,265c22,14.4,38.4-1.5,49.6-16.3c27.1-32.9,45.6-55.9,61.4-67.1l0.4-0.3l0.4-0.3
	c24.4-16.5,54.5-24.8,89.3-24.8c33.3,0,63.4,9,89.3,26.9c38.1,26.2,46.1,57.3,46.1,78.8c0,29.2-8.5,53.8-25.2,73.2
	c-14.3,16.5-35.8,31.3-65.7,45l-0.3,0.1c-26.9,12.1-52.1,31.3-75,57.3c-20.4,23-30.2,46.1-30.2,70.5c0,0-9,62.6,29.4,62.6h101.6
	c6.6,0,12.4-3.2,17.4-9.6c5-6.4,7.4-13.1,7.4-20.1c0-10.3,5.7-24.2,17-41.5c11.4-17.4,25.5-30.8,42.5-40.3
	c16.1-9.1,28.7-16.4,37.8-22c9.1-5.6,21-14.6,35.6-27c14.7-12.4,26-24.7,34.1-36.9c8.1-12.2,15.3-28,21.7-47.4
	c6.4-19.4,9.6-40.3,9.6-62.6C1344.4,228.8,1336,196.1,1319,164.9z"/>
<path fill="#666666" d="M1219,655.1c0-4.4-0.4-8.6-1.3-12.6c0,0,0,0,0,0h0.2c-2.5-10.4-7.8-18.8-16-25.4c-11.7-9.3-26.2-14-43.3-14
	c0,0,0,0-0.1,0l-201.4-1.8c-16.6,0.2-30.7,4.8-42.2,13.9c-8.1,6.4-13.4,14.8-15.9,25c-0.1,0.1-0.1,0.3-0.1,0.4
	c-1.1,4.5-1.7,9.3-1.7,14.5c0,13.8,4.7,25.7,14,35.8c-9.3,10.1-14,22-14,35.8c0,19.4,8.4,34.5,25.1,45.3c-4.8,8.6-7.3,17.3-7.3,26.3
	c0,17.1,5.9,30.4,17.6,39.7c11.7,9.3,26.2,14,43.3,14c7.4,16.4,18.6,29.4,33.5,39.1c14.9,9.7,31.1,14.5,48.6,14.5
	s33.7-4.8,48.6-14.5c14.9-9.7,26.1-22.7,33.5-39.1c17.1,0,31.6-4.7,43.3-14c11.7-9.3,17.6-22.5,17.6-39.7c0-8.9-2.4-17.7-7.3-26.3
	c16.8-10.8,25.1-25.9,25.1-45.3c0-13.8-4.7-25.7-14-35.8C1214.3,680.8,1219,668.9,1219,655.1z"/>
</svg>
