<?xml version="1.0" encoding="utf-8"?>
<!-- Generator: Adobe Illustrator 19.1.0, SVG Export Plug-In . SVG Version: 6.00 Build 0)  -->
<svg version="1.0" id="Layer_2" xmlns="http://www.w3.org/2000/svg" xmlns:xlink="http://www.w3.org/1999/xlink" x="0px" y="0px"
	 viewBox="290 -288.6 1539.6 1536.6" enable-background="new 290 -288.6 1539.6 1536.6" xml:space="preserve">
<g display="none" opacity="0.6">
	<g display="inline">
		<path fill="#E5FF1D" d="M1064.5,1258.1c431.6,1.1,778.7-343.8,778.5-773.6c-0.2-430-347.3-774.4-779.1-773.1
			c-428.7,1.3-771.6,342.2-773.9,769C287.7,910.8,632.5,1257,1064.5,1258.1z M1068.5,1218.9c-403-9.5-731.9-305.6-736.4-727.5
			c-4.3-405.4,300-734.7,732.1-738c416.5-3.1,735.2,320.2,737.9,733.8C1804.7,888.8,1471.3,1215.3,1068.5,1218.9z"/>
	</g>
	<path display="inline" fill="#E5FF1D" d="M1481.1,214.1c0.4-45.1-18.8-57.4-60.9-57.2c-236.8,1.2-473.6,0.3-710.4,1
		c-13.2,0-30.5-2.9-41.7,3c-31,2.1-23.7,34.4-23.8,55.9c-0.7,168.5,0.6,336.9-1,505.4c-0.4,45.1,18.8,57.4,60.9,57.2
		c236.8-1.2,473.6-0.3,710.4-1c13.2,0,30.5,2.9,41.7-3c31-2.1,23.7-34.4,23.8-55.9C1480.8,551,1479.5,382.5,1481.1,214.1z
		 M1084.7,723.5c-104.6,0-209.2-3-313.6,1.1c-58.4,2.3-73.2-19.8-72.1-74.4c3.1-143.9,1.4-287.9,0.6-431.9c0-1.9,0-3.9,0.1-5.9
		c2.7-0.1,5.3-0.2,7.8-0.2c110.7,0.8,221.4,0.4,332.1,0.4c104.6,0,209.2,3,313.6-1.1c58.4-2.3,73.2,19.8,72.1,74.4
		c-3.1,143.9-1.4,287.9-0.6,431.9c0,1.9,0,3.9-0.1,5.9c-2.7,0.1-5.3,0.2-7.8,0.2C1306.2,723.1,1195.4,723.5,1084.7,723.5z"/>
</g>
<g>
	<path fill="#666666" d="M1189.1-3.9c-33.2-40.2-78.2-59.2-130.2-61.5C950-65.4,867,38.8,895.4,145.3c7.1,26,21.3,49.8,30.7,73.4
		c30.9,64,61.6,130.2,92.4,194.2c7.1,16.5,21.3,28.4,40.3,28.4c19,0,30.9-9.4,40.3-28.4c37.8-82.8,80.5-165.8,116-248.5
		C1241.1,105.1,1229.2,48.3,1189.1-3.9z M1056.4,187.9c-44.9,0-85.3-37.8-85.3-82.8c0-47.4,37.8-85.3,85.3-85.3
		c47.4,0,85.3,37.8,85.3,85.3C1141.6,150.1,1103.8,188,1056.4,187.9z"/>
	<path fill="#666666" d="M1244.6,206.2c0-2.5,2.5-2.5,2.5-5.1C1247.1,203.6,1244.6,206.2,1244.6,206.2z"/>
	<path fill="#666666" d="M1532.2,472.2c0,259.9-212.6,472.5-472.5,472.5S587.1,732.2,587.1,472.2c0-193.7,118.1-359.1,285.8-432.4
		c-4.8,19-7.1,37.8-7.1,56.7l0,0l0,0c0,14.2,2.3,30.7,7.1,44.9c4.8,21.3,14.2,40.2,23.6,59.1c4.8,7.1,7.1,14.2,9.4,19
		c14.2,30.7,30.7,63.8,44.9,94.5c16.5,33.2,30.7,66.2,47.3,99.2c4.8,14.2,14.2,23.6,23.6,30.7c11.9,7.1,26.1,11.9,40.2,11.9l0,0
		c28.4,0,52-14.2,63.8-42.5c11.9-26.1,26.1-52,37.8-78c21.3-47.3,44.9-94.5,66.2-141.8c2.3,0,7.1,0,9.4,2.3c7.1,2.3,7.1,4.8,0,7.1
		c0-2.3,2.3-2.3,4.8-2.3c2.3,0,2.3-2.3,4.8-2.3c0,0,0-2.4,2.3-2.4c0-2.3,2.3-2.4,2.3-2.4s0,0,2.3,0c2.3-2.1,2.3,0,4.8,0
		c0,0,0,0,2.3-2.3c2.3-2.3,2.3-4.8,4.8-7.1c2.3-2.3,2.3-2.3,4.8-2.3c2.3,0,4.8,2.3,4.8,2.3c0,2.3,2.3,2.3,2.3,4.8
		c0,2.3,2.3,2.3,2.3,4.8c2.3,2.3,2.3,4.8,2.3,4.8c2.3,2.3,4.8,4.8,7.1,7.1c4.8,2.3,7.1,4.8,7.1,7.1c0,0,0,4.8,2.3,9.4
		c0,7.1,2.3,9.2,4.8,11.5c2.3,2.3,4.8,2.3,9.4,4.5c2.3,0,4.8,0,7.1,0s4.8,0,7.1,0s2.3,2.6,2.3,5c2.3-2.3,4.8-4.5,4.8-4.5
		c0,4.8,2.3,9.5,4.8,14.3c2.3,4.8,7.1,4.8,11.9,4.8l-2.3,14.2c0,2.3-4.8,4.8-9.4,4.8c-4.8,0-7.1,2.3-9.4,2.3c0,0-4.8,2.3-9.4,7.1
		c-4.8,4.8-7.1,9.4-7.1,9.4c-9.4-7.1-21.3-11.9-35.4-7.1c-16.5,2.3-28.4,4.8-35.4,7.1c-7.1,2.3-11.9,7.1-14.2,9.4
		c0,0-2.3,2.3-2.3,4.8c0,2.3-2.3,4.8-2.3,7.1l-2.3,2.3l0,0l0,0c2.3-2.3,7.1-2.3,9.4-7.1c4.8-4.8,7.1-7.1,7.1-7.1
		c11.9-7.1,21.3-9.7,28.4-7.3c9.4,4.8,11.9,7.3,4.8,11.5c0,0-2.3,0-7.1,0c-2.3,0-4.8,0-7.1,0c2.3,3.2,7.1,2.6,9.4,5s4.8,4.9,2.3,7.2
		c7.1,4.8,9.4,9.5,4.8,14.3c-7.1,4.8-14.2,7.1-21.3,7.1c2.3,0,2.3,0,0,2.3l-11.9,7.1c-2.3,0-4.8,0-9.4,2.3c-4.8,2.3-6.9,4.8-9.3,7.1
		c-2.3,0-2.2,2.3-2.2,7.1c0,2.3,0,4.8,0,7.1c0,2.3-2.6,2.3-4.9,2.3c0,2.3-4.8,4.8-11.9,7.1c-7.1,2.3-11.9,4.8-14.2,7.1
		c2.3,4.8,2.3,7.1,0,11.9c-4.8,2.3-9.4,2.3-14.2-2.3c-2.3,2.3-4.8,2.3-4.8,7.1c0,2.3-2.3,4.8-4.8,7.1c2.3,7.1,2.3,9.4-2.3,11.9
		c0,0,0,2.3,2.3,2.3s4.8,0,4.8,2.3s2.3,2.3,2.3,2.3c-2.3,4.8-4.8,7.1-7.1,7.1c2.3,7.1,0,14.2-9.4,23.6c-2.3,0-7.1,2.3-9.4,4.8
		s-7.1,4.8-9.4,4.8s-4.8,2.3-4.8,2.3c-4.8,2.3-7.1,7.1-9.4,11.9c-2.3,4.8-2.6,7.1-0.2,11.9c0,2.3,5.3,4.8,11.6,7.1v4.8v11.9v4.8
		c0,4.8,0,7.1,0,9.4s0,4.8,0,9.4c0,4.8,0.2,7.1-2.2,7.1c-2.3,0-4.7,0-7-2.3c-2.3-2.3-7.1-11.9-11.7-30.7c0-4.8-2.3-9.5-7.1-16.6
		c-2.3,2.3-2.3,4.7-4.7,4.7h-2.3c-2.3,0-2.3,0.1-4.8-2.2c-2.3-2.3-2.3-4.7-4.8-4.7s-7.1-2.3-11.9-2.3c-4.8,0-7.1,0-9.4-2.3
		c-9.4,7.1-16.5,4.8-19-7.1c-2.3,2.3,0,4.8,0,9.4c2.3,4.8,2.3,7.1,2.3,7.1c-2.3,7.1-7.1,7.1-14.2,2.3c-2.3-2.3-9.4-2.3-19,0
		c-9.4,2.3-16.5,2.3-19,2.3l0,0l0,0l2.3,2.3c0,2.3,2.3,2.1,2.3,2.1c0,2.3-2.3,4.5-2.3,4.5h-2.3H998h-2.3c-2.3,3.2-4.8,5-7.1,7.3
		c-4.8,4.8-4.8,7.2-7.1,7.2c4.8,7.1,4.8,11.9,4.8,16.6s-2.3,9.5-2.3,16.6c-2.3,9.4-2.3,14.2-2.3,19c0,7.1,2.3,16.5,7.1,26.1
		c2.3,9.4,9.4,14.2,14.2,19c4.8,0,9.4,2.3,16.5,2.3c7.1,0,14.2,0,16.5-2.3c4.8-2.3,4.8-2.3,7.1-4.8c0,0,2.3-4.8,2.3-7.1
		c2.3-2.3,2.3-4.8,2.3-7.1c2.3-9.4,7.1-14.2,16.5-14.2c4.8,0,9.4,0,11.9,2.3c2.3,2.3,2.3,4.8,2.3,7.1c0,4.8,0,7.1-2.3,9.4
		c0,2.3-2.3,7.1-4.8,9.4c-2.3,2.3-4.8,4.8-4.8,7.1s-2.3,7.1-2.3,14.1c-2.3,7.1-2.3,9.7-2.3,11.7c0,0,5.2,0,9.4,0c0-2.1,0-2.2,0-4.7
		c0-2.3,0-4.8,0-4.8c2.1,4.8,7.1,7.1,11.9,7.1c7.1,0,9.4,0,11.9-4.8c0,0,2.3,4.8,7.1,9.4c4.8,7.1,7.1,9.4,7.1,14.2
		c0,2.3,0,4.8,2.3,9.4c2.3,4.8,2.3,7.1,2.3,9.4s-2.6,2.3-7.2,2.3c0,0-2.6,0-2.6,2.3c0,0,0,2.3,0,4.8c0,0,2.6,2.3,2.6,4.8
		c0,0,2.4,2.3,2.4,4.8c2.3,2.3,2.4,4.8,2.4,4.8c7.1,14.2,19,19,33.2,11.9c0,11.9-2.3,19-9.4,21.3c-2.3,0-7.1-2.3-11.9-7.1
		c-4.8-4.8-4.8-9.4-4.8-11.9l0,0l0,0c0,2.3-2.3,2.3-4.8,4.8c-2.3-2.3-7.1-7.1-11.9-9.4c-4.8-2.3-9.4-7.1-11.9-9.4
		c-2.3,0-2.3-2.3-4.8-4.8c-2.3-2.3-4.9-4.8-7.2-9.4c-2.3-2.3-4.9-7.1-4.9-9.4s0-4.8,0-4.8c-9.5,4.8-21.2,2.3-37.7-7.1
		c-2.3-2.3-7-7.1-14.1-14.2c-4.8-7.1-11.7-9.4-18.8-9.4c-2.3,0-4.7,2.3-9.4,2.3c-2.3,2.3-4.8,2.3-9.4,2.3s-7.1,0-11.9-2.3
		c-2.3,0-7.1-2.3-14.2-7.1c-4.8-4.8-9.4-7.1-11.9-7.1l-9.4-4.8l-11.9-4.8c-4.8-2.3-7.1-4.8-9.4-7.1s-4.8-7.1-4.8-9.4s0-9.4-2.3-16.5
		c0-7.1-2.3-11.9-4.8-16.5c-2.4-4.7-7.1-9.4-11.9-14.2c-4.8-4.8-9.4-7.1-14.2-7.1c4.8,0,4.8-2.3,0-9.4c-4.8-7.1-7.1-11.9-9.4-14.2
		c0-2.3-2.3-4.8-7.1-9.4c-4.8-4.7-9.4-7.1-11.9-11.9c-2.3-2.3-4.8-7.1-7.1-11.9c-2.3-4.8-4.8-9.4-2.3-11.9c0,0,0-2.3-2.3-2.3
		c0,0-2.3-2.1-4.8-2.1c0,0-2.3-2.1-4.8-2.1c-2.4,0-4.8,0-4.8,0c0,2.1,2.3,4.5,2.3,9.2c2.3,4.8,2.3,7,4.8,9.3c2.3,0,4.8,7,11.9,18.8
		c11.9,19,16.5,33,16.5,42.5c-2.3,0-4.8,0-4.8-2.3c-2.3-2.3-2.3-4.8-2.3-7.1c-2.3-2.3-2.3-4.8-2.3-7.1s-4.8-7.1-9.4-9.4
		c-4.8-2.3-7.1-7.3-9.4-9.4c0,0,0,0,2.3,0s2.3,0,2.3,0c0-4.3-2.3-9.4-7.1-16.5c-4.8-7.1-7.1-11.9-7.1-14.2
		c-4.8-2.3-7.1-9.4-9.4-16.5c-2.3-7.1-4.8-11.9-7.1-14.2s-4.8-4.8-7.1-7.1s-4.8-4.8-9.4-7.1c-2.3-2.3-4.8-4.8-7.1-4.8
		c0-2.3-2.3-2.3-4.8-7.1c-16.5-16.5-19-26.1-14.2-28.4c-4.8,0-9.4-4.7-14.2-14.1c-4.8-9.4-7.1-19.4-4.8-23.6h-2.6
		c0-2.1,0-7.2,0-16.6c0-9.4,2.6-16.5,2.6-23.6c0-7,2.4-11.9,4.9-11.9c-2.3,0-4.7-4.8-7-9.4c-2.3-4.8-2.3-9.4,0-11.9
		c2.3-2.3,2.3,0,7.1,2.3c4.8,4.8,7.1,7.1,7.1,7.1c7.1-2.3,9.4-7.1,7.1-11.9c0-2.3-4.8-7.1-14.2-14.2c-21.3-14.2-30.7-19-30.7-19
		c2.3-4.8,2.3-7.1-2.3-11.9c-4.8,2.3-7.1,4.8-7.1,2.3c-2.3,0-2.3-2.3-2.3-7.1c0-2.3-2.3-4.8-2.3-4.8
		c-37.8,66.2-61.4,141.8-61.4,222.1C641.4,713,832.7,902,1066.6,902c23.6,0,45-2.3,66.2-4.8c0,0,0-2.3,0-4.8c0-2.3,2.4-7.1,4.8-14.2
		c2.3-7.1,4.8-11.9,4.8-14.2c-7.1,0-9.4-7.1-7.1-16.5c0-4.8,7.1-14.2,19-26.1c7.1-9.4,9.4-19,7.1-33.2c0-7.1-2.3-14.2-2.3-26.1
		s-2.3-19-2.3-23.6c2.3,0,2.3,2.3,7.1,2.3c4.8,2.3,7.1,2.3,7.1,4.8c0,0,0-2.3,2.3-7.1c2.3-2.3,2.3-4.8,4.8-7.1c0,0,2.3-2.3,4.8-4.8
		c2.3-2.3,4.8-4.8,4.8-4.8c2.3,0,4.8-2.3,7.1-4.8c2.3-2.3,7.1-4.8,7.1-4.8s4.8-2.3,7.1-2.3c2.3-2.3,4.8,0,7.1,2.3
		c2.3,2.3,0,7.1-2.3,11.9c-2.3,4.8-2.3,9.4,0,11.9c2.3-2.3,2.3-4.8,2.3-9.4c0-4.8,2.3-7.1,4.8-9.4c2.3-2.3,4.8-4.8,7.1-4.8
		c2.3-2.3,4.8,0,7.1,0s4.8,2.3,7.1,4.8c2.3,2.3,4.9,4.8,7.2,4.8c7.1,2.3,14.2,7.1,23.7,14.2V734c0,0-0.1-2.3,2.2-2.3
		c2.3,0,4.7-2.1,4.7-2.1c2.3-2.3,2.3-2.1,4.7-2.1h2.3c2.3,0,7.1,0,7.1,0s2.3,2.1,4.8,2.1c2.3,0,4.8,2.2,4.8,2.2
		c0,2.3,2.3,2.3,4.8,4.7c2.3,2.3,4.8,4.7,4.8,4.7s2.3,2.3,7.1,4.8c4.8,2.3,7.1,2.3,9.4,4.8c2.3,2.3,2.3,4.8,4.8,7.1
		c2.3,2.3,2.3,7.1,2.3,9.4c2.3,0,9.4,2.3,16.5,4.8c2.3,0,4.8,2.3,9.4,2.3c4.8,0,7.1,0,9.4,2.3c-2.3,2.3-4.8,4.8-7.1,7.1
		c78-78,127.6-186.7,127.6-304.8c0-165.4-92.1-307.1-229.2-378c0-11.9,0-23.6-2.3-33.2c-2.3-9.4-4.8-19-7.1-26.1
		C1421.1,115.5,1539.3,283.3,1532.2,472.2z"/>
</g>
</svg>
