<?xml version="1.0" encoding="utf-8"?>
<!-- Generator: Adobe Illustrator 19.1.0, SVG Export Plug-In . SVG Version: 6.00 Build 0)  -->
<svg version="1.0" id="Layer_2" xmlns="http://www.w3.org/2000/svg" xmlns:xlink="http://www.w3.org/1999/xlink" x="0px" y="0px"
	 viewBox="290 -288.6 1539.6 1536.6" enable-background="new 290 -288.6 1539.6 1536.6" xml:space="preserve">
<g display="none" opacity="0.6">
	<g display="inline">
		<path fill="#E5FF1D" d="M1064.5,1258.1c431.6,1.1,778.7-343.8,778.5-773.6c-0.2-430-347.3-774.4-779.1-773.1
			c-428.7,1.3-771.6,342.2-773.9,769C287.7,910.8,632.5,1257,1064.5,1258.1z M1068.5,1218.9c-403-9.5-731.9-305.6-736.4-727.5
			c-4.3-405.4,300-734.7,732.1-738c416.5-3.1,735.2,320.2,737.9,733.8C1804.7,888.8,1471.3,1215.3,1068.5,1218.9z"/>
	</g>
	<path display="inline" fill="#E5FF1D" d="M1481.1,214.1c0.4-45.1-18.8-57.4-60.9-57.2c-236.8,1.2-473.6,0.3-710.4,1
		c-13.2,0-30.5-2.9-41.7,3c-31,2.1-23.7,34.4-23.8,55.9c-0.7,168.5,0.6,336.9-1,505.4c-0.4,45.1,18.8,57.4,60.9,57.2
		c236.8-1.2,473.6-0.3,710.4-1c13.2,0,30.5,2.9,41.7-3c31-2.1,23.7-34.4,23.8-55.9C1480.8,551,1479.5,382.5,1481.1,214.1z
		 M1084.7,723.5c-104.6,0-209.2-3-313.6,1.1c-58.4,2.3-73.2-19.8-72.1-74.4c3.1-143.9,1.4-287.9,0.6-431.9c0-1.9,0-3.9,0.1-5.9
		c2.7-0.1,5.3-0.2,7.8-0.2c110.7,0.8,221.4,0.4,332.1,0.4c104.6,0,209.2,3,313.6-1.1c58.4-2.3,73.2,19.8,72.1,74.4
		c-3.1,143.9-1.4,287.9-0.6,431.9c0,1.9,0,3.9-0.1,5.9c-2.7,0.1-5.3,0.2-7.8,0.2C1306.2,723.1,1195.4,723.5,1084.7,723.5z"/>
</g>
<path fill="#666666" d="M1112.2,610.7v52.4h-262v-52.4H1112.2z M1374.2,610.7v52.4h-209.6v-52.4H1374.2z M1374.2,505.9v52.4h-209.6
	v-52.4H1374.2z M1374.2,401.1v52.4h-209.6v-52.4H1374.2z M1374.2,296.3v52.4h-209.6v-52.4H1374.2z M745.4,689.3v-393H693v393
	c0,7.1,2.6,13.2,7.8,18.4s11.3,7.8,18.4,7.8c7.1,0,13.2-2.6,18.4-7.8C742.8,702.5,745.4,696.4,745.4,689.3z M1426.6,689.3V243.9
	H797.8v445.4c0,9-1.5,17.7-4.5,26.2h607.1c7.1,0,13.2-2.6,18.4-7.8S1426.6,696.4,1426.6,689.3z M1479,191.5v497.8
	c0,21.8-7.7,40.4-22.9,55.7c-15.3,15.3-33.9,22.9-55.7,22.9H719.2c-21.8,0-40.4-7.7-55.7-22.9s-22.9-33.9-22.9-55.7V243.9h104.8
	v-52.4H1479z M852,505.8h260.6v52.5H852V505.8z M850.2,351.9v-55.6h15.7v55.6H850.2z M913.8,351.9l-13.3-18.3
	c-0.7-0.9-1.4-1.9-2.2-3.2c-0.9-1.2-1.7-2.5-2.5-3.7s-1.6-2.4-2.3-3.5s-1.3-2-1.6-2.6c0.1,0.7,0.2,1.5,0.2,2.7
	c0,1.1,0.1,2.4,0.2,3.7c0,1.4,0.1,2.7,0.1,4.2s0,2.7,0,3.8v17h-14.8v-55.6h13.6l12.2,16.5c0.7,0.9,1.4,1.9,2.3,3.2
	c0.9,1.3,1.7,2.5,2.6,3.8c0.9,1.3,1.6,2.5,2.3,3.6s1.2,2,1.5,2.5c-0.1-0.7-0.2-1.5-0.2-2.7c0-1.1-0.1-2.4-0.2-3.7
	c0-1.4-0.1-2.7-0.1-4.2c0-1.4,0-2.7,0-3.8v-15.2h14.8V352L913.8,351.9L913.8,351.9z M987.7,309.7v42.2h-15.4v-42.2h-15.6v-13.4h46.5
	v13.4H987.7z M1045.2,351.9V330h-17.3v21.9h-15.7v-55.6h15.7v20.3h17.3v-20.3h15.7v55.6H1045.2z M1072.2,351.9v-55.6h42.6v12.9
	h-27.3v7.5h16.5v12.7h-16.5v9.5h27.9v12.9L1072.2,351.9L1072.2,351.9z M892.5,462.1l-15.3-21.2c-0.7-1-1.6-2.2-2.6-3.6
	s-1.9-2.9-2.9-4.3c-0.9-1.4-1.8-2.8-2.7-4.1c-0.8-1.3-1.5-2.3-1.9-3c0.1,0.7,0.2,1.8,0.3,3.1c0,1.3,0.1,2.7,0.2,4.3
	c0,1.6,0.1,3.2,0.1,4.8c0,1.7,0,3.1,0,4.4v19.6h-17v-64.3h15.7l14.1,19c0.7,1,1.6,2.2,2.6,3.7s2,2.9,3,4.4s1.9,2.9,2.7,4.1
	c0.8,1.3,1.4,2.3,1.8,2.9c-0.1-0.7-0.2-1.8-0.3-3.1c-0.1-1.3-0.1-2.7-0.2-4.3c-0.1-1.6-0.1-3.2-0.1-4.8c0-1.6,0-3.1,0-4.4v-17.5
	h17.1v64.3L892.5,462.1L892.5,462.1z M920.5,462.1v-64.3h49.2v14.9h-31.6v8.6h19V436h-19v11h32.2v15L920.5,462.1L920.5,462.1z
	 M1040.8,462.1h-16.4l-2.9-14c-0.5-2.5-1.1-5-1.6-7.7s-0.9-5.2-1.4-7.6s-0.7-4.6-1-6.6s-0.5-3.6-0.5-4.7c-0.1,1.1-0.3,2.7-0.5,4.7
	s-0.6,4.2-1,6.6s-0.9,5-1.4,7.6c-0.5,2.7-1,5.2-1.6,7.7l-2.9,14h-16.3L978,397.8h18.3l1.8,10.7c0.4,2.3,0.7,4.6,1.1,7.1
	s0.8,5,1.1,7.4c0.3,2.5,0.7,4.8,0.9,7.1c0.3,2.3,0.5,4.4,0.7,6.3c0.2-1.9,0.5-4,0.8-6.2s0.7-4.6,1.1-7c0.4-2.4,0.9-4.9,1.4-7.3
	c0.5-2.5,1-4.9,1.5-7.2l2.2-10.8h16.3l2.2,10.8c0.5,2.3,1,4.7,1.5,7.2s0.9,4.9,1.4,7.3c0.4,2.4,0.8,4.7,1.1,7
	c0.3,2.3,0.6,4.3,0.8,6.2c0.2-1.9,0.4-4,0.7-6.3c0.3-2.3,0.6-4.7,0.9-7.1c0.3-2.5,0.7-4.9,1.1-7.4s0.8-4.8,1.1-7.1l1.8-10.7h18.2
	L1040.8,462.1z M1114.9,442.3c0,3.7-0.7,6.8-2,9.5c-1.3,2.6-3.2,4.8-5.5,6.4c-2.4,1.6-5.2,2.9-8.4,3.7c-3.2,0.8-6.8,1.2-10.6,1.2
	c-5.2,0-10.2-0.7-14.9-2.3c-4.7-1.5-8.8-3.4-12.2-5.6l8.6-14c1.1,0.8,2.5,1.6,4.1,2.3c1.6,0.8,3.2,1.5,4.9,2
	c1.7,0.6,3.4,1.1,5.1,1.5s3.3,0.5,4.8,0.5c3.2,0,5.4-0.3,6.5-0.9s1.8-1.7,1.8-3.2c0-0.6-0.2-1.1-0.5-1.6s-0.9-1-1.8-1.4
	c-0.8-0.5-1.9-0.9-3.4-1.4c-1.4-0.5-3.2-0.9-5.3-1.4c-3.8-0.9-7.2-1.9-10.1-2.9s-5.3-2.3-7.2-3.9c-1.9-1.6-3.3-3.4-4.3-5.6
	c-0.9-2.2-1.4-4.9-1.4-8.2c0-3,0.6-5.7,1.8-8.3c1.2-2.5,2.9-4.7,5.1-6.4c2.2-1.8,4.9-3.2,8-4.1c3.1-1,6.6-1.5,10.5-1.5
	c5.5,0,10.3,0.7,14.4,1.9c4.1,1.3,7.8,3.1,11.3,5.5l-8.6,14c-2.9-2-5.8-3.4-8.6-4.5c-2.9-1-6-1.6-9.3-1.6c-2.7,0-4.5,0.4-5.3,1.1
	c-0.9,0.7-1.3,1.7-1.3,2.9c0,0.6,0.2,1.1,0.5,1.6s0.9,0.9,1.7,1.3c0.8,0.4,1.9,0.8,3.2,1.2c1.4,0.4,3.1,0.9,5.2,1.4
	c4.1,1,7.5,2,10.5,3.2c2.9,1.1,5.4,2.5,7.2,4.1c1.9,1.6,3.3,3.5,4.2,5.7C1114.4,436.7,1114.9,439.3,1114.9,442.3z"/>
</svg>
