<?xml version="1.0" encoding="utf-8"?>
<!-- Generator: Adobe Illustrator 19.1.0, SVG Export Plug-In . SVG Version: 6.00 Build 0)  -->
<svg version="1.0" id="Layer_2" xmlns="http://www.w3.org/2000/svg" xmlns:xlink="http://www.w3.org/1999/xlink" x="0px" y="0px"
	 viewBox="290 -288.6 1539.6 1536.6" enable-background="new 290 -288.6 1539.6 1536.6" xml:space="preserve">
<g display="none" opacity="0.6">
	<g display="inline">
		<path fill="#E5FF1D" d="M1064.5,1258.1c431.6,1.1,778.7-343.8,778.5-773.6c-0.2-430-347.3-774.4-779.1-773.1
			c-428.7,1.3-771.6,342.2-773.9,769C287.7,910.8,632.5,1257,1064.5,1258.1z M1068.5,1218.9c-403-9.5-731.9-305.6-736.4-727.5
			c-4.3-405.4,300-734.7,732.1-738c416.5-3.1,735.2,320.2,737.9,733.8C1804.7,888.8,1471.3,1215.3,1068.5,1218.9z"/>
	</g>
	<path display="inline" fill="#E5FF1D" d="M1481.1,214.1c0.4-45.1-18.8-57.4-60.9-57.2c-236.8,1.2-473.6,0.3-710.4,1
		c-13.2,0-30.5-2.9-41.7,3c-31,2.1-23.7,34.4-23.8,55.9c-0.7,168.5,0.6,336.9-1,505.4c-0.4,45.1,18.8,57.4,60.9,57.2
		c236.8-1.2,473.6-0.3,710.4-1c13.2,0,30.5,2.9,41.7-3c31-2.1,23.7-34.4,23.8-55.9C1480.8,551,1479.5,382.5,1481.1,214.1z
		 M1084.7,723.5c-104.6,0-209.2-3-313.6,1.1c-58.4,2.3-73.2-19.8-72.1-74.4c3.1-143.9,1.4-287.9,0.6-431.9c0-1.9,0-3.9,0.1-5.9
		c2.7-0.1,5.3-0.2,7.8-0.2c110.7,0.8,221.4,0.4,332.1,0.4c104.6,0,209.2,3,313.6-1.1c58.4-2.3,73.2,19.8,72.1,74.4
		c-3.1,143.9-1.4,287.9-0.6,431.9c0,1.9,0,3.9-0.1,5.9c-2.7,0.1-5.3,0.2-7.8,0.2C1306.2,723.1,1195.4,723.5,1084.7,723.5z"/>
</g>
<g>
	<g>
		<g id="Layer_1_1_">
			<g>
				<path fill="#666666" d="M1108.2,194.2c0,0,34.6,79.7-113.7,184.1c-6.3-12-28-54.8-34.8-67.7c-23.4,60.6-46,119.6-69.1,180.2
					c50.2,1.7,99.1,3.4,149.3,5.1c0.5,0,1.2,0,1.4,0c12,0.3,23.9,0.9,36.3,1.2c-7.4-12.2-31.2-48-38-59.1
					c107.1-48.8,170.2-82.8,192.7-245.8C1137.4,193.4,1204.4,193.1,1108.2,194.2z"/>
				<g id="Money_1_">
					<g>
						<g>
							<path fill="#666666" d="M1408.7,826.2c-16-15.6-39.4-27.5-58.9-38.2c-20.9-11.4-42.3-21.4-64-30.2c-48-20-98.4-32.6-150-37.1
								c-3.2,0.9-6.3,0.9-9.5-0.3c-0.5-0.3-1.2-0.5-1.7-0.5c-0.3,0-0.3,0-0.5,0c-0.3-0.3-0.5-0.5-0.9-0.9c-4.9-2.6-8-7.1-9.7-12.2
								c-0.5-1.4-0.9-2.9-0.9-4.6c-2.6-4.6-4.3-10.3-4.9-16.8c-1.7-21.4,7.4-43.6,19.5-61.4c8-12,21.4-21.9,36.3-16.3
								c6,2.2,9.5,6.8,14.9,10.3c0.9,0.5,1.7,1.2,2.9,1.4c0.3,0,0.5,0.3,0.9,0.3c7.8,3.7,17.5,5.4,25.4,7.8
								c3.4,0.9,6.8,1.7,10.3,2.9c7.8,1.2,15.4,1.7,23.4,1.7c26.3,0,52.3-6.3,77.4-19.2c25.8-12.9,46.8-28.5,63.1-47.4
								c16.3-18.8,27.1-41.4,32.6-67.7c2.2-11.4,3.4-22.9,3.4-34c0-4.6-0.5-10-1.4-16.8c-0.9-6.8-2.2-13.9-4.3-21.9
								c-2-7.8-4.6-14.3-8.3-19.7c-3.7-5.4-8-8-12.6-8l-7.8,0.9l-6.6,2.9l-4.9,3.4l-5.1,4.9l-5.1,5.1c-4.6,4.3-11.2,7.8-20,10
								c-8.8,2.2-18.3,3.7-28.8,4.3c-0.3,0-0.5,0-0.5,0c-14.6,6-30.5,10-47.1,11.4c-4.9,0.5-9.7,0.5-14.6,0.5l0,0
								c-10.5,0-21.2-1.2-31.4-3.2c-10.9,3.9-21.4,8.8-31.2,15.1c-11.2,7.1-21.2,15.1-30,24.6c-8.8,9.5-16,20.2-21.2,32.6
								c-5.1,12.2-7.8,25.4-7.8,38.8c0,6.3,0.5,12.2,1.7,18.3c0.3,1.2,1.2,3.7,2.9,7.8c1.7,4.1,2.6,6.3,2.6,6.8
								c0,1.2-0.3,2.2-1.2,3.4c0,3.2-0.3,6-1.7,8.8c-1.2,4.9-4.9,9.2-12,12.6c-2.6,1.2-4.9,1.4-7.1,1.4c-1.4,0-2.6,0-3.9,0
								c-0.9,0.9-1.4,1.4-2.2,2.2c-0.3-1.2-0.3-2-0.5-3.2c-2.9-0.9-5.4-2.9-7.1-5.7c-4.6-7.8-7.1-16.3-13.9-22.2
								c-6.8-6-15.1-10.3-21.7-16.8c-1.4-1.4-2.2-2.9-3.2-4.3c-1.4-1.2-2.9-2.2-3.9-3.7c-0.5-0.5-0.9-1.2-1.2-1.4
								c-0.5-0.5-1.4-0.9-2-1.4c-13.1-8.8-33.6-23.4-29.2-41.9c0-0.3-0.3-0.9-0.3-1.2c0,0,0-0.3,0-0.5c-41.9-1.4-83.1-2.9-125.1-4.3
								l-25.8-0.9l5.7-14.9c5.7-14.6,11.2-29.2,16.8-43.4c-6.3-3.4-12.2-6.6-18.3-8.8c-18.3-7.1-40-10.9-65.3-10.9
								c-3.7,0-6.8-1.4-9.5-3.9c-2.6-2.6-3.9-5.7-3.9-9.5c0-3.7,1.4-6.8,3.9-9.5c2.6-2.6,5.7-3.9,9.5-3.9c23.9,0,46,3.4,66.2,10.3
								c9.5,3.2,18.5,6.8,26.8,11.2c1.4-3.4,2.9-7.1,3.9-10.5c8.5-21.9,16.8-44.3,25.4-66.5c-4.9-2-9.5-3.7-14.6-5.4
								c-7.8-2.6-17.7-4.3-30.2-5.4s-24.8-1.7-37.5-2c-12.6-0.3-24.8-0.5-37.1-1.2c-12.2-0.7-23.7-2.2-34-5.1
								c-10.3-2.6-18.3-6.6-23.7-11.7l-6.3-6.3l-6.3-5.7l-5.7-4.3l-7.8-3.4l-9.2-0.9c-5.4,0-10.3,3.2-14.6,9.7
								c-4.3,6.3-7.8,14.3-10,23.4c-2.2,9.2-3.9,17.7-5.1,25.8c-1.2,8-1.7,14.9-1.7,20c0,13.1,1.4,26.6,4.3,40.2
								c6.3,31.2,19.2,57.7,38.5,79.7c19.2,21.9,44,40.5,74.5,55.7c29.7,15.1,60.2,22.6,91.1,22.6c20.5,0,40.2-3.2,59.7-9.7
								c2-0.5,8.3-3.7,18.3-8.8c7.8-3.9,13.4-6.3,17.1-7.1c3.9-3.7,9.7-4.9,15.6-0.9c33.4,23.7,62.3,57.4,64.3,100.3
								c0.5,12.2,1.2,28.8-1.7,43.6c0,9.7-3.7,20-9.5,27.7c-14.3,18.5-41.7,15.1-62.6,17.5c-19.5,2.2-38,7.4-56.8,12.9
								c-20.5,7.1-40.5,16-59.4,26.3c-31.4,8-59.4,22.6-86.7,40c-4.6,2.9-9.2,6-13.4,9.2c-11.4,4.9-22.6,10-33.4,15.4
								c-16.8,8.5-31.7,21.2-38.5,38.8c-5.7,6.6-9.2,15.1-9.2,24.3c0,14.3,7.8,23.9,18.5,32.2c1.7,1.4,3.7,2.6,5.7,3.7
								c2.6,2,5.1,3.9,8.3,5.4c12.6,6.6,28.8,6.3,40.2-1.7c5.4-0.9,11.2-2,16.3-3.2c12.6,1.2,25.1,2.6,37.7,3.9c2,0.3,3.4,1.4,5.4,2
								c-28.5,3.2-56,8.3-81.6,21.7c12.6,3.9,25.1,5.4,38,6.6c12.2,0.9,24.6,2.2,36.8,2c23.9-0.3,48-2,71.9-2
								c13.9,0,28,1.4,41.9,2.2c8,0.5,15.6,1.7,23.4,2.6c-4.3,2-8.5,2-12.9,2.9c-13.9,2-27.7,4.3-41.4,6.8
								c-5.4,0.9-10.9,3.2-15.6,5.7c-1.2,0.5-2,4.3-1.7,6c0,1.2,2.2,3.2,3.9,3.2c12,2,23.7,4.3,35.8,4.9c20.9,0.5,41.7-0.3,62.6,0.3
								c20,0.5,40,1.7,59.9,2.2c18.5,0.5,37.1,2.2,55.7,2c25.4-0.5,50.9-3.2,76.2-4.3c10.5-0.5,21.2,0.3,31.7-0.5
								c13.7-0.9,27.5-2.2,41.1-4.3c9.5-1.4,19.7-2.9,23.9-15.6c-26.3-3.4-52.3-6.8-77.9-10.3c-0.3-0.9-0.5-2-1.2-4.3
								c7.8-1.7,15.1-4.3,23.1-5.1c23.4-2,46.8-2.2,69.9-5.1c16.8-2,33.1-10,49.7-10.3c22.6-0.3,34.8-14.6,47.7-28.3
								c5.1-2.9,9.7-6.3,13.9-10.3C1435.5,884.4,1431.4,848.7,1408.7,826.2z M1172.2,558.6c14.3-16,28.3-28.8,41.7-38.8
								c13.4-10,28.5-17.7,46-23.7c17.1-5.7,36-8.8,56.3-8.8c3.2,0,5.7,1.2,8,3.4c2.2,2.2,3.4,4.9,3.4,8s-1.2,5.7-3.4,8
								c-2.2,2.2-4.9,3.4-8,3.4c-21.4,0-40,3.2-55.3,9.2c-15.4,6-31.4,16.6-47.4,31.2c-2.2,2.2-6.3,6-11.7,11.7
								c-5.4,5.4-10,9.7-13.1,12.6c-2.6,2.2-5.1,3.4-8,3.4c-3.2,0-5.7-1.2-8-3.4c-2.2-2.2-3.4-4.9-3.4-8
								C1168.8,563.7,1169.9,561.2,1172.2,558.6z"/>
						</g>
					</g>
					<path display="none" fill="#666666" d="M1399.7,266.5c-4.9-55.3-39.2-101.1-86-123c-3.2,11.4-7.4,22.6-12.6,32.9
						c8.8,3.9,16.8,10,22.9,18.8c5.7,8,8.8,18.5,9.2,29.2c-15.1,1.4-30.5,2.6-46.3,3.9c-2-6.6-4.3-13.1-10.5-16.8
						c-3.9,4.3-8.3,8.3-12.6,12.2c0.5,5.7,1.2,11.7,1.2,17.5c0.3,4.6,1.4,6.3,6,7.4c12.6,3.2,25.1,6,37.1,11.4
						c27.1,11.7,38,31.4,35.8,60.6c-2,25.8-18.3,44.3-44.8,51.7c-6.8,2-13.9,3.4-21.7,5.1c0.9,8.8,1.4,17.5,2.2,26.6
						c-7.8,0.9-15.1,1.4-22.9,2c-0.9-8.8-1.4-17.5-2.2-26.8c-24.8,0.3-47.1-5.1-63.1-25.1c-1.4-2-2.6-3.9-3.9-6.3l-19.2,56.5
						c27.5,18,60.6,27.5,95.4,24.3C1346.1,421.2,1407.2,348.7,1399.7,266.5z"/>
					<path display="none" fill="#666666" d="M1186.8,190.8l36.3,0.9c20.2-24.8,47.1-44.6,78.2-56l3.4-5.1
						c14.6-75.7-31.2-151-106.5-171.9c-79.7-22.2-161.9,23.9-184.4,103.7c-12.9,46.5-2.2,94.2,24.6,129.9l49.9-0.5
						c-3.9-4.9-7.4-10.3-10.9-16c-2-3.2-3.4-6.8-4.6-10.5c-2.2-6.8-4.3-13.4-5.4-20.5c-1.7-10.3-2.2-20.5-1.7-30.9
						c0-0.5,0.3-1.4,0-2.2c-0.3-0.3-0.9-0.3-0.9-0.3c-7.4-2-14.3-3.9-21.7-6c-0.3,0-0.3-0.3-0.9-0.3v-0.3c0.3,0,0.3,0,0.3-0.3
						c0.3-0.3,0.5-1.2,0.9-1.4c1.4-2.6,2.9-5.7,3.9-8.3c1.7-3.4,3.4-6.8,4.9-10.3c0.3-0.9,0.9-1.4,1.2-2.2c0.3,0,0.9,0.3,0.9,0.3
						c4.9,1.4,9.5,2.6,14.3,3.9c0.3,0,0.3,0.3,0.9,0.3h0.3c0-0.3-0.5-0.5-0.3-1.2c0.3-0.9,0.5-1.4,0.9-2.2c0.3-2.2,1.2-3.9,1.7-6.3
						c0.3-0.9,0.5-1.4,0.9-2.2c0.3-0.3,0.3-1.2,0.5-1.4c-0.3,0-0.3-0.3-0.9-0.3c-4.3-1.2-8.8-2.2-13.1-3.7c-0.3,0-0.3,0-0.9-0.3
						c0,0-0.3,0-0.3-0.3c3.9-7.8,7.4-15.1,11.4-22.9c0.3,0,0.5,0,0.9,0.3c3.7,0.9,7.4,2,11.4,2.9c0.3,0,0.3,0.3,0.9,0.3l0.3-0.3
						c2-3.7,3.9-7.8,6-11.2c3.9-6.8,8.8-13.1,14.3-19.5c7.4-7.8,16-14.3,26-19.5c8.8-4.9,18.8-8,28.3-9.7c5.1-1.2,10.3-1.4,15.4-1.7
						c6.8-0.3,13.1,0.3,20,1.4c2.2,0.3,4.9,0.9,6.8,1.4h0.3c2.6,0.5,5.1,1.4,7.8,2l0.3,0.3c1.4,0.5,2.9,1.2,4.6,1.4
						c2.2,0.9,4.9,1.7,7.1,2.9c3.4,1.2,6.6,3.2,9.5,5.1c6.6,3.7,12.9,8,18.3,13.4c3.7,3.4,6.6,6.8,9.7,10.5c0.3,0.3,0.5,0.9,0.9,1.2
						c0,0.3-0.3,0.9-0.3,1.2c-0.5,1.4-0.5,2.6-1.2,3.9c-1.2,4.3-2.2,8.5-3.4,12.9c-0.5,2.6-1.4,5.1-2,7.8c-0.5,1.4-1.2,2.9-1.2,4.3
						c0,0,0,0.3-0.3,0.3c0,0,0,0.3-0.3,0.3c-0.3-0.3-0.9-0.5-0.9-1.2c-5.1-5.7-10-11.2-15.6-16c-3.4-3.2-6.8-5.7-10.5-8
						c-4.6-3.2-9.7-5.7-14.9-7.8c-2.2-1.2-4.9-1.7-7.1-2.6c-1.2-0.5-2.6-0.5-3.9-0.9c-2.2-0.3-4.9-0.9-6.8-1.2
						c-2.6-0.3-5.1-0.5-8-0.5c-4.6,0-9.2,0.3-13.7,0.5c-3.4,0.5-6.8,0.9-10.3,2.2c-6.8,2-12.9,4.9-18.8,8.5c-2.9,1.7-5.7,3.7-8.3,6
						c-2,1.7-3.7,3.7-5.1,5.4c-3.9,4.6-7.4,9.2-10.9,14.6c-0.3,0.3-0.3,0.9-0.9,0.9c0.3,0,0.9,0.3,1.2,0.3
						c34.3,9.7,68.5,19.2,102.8,28.8c0.3,0,0.3,0.3,0.9,0.3c0,0,0.3,0,0.3,0.3v0.3c-1.7,3.4-3.4,6.8-4.9,10.3c-2,3.7-3.7,8-5.7,11.7
						c0,0.3-0.3,0.9-0.5,0.9s-0.9-0.3-1.2-0.3c-34-9.5-68.2-19.2-102-28.5c-0.3,0-0.3-0.3-0.9-0.3h-0.3l0,0c-0.9,2.2-1.2,3.9-2,6.3
						c-0.3,1.2-0.5,1.7-0.5,2.9c-0.3,1.2-0.3,2.2-0.9,3.4c0,0.3-0.3,0.3,0,0.5c0.3,0.3,0.9,0.3,1.2,0.3c34,9.5,67.4,18.8,101.3,28.3
						c0.3,0,0.3,0.3,0.9,0.3c0,0,0.3,0,0.3,0.3c-0.5,1.2-11.2,22.6-11.4,22.9l0,0l0,0l0,0l0,0l0,0l0,0l0,0l0,0l0,0l0,0l0,0
						c-30.9-8.8-62.3-17.5-93.3-26.3l0,0l0,0l0,0l0,0l0,0l0,0l0,0l0,0l0,0l0,0l0,0l0,0v0.3c0,6.8,0.9,13.7,2,20.2
						c2,8.3,5.1,16.3,9.7,23.4c5.4,9.2,12.9,16.3,21.4,22.2c2.2,1.4,4.6,3.2,7.4,4.3l25.8-0.5L1186.8,190.8z"/>
				</g>
			</g>
			<g>
				<path fill="#666666" d="M1273.8,296.8c0.5,14.3,1.2,28.3,1.7,42.3c12.6-0.3,22.9-8.8,23.4-18.8
					C1299.6,308.2,1288.9,298.2,1273.8,296.8z"/>
			</g>
			<path fill="#666666" d="M1157.9-46.7c-82.5,0-149.6,67.2-149.6,149.6c0,61.1,36.5,113.7,89.1,136.8c5.7-21.7,2-36,0.5-39.7
				c-0.9-0.5-1.7-1.4-2.2-2c-7.8-7.1-13.7-15.4-18.5-24.8c-2.2-4.6-4.3-9.2-6-13.9c-2-5.7-3.4-11.7-4.3-17.7
				c-1.7-9.7-2-19.5-1.4-29.2c0-0.9,0-1.4,0.3-2.2c-0.3-0.3-0.5-0.3-0.9-0.3c-7.1-2-14.3-3.9-21.4-6c-0.3,0-0.5,0-0.5-0.3v-0.3
				c0.3,0,0.3-0.3,0.5-0.5c1.7-3.4,3.4-6.8,4.9-10c1.7-3.4,3.4-6.8,5.1-10.5c0.3-0.5,0.5-0.9,0.5-1.4c0.9,0,1.4,0.3,2,0.5
				c0.5,0.3,1.4,0.3,2,0.5c0.5,0.3,1.4,0.3,2,0.5c0.5,0.3,1.4,0.3,2,0.5s1.4,0.3,2,0.5c0.5,0.3,1.4,0.3,2,0.5c0.5,0.3,1.4,0.3,2,0.5
				c0.5,0.3,1.4,0.5,2,0.5c0-0.3,0-0.3,0-0.3c0-0.3,0-0.3,0-0.5c0.3-1.4,0.5-2.6,1.2-3.9c0.9-2.6,1.4-5.1,2.2-7.8c0-0.3,0-0.3,0-0.5
				c-0.5-0.3-1.2-0.3-2-0.5c-0.5-0.3-1.2-0.3-1.7-0.5c-0.5-0.3-1.2-0.3-1.7-0.5c-0.5-0.3-1.2-0.3-1.7-0.5c-0.5-0.3-1.2-0.3-1.7-0.5
				c-0.5-0.3-1.2-0.3-1.7-0.5c-0.5-0.3-1.2-0.3-1.7-0.5s-1.2-0.3-1.7-0.5v-0.3c3.7-7.4,7.4-14.9,11.2-22.2l0,0l0,0
				c0.3,0,0.5,0,0.9,0.3c3.7,1.2,7.4,2,11.2,3.2c0.3,0,0.5,0.3,0.9,0.3c0-0.3,0.3-0.3,0.3-0.5c1.2-2.6,2.6-5.1,3.9-8
				c2.2-4.6,5.1-8.8,8.3-12.9c4.6-6.3,10-11.7,15.6-16.8c4.9-4.3,10.3-7.8,16-10.9c3.7-2,7.4-3.7,11.4-5.1c6-2.2,12-3.9,18.5-5.1
				c7.1-1.4,14.6-1.7,21.7-1.4c4.3,0.3,8.8,0.5,13.1,1.4c2.2,0.3,4.6,0.9,6.6,1.4c0.3,0,0.3,0,0.5,0c2.6,0.9,5.1,1.4,7.8,2.2
				c0,0.3,0.3,0.3,0.3,0.3c1.7,0.5,3.4,1.2,5.1,1.7c2.2,0.9,4.9,2,7.1,2.9c2.9,1.4,5.7,2.9,8.5,4.6c6.6,3.7,12.6,8.3,18,13.4
				c3.4,3.2,6.6,6.8,9.5,10.5c0.3,0.3,0.5,0.9,0.9,1.2c0,0.3-0.3,0.5-0.3,1.2c-0.3,1.4-0.9,2.6-1.2,3.9c-1.2,4.3-2.6,8.3-3.7,12.6
				c-0.9,2.6-1.4,4.9-2.2,7.4c-0.3,1.4-0.9,2.9-1.2,4.3v0.3c0,0,0,0.3-0.3,0.3c-0.3-0.3-0.3-0.3-0.5-0.5c-2.2-2.6-4.6-5.1-6.8-7.4
				c-4.6-4.9-9.5-9.5-14.9-13.4c-5.1-3.9-10.5-7.4-16.6-10c-3.2-1.4-6.6-2.6-9.7-3.7c-2.9-0.9-5.4-1.4-8.3-2c-2.6-0.3-5.1-0.9-8-0.9
				c-5.1-0.3-10.3-0.3-15.6,0.3c-3.4,0.3-6.8,0.9-10,2c-6.8,2-13.1,4.9-19.5,8.5c-2.6,1.4-4.9,3.2-7.1,5.1c-2.6,2-4.6,4.3-6.6,6.6
				c-3.7,4.3-7.1,8.8-10.3,13.9l-0.3,0.3l-0.3,0.3c0.3,0,0.5,0.3,0.9,0.3c33.6,9.7,67.7,19.2,101.3,28.8c0.3,0,0.5,0.3,0.9,0.3h0.3
				c0,0,0,0,0,0.3c-3.7,7.4-7.4,14.9-11.2,22.2l0,0l0,0c-0.3,0-0.5-0.3-0.9-0.3c-33.4-9.5-67.2-18.8-100.5-28.5
				c-0.3,0-0.5-0.3-0.9-0.3h-0.3c0,0,0,0,0,0.3c-0.9,2.2-1.4,4.6-2.2,6.8c-0.3,0.5-0.3,1.4-0.5,2c-0.3,1.2-0.5,2-0.9,3.2
				c0,0.3,0,0.5,0,0.5c0.3,0.3,0.5,0.3,1.2,0.3c33.1,9.5,66.5,18.8,99.6,28.3c0.3,0,0.5,0,0.9,0.3c0,0,0.3,0,0.3,0.3s0,0.3-0.3,0.5
				c-3.7,7.4-7.1,14.6-10.9,21.9l0,0l0,0l0,0l0,0l0,0l0,0l0,0l0,0l0,0l0,0l0,0l0,0c-30.9-8.5-61.4-17.5-92.3-26l0,0l0,0l0,0l0,0l0,0
				l0,0l0,0l0,0l0,0l0,0c0,0.3,0,0.3,0,0.5c0,1.7,0,3.7,0.3,5.4c0.3,6.6,1.4,12.9,3.2,19.2c1.7,6.3,4.6,12.6,8,18
				c5.1,8.3,11.7,15.4,19.5,20.9c30.9-0.3,37.5-0.5,43.4-0.9c7.4-0.3,13.7-0.3,62.3-0.9h13.1l-1.7,13.1c-1.7,12.6-3.7,24.3-5.7,35.1
				c41.9-26.6,69.7-73.1,69.7-126.4C1307.6,20.3,1240.4-46.7,1157.9-46.7z"/>
			<g>
				<path fill="#666666" d="M1223.3,284.5c-3.2,8.8-6.6,17.5-10,25.1c4.6-0.3,9.2-0.3,13.7-0.5c1.2,15.1,7.4,26.3,24.3,30
					c-0.3-3.9-0.3-7.4-0.5-10.9c-0.5-10.5-1.2-21.2-1.2-31.7c0-3.4-1.4-4.9-4.6-5.7C1237.5,288.7,1230.4,286.8,1223.3,284.5z"/>
				<path fill="#666666" d="M1313.8,143.4c-2,8-4.9,15.6-8,23.1c16.8,6.6,29.2,18.3,35.1,37.1c1.7,5.4,2,11.4,2.9,17.5
					c-17.1,0.9-33.1,1.4-49.2,2c-3.4-9.7-6.8-15.6-11.7-18.8c-3.9,4.9-8.3,9.7-12.9,13.9c0,3.2,0.3,6.3,0.3,9.5
					c0.3,4.9-0.9,10.5,1.4,13.7c2.2,2.9,8.3,2.9,12.6,4.6c10.5,3.9,21.4,6.8,31.4,12c26.5,13.4,36.5,33.4,33.6,64
					c-2.6,25.1-18.8,44-44.8,51.7c-8.8,2.6-18.3,3.9-27.7,6c0.3,9.2,0.9,18.3,1.2,28c-8,0.3-15.4,0.5-23.7,1.2
					c-0.3-9.5-0.9-18.8-1.2-28.5c-25.8-0.9-48.5-7.1-64.3-28.5c-11.2,14.6-23.7,27.1-37.7,38.2c26.8,25.4,62.8,40.9,102.8,40.9
					c82.5,0,149.6-67.2,149.6-149.6C1403.4,219.3,1366.6,166.5,1313.8,143.4z"/>
			</g>
		</g>
	</g>
</g>
</svg>
