<?xml version="1.0" encoding="utf-8"?>
<!-- Generator: Adobe Illustrator 19.1.0, SVG Export Plug-In . SVG Version: 6.00 Build 0)  -->
<svg version="1.0" id="Layer_2" xmlns="http://www.w3.org/2000/svg" xmlns:xlink="http://www.w3.org/1999/xlink" x="0px" y="0px"
	 viewBox="290 -288.6 1539.6 1536.6" enable-background="new 290 -288.6 1539.6 1536.6" xml:space="preserve">
<g display="none" opacity="0.6">
	<g display="inline">
		<path fill="#494949" d="M1064.5,1258.1c431.6,1.1,778.7-343.8,778.5-773.6c-0.2-430-347.3-774.4-779.1-773.1
			c-428.7,1.3-771.6,342.2-773.9,769C287.7,910.8,632.5,1257,1064.5,1258.1z M1068.5,1218.9c-403-9.5-731.9-305.6-736.4-727.5
			c-4.3-405.4,300-734.7,732.1-738c416.5-3.1,735.2,320.2,737.9,733.8C1804.7,888.8,1471.3,1215.3,1068.5,1218.9z"/>
	</g>
	<path display="inline" fill="#494949" d="M1481.1,214.1c0.4-45.1-18.8-57.4-60.9-57.2c-236.8,1.2-473.6,0.3-710.4,1
		c-13.2,0-30.5-2.9-41.7,3c-31,2.1-23.7,34.4-23.8,55.9c-0.7,168.5,0.6,336.9-1,505.4c-0.4,45.1,18.8,57.4,60.9,57.2
		c236.8-1.2,473.6-0.3,710.4-1c13.2,0,30.5,2.9,41.7-3c31-2.1,23.7-34.4,23.8-55.9C1480.8,551,1479.5,382.5,1481.1,214.1z
		 M1084.7,723.5c-104.6,0-209.2-3-313.6,1.1c-58.4,2.3-73.2-19.8-72.1-74.4c3.1-143.9,1.4-287.9,0.6-431.9c0-1.9,0-3.9,0.1-5.9
		c2.7-0.1,5.3-0.2,7.8-0.2c110.7,0.8,221.4,0.4,332.1,0.4c104.6,0,209.2,3,313.6-1.1c58.4-2.3,73.2,19.8,72.1,74.4
		c-3.1,143.9-1.4,287.9-0.6,431.9c0,1.9,0,3.9-0.1,5.9c-2.7,0.1-5.3,0.2-7.8,0.2C1306.2,723.1,1195.4,723.5,1084.7,723.5z"/>
</g>
<g>
	<path fill="#666666" d="M940.4,486.5c33,33,72.6,49.4,119.3,49.4c46.5,0,86.3-16.4,119.3-49.4s49.4-72.6,49.4-119.3
		S1212,281,1179,247.9s-72.6-49.4-119.3-49.4c-46.5,0-86.3,16.4-119.3,49.4S891,320.5,891,367.3S907.4,453.5,940.4,486.5z"/>
	<path fill="#666666" d="M806.7,311c31,0,57.5-11,79.5-33c21.9-21.9,33-48.5,33-79.5s-11-57.5-33-79.5s-48.5-32.9-79.5-32.9
		s-57.5,11-79.5,33c-21.9,21.9-33,48.5-33,79.5s11,57.5,33,79.5C749.1,300,775.5,311,806.7,311z"/>
	<path fill="#666666" d="M1312.7,311c31,0,57.5-11,79.5-33c21.9-21.9,33-48.5,33-79.5s-11-57.5-33-79.5c-21.9-21.9-48.5-33-79.5-33
		s-57.5,11-79.5,33c-21.9,21.9-33,48.5-33,79.5s11,57.5,33,79.5C1255.1,300,1281.7,311,1312.7,311z"/>
</g>
<g>
	<g>
		<path fill="#666666" d="M1309.2,509.1l-14.1-41.8c-3.9-11.5-7.7-22.4-11.5-33c-8.7-24.5-16.9-47.6-22.8-71.5
			c-1.9-7.7-1.4-15.2,1.5-22c-2.6-0.8-5.2-1.6-7.8-2.5c1.4,10.9,2.2,20.5,2.2,29c0,40.7-11.8,78.2-35.6,112.4
			C1254.7,480.7,1284.1,490.6,1309.2,509.1z"/>
		<path fill="#666666" d="M1427,311c-1.7,0-8.1,3-19,9.2c-10.9,6.2-25.2,12.3-42.8,18.7c-1.2,0.4-2.4,0.9-3.6,1.3
			c5.7,12.5,6.3,28.7-3.2,49.7c-6.6,14.5-11.3,30.3-16.7,48.7c-2.7,9-5.4,18.4-8.6,28.4l-15.6,48.7c7,6,13.7,12.7,20,20.2h58.9
			c24,0,44.3-5.9,60.7-17.7s24.6-29.2,24.6-52C1481.3,362.7,1463.2,311,1427,311z"/>
	</g>
	<path fill="#666666" d="M1314,465.9c-12.9-38.3-25.7-70-33.8-102.9c-4.4-17.6,18.3-20.6,27.2-31.5c6.9-8.3,12.1,1,17.8,4.2
		c21.5,12.2,25.5,27.6,14.9,50.9C1329.6,409.7,1323.9,435.1,1314,465.9z"/>
	<g>
		<path fill="#666666" d="M856.1,341.2c5.3,12.3,5.6,28.3-3.7,48.6c-6.6,14.5-11.3,30.3-16.7,48.7c-2.7,9-5.4,18.4-8.6,28.4
			l-12.5,39c24-16.6,52-25.4,83.9-26.3c-23.8-34.3-35.6-71.7-35.6-112.4c0-8.5,0.8-18.1,2.2-29C862.1,339.4,859.1,340.3,856.1,341.2
			z"/>
		<path fill="#666666" d="M789.1,467.3c-3.9-11.5-7.7-22.4-11.5-33c-8.7-24.5-16.9-47.6-22.8-71.5c-2-8.1-1.3-16,1.9-23.1
			c-0.8-0.3-1.6-0.5-2.4-0.8c-17.6-6.3-31.8-12.5-42.8-18.7s-17.3-9.2-19-9.2c-36.4,0-54.5,51.8-54.5,155.1c0,22.9,8.3,40.2,24.6,52
			c16.4,11.8,36.7,17.7,60.7,17.7h58.9c7-8.4,14.5-15.8,22.4-22.3L789.1,467.3z"/>
	</g>
	<path fill="#666666" d="M808,465.9c-12.9-38.3-25.7-70-33.8-102.9c-4.4-17.6,18.3-20.6,27.2-31.5c6.9-8.3,12.1,1,17.8,4.2
		c21.5,12.2,25.5,27.6,14.9,50.9C823.6,409.7,817.9,435.1,808,465.9z"/>
</g>
<g>
	<path fill="#666666" d="M1035.4,801.7c-5.5-16.5-10.9-32.7-16.2-48.5c-15.1-45.3-29.4-88.1-43.8-130.9
		c-7.7-22.9-1.4-43.3,17.8-57.5c2.3-1.7,4.7-3.5,7-5.3c-19.5-6.3-35.2-13.3-46.8-21c-11.7-7.8-22.5-14.8-32.1-21.1
		c-9.7-6.3-15.9-9.5-18.9-9.5c-17.9,0-34.2,2.9-49,8.8c-14.8,5.8-27.3,13.7-37.6,23.5c-10.2,9.9-19.3,21.7-27.2,35.6
		c-7.9,13.9-14.2,28.2-18.9,42.8s-8.5,30.5-11.7,47.7c-3,17.1-5.1,33.1-6.2,47.9c-1.1,14.8-1.6,30-1.6,45.5
		c0,35.2,10.6,62.9,32.1,83.3s49.8,30.5,85.3,30.5h191.8L1035.4,801.7z"/>
	<path fill="#666666" d="M1367.4,714.1c-1.1-14.8-3-30.7-6.2-47.9s-7-33-11.7-47.7c-4.7-14.6-11-28.9-18.9-42.8
		c-7.9-13.9-16.9-25.7-27.2-35.6c-10.2-9.9-22.7-17.6-37.6-23.5c-14.8-5.8-31.1-8.8-49-8.8c-2.9,0-9.2,3.2-18.9,9.5
		s-20.4,13.3-32.1,21.1c-10.2,6.8-23.3,13-39.6,18.6c10.7,10,17.7,19.5,21.6,31.8c7.1,22.6,0.3,43.2-12.2,80.5
		c-9.6,29-19.1,57.9-29,88.5c-4.6,14.2-9.3,28.7-14.2,43.7l-23.5,71.9h182.7c35.5,0,63.8-10.2,85.3-30.5
		c21.4-20.4,32.1-48.1,32.1-83.3C1368.9,744.1,1368.4,729,1367.4,714.1z M1262.6,736.3c-0.5,6.1-6.4,7-11.5,7.1
		c-12.8,0.2-25.7,0.1-38.5,0.1c-12.1,0-24.3,0.2-36.4,0c-4.9-0.1-10.9-0.1-11.5-6.7c-0.6-7.1,5.6-7.6,10.3-7.6
		c25.7-0.3,51.4-0.2,77,0C1256.6,729.1,1263.2,729.3,1262.6,736.3z"/>
</g>
<path fill="#666666" d="M1063.9,792.2c-21.3-63.8-40.5-121.7-60.1-179.6c-3.4-10.1-1.9-17.1,7.2-23.8c14.8-10.9,29-22.7,42.6-35.2
	c7-6.5,10.8-7.2,19.1-0.9c56.1,42.1,56.2,41.8,34.4,107.1C1093,702.2,1079.3,744.8,1063.9,792.2z"/>
</svg>
