<?xml version="1.0" encoding="utf-8"?>
<!-- Generator: Adobe Illustrator 19.1.0, SVG Export Plug-In . SVG Version: 6.00 Build 0)  -->
<svg version="1.0" id="Layer_2" xmlns="http://www.w3.org/2000/svg" xmlns:xlink="http://www.w3.org/1999/xlink" x="0px" y="0px"
	 viewBox="290 -288.6 1539.6 1536.6" enable-background="new 290 -288.6 1539.6 1536.6" xml:space="preserve">
<g display="none" opacity="0.6">
	<g display="inline">
		<path fill="#E5FF1D" d="M1064.5,1258.1c431.6,1.1,778.7-343.8,778.5-773.6c-0.2-430-347.3-774.4-779.1-773.1
			c-428.7,1.3-771.6,342.2-773.9,769C287.7,910.8,632.5,1257,1064.5,1258.1z M1068.5,1218.9c-403-9.5-731.9-305.6-736.4-727.5
			c-4.3-405.4,300-734.7,732.1-738c416.5-3.1,735.2,320.2,737.9,733.8C1804.7,888.8,1471.3,1215.3,1068.5,1218.9z"/>
	</g>
	<path display="inline" fill="#E5FF1D" d="M1481.1,214.1c0.4-45.1-18.8-57.4-60.9-57.2c-236.8,1.2-473.6,0.3-710.4,1
		c-13.2,0-30.5-2.9-41.7,3c-31,2.1-23.7,34.4-23.8,55.9c-0.7,168.5,0.6,336.9-1,505.4c-0.4,45.1,18.8,57.4,60.9,57.2
		c236.8-1.2,473.6-0.3,710.4-1c13.2,0,30.5,2.9,41.7-3c31-2.1,23.7-34.4,23.8-55.9C1480.8,551,1479.5,382.5,1481.1,214.1z
		 M1084.7,723.5c-104.6,0-209.2-3-313.6,1.1c-58.4,2.3-73.2-19.8-72.1-74.4c3.1-143.9,1.4-287.9,0.6-431.9c0-1.9,0-3.9,0.1-5.9
		c2.7-0.1,5.3-0.2,7.8-0.2c110.7,0.8,221.4,0.4,332.1,0.4c104.6,0,209.2,3,313.6-1.1c58.4-2.3,73.2,19.8,72.1,74.4
		c-3.1,143.9-1.4,287.9-0.6,431.9c0,1.9,0,3.9-0.1,5.9c-2.7,0.1-5.3,0.2-7.8,0.2C1306.2,723.1,1195.4,723.5,1084.7,723.5z"/>
</g>
<g>
	<g>
		<g>
			<g>
				<g>
					<path fill="#666666" d="M1408.4,804c-14.3-14-35-24.3-52.4-34c-18.4-10.2-37.4-18.9-56.9-26.9c-45.9-19-94.6-30.5-143.8-33.7
						c-1-0.6-1.9-1.5-2.1-2.3c-2.1-15.6-7.1-31.9-4.2-46.6c1.3-6,3.7-11.6,6.6-17.2c2.7-0.5,5.2-2.1,8.1-5c3.2-3.2,6-7.1,8.2-11
						c2.3-3.9,4.5-7.6,7.1-11c2.4-3.2,4.5-5,6.3-5c2.4,0,7.4,1.9,15.2,5.8c7.6,3.9,12.3,6,13.9,6.6c14.5,5,29.3,7.4,45,7.4
						c23.4,0,46.4-5.6,68.7-16.9c23.1-11.4,41.6-25.5,56.1-42.1c14.5-16.6,24.2-36.8,29-60.3c2.1-10.3,3.1-20.3,3.1-30.3
						c0-3.9-0.5-8.9-1.3-15.2c-0.8-6.3-2.1-12.6-3.7-19.5c-1.6-6.9-4.2-12.7-7.4-17.6c-3.2-4.7-7.1-7.3-11-7.3l-6.9,0.6l-5.8,2.4
						l-4.2,3.1l-4.5,4.4l-4.5,4.5c-4.2,3.9-10,6.9-17.7,8.9c-7.9,2.1-16.4,3.2-25.6,3.7c-9.3,0.5-18.7,0.8-27.9,1
						c-9.2,0.2-18.9,0.6-28,1.5c-9.3,0.8-16.9,2.1-22.7,3.9c-11.4,3.7-22.1,8.7-32.1,15c-10,6.3-18.9,13.4-26.8,21.8
						c-7.9,8.4-14,18.1-18.7,29c-4.5,11-6.9,22.6-6.9,34.7c0,5.6,0.5,11,1.5,16.4c0.2,1,1,3.2,2.4,6.9c1.5,3.5,2.3,5.6,2.3,6
						c0,2.1-1.6,4.5-5,7.4c-3.1,2.9-6.6,5.8-10.3,8.7c0-0.2,0-0.2,0-0.5c-0.6,0.6-1.5,1.5-2.1,2.1c-2.7,2.1-5.2,4.5-7.4,7.3
						c-2.9-16.4-5.3-30.9-8.4-45.1c-1-4.7-3.1-11.6-6.6-13.1c-3.7-1.5-9.7,1.6-14.5,3.7c-6.9,2.9-13.1,7.1-19.8,9.5
						c-7.4,2.7-14.3,5.8-13.2,15c0.8,8.2,3.2,16.4,5,24.7c5.8,28.5,11.9,56.9,17.4,85.3c1.6,8.4-0.6,14.7-7.1,18.2
						c-11.4,0.8-22.7,2.3-34.2,3.9c-40.1,6.4-79.8,19.7-115.6,39.2c-27.9,7.1-52.7,20.1-76.9,35.5c-4.2,2.7-8.1,5.3-12.1,8.1
						c-10,4.4-19.8,8.9-29.7,13.7c-15,7.4-28.4,18.7-34.2,34.3c-5.2,6-8.1,13.4-8.1,21.4c0,12.7,6.9,21.3,16.4,28.5
						c1.6,1.3,3.2,2.3,5.2,3.2c2.3,1.9,4.5,3.5,7.3,5c11.3,5.8,25.5,5.6,35.8-1.5c5-0.8,9.7-1.9,14.3-2.7c11.3,1,22.4,2.3,33.5,3.5
						c1.6,0.2,3.1,1.3,4.7,1.9c-25.5,2.7-49.6,7.4-72.7,19.3c11.3,3.5,22.4,4.7,33.7,5.8c11,0.8,21.8,2.1,32.7,1.9
						c21.3-0.2,42.7-1.6,64-1.9c12.4,0,24.8,1.3,37.2,2.1c7.1,0.5,13.9,1.5,21,2.3c-3.9,1.9-7.6,1.9-11.4,2.4
						c-12.4,1.9-24.7,3.7-36.9,6c-4.7,0.8-9.5,2.9-14,5.2c-1,0.6-1.6,3.7-1.5,5.3c0,1,2.1,2.7,3.5,2.9c10.6,1.6,21.1,3.9,31.8,4.4
						c18.4,0.6,37.1-0.2,55.6,0.2c17.7,0.5,35.6,1.5,53.4,2.1c16.6,0.6,33,2.1,49.5,1.6c22.6-0.6,45.1-2.7,67.7-3.7
						c9.3-0.5,18.9,0.2,28-0.5c12.3-0.8,24.3-2.1,36.8-3.9c8.4-1.3,17.6-2.4,21.3-14c-23.4-3.1-46.4-6-69.3-9
						c-0.2-0.8-0.5-1.9-1-3.7c6.9-1.5,13.4-3.9,20.5-4.5c20.6-1.9,41.6-2.1,62.1-4.5c15-1.9,29.3-8.9,44.2-9
						c20.1-0.5,30.9-13.1,42.2-25c4.5-2.7,8.7-5.6,12.4-9C1432.3,855.7,1428.6,824.1,1408.4,804z M1198.2,566.1
						c12.7-14,25-25.6,37.1-34.3c11.9-8.9,25.5-16,40.8-21.1s31.9-7.9,49.8-7.9c2.7,0,5.2,1,7.1,2.9c2.1,2.1,2.9,4.4,2.9,7.1
						c0,2.7-1,5.2-2.9,7.1c-2.1,2.1-4.4,2.9-7.1,2.9c-19,0-35.5,2.7-49.2,8.1c-13.7,5.3-27.7,14.7-42.2,27.6
						c-2.1,2.1-5.6,5.3-10.6,10.3c-5,5-8.7,8.7-11.6,11.3c-2.3,2.1-4.5,2.9-7.1,2.9c-2.7,0-5.2-1-7.1-2.9c-2.1-2.1-2.9-4.4-2.9-7.1
						C1195.2,570.7,1196.3,568.3,1198.2,566.1z"/>
					<path fill="#666666" d="M836.2,362.5c27.2,11.6,53.4,25,73.5,48c4.4,5,6,9.3,3.2,16.6c-6.3,16.6,0.8,33,16.6,42.2
						c5,2.9,7.3,5.8,6.6,12.3c-1,12.1,3.1,24,13.9,29c14.3,6.4,22.4,15.6,28.5,30.3c6.3,15.2,23.4,18.4,41.3,13.7
						c5.6-1.5,12.7-3.1,17.2-0.8c40.5,21.9,86.4,1.5,93.2-43.7c1.9-12.3,6.4-19.5,14.7-27.1c15-13.9,14-37.1-1.3-50.6
						c-5.3-4.7-6-8.4-3.9-15.2c5.3-16-1.3-32.4-16.1-40.5c-6-3.1-7.1-6.9-6.9-13.1c0.6-15.8-9.7-31.6-24.7-34.2
						c-11.4-2.1-15-8.4-16.9-17.6c-1.6-7.3-2.9-15-3.5-22.4c-3.2-34.8,4.2-68.5,10.8-102.2c11-54.6-3.7-102.5-42.9-141.8
						c-34.8-34.8-77.9-49.2-126.7-48.7c-44.5,0.8-86.4,10.6-122.7,36.9c-57.9,40.8-94.6,94.5-95.9,167.8
						c-0.8,59,36.8,117.8,90.9,140.9C802,349.7,819.4,355.2,836.2,362.5z M763,264.1c-28.7-41.4-28.4-84.1-4.5-127.3
						c19.7-35.6,47.4-63,85.1-77.9c50.6-20.1,100.9-24.7,148.6,8.4c36.1,25.3,53.5,72.9,42.7,115.9c-8.2,32.4-15.2,65.4-12.3,99
						c1.6,18.7,7.3,36.9,10.8,55.6c0.6,3.1,0,8.7-1.9,10c-25,14.5-50.3,28.5-74.1,41.7c-14.3-13.4-26.9-27.1-41.4-38.5
						c-28-22.1-60.8-34.8-94.5-45.3C797.5,298.5,777.4,285.4,763,264.1z"/>
					<path fill="#666666" d="M868.6,144.4c1.9,0.6,4.4-1.6,6.6-2.4c25.6-8.9,51.6-21.4,73.8,7.1c1.9,2.4,8.7,3.1,12.3,1.9
						c3.1-1,4.7-6,7.4-9.7c-3.1-5.2-5-11-9-13.7c-9-6.3-18.9-12.7-29.3-15.8c-24.2-6.6-47.1,0.8-68.5,11.9
						c-3.7,1.9-6.9,9.7-6.3,14.3C855.9,140.7,863.8,142.9,868.6,144.4z"/>
				</g>
			</g>
		</g>
	</g>
</g>
</svg>
