<?xml version="1.0" encoding="utf-8"?>
<!-- Generator: Adobe Illustrator 19.1.0, SVG Export Plug-In . SVG Version: 6.00 Build 0)  -->
<svg version="1.0" id="Layer_2" xmlns="http://www.w3.org/2000/svg" xmlns:xlink="http://www.w3.org/1999/xlink" x="0px" y="0px"
	 viewBox="290 -288.6 1539.6 1536.6" enable-background="new 290 -288.6 1539.6 1536.6" xml:space="preserve">
<g display="none" opacity="0.6">
	<g display="inline">
		<path fill="#E5FF1D" d="M1064.5,1258.1c431.6,1.1,778.7-343.8,778.5-773.6c-0.2-430-347.3-774.4-779.1-773.1
			c-428.7,1.3-771.6,342.2-773.9,769C287.7,910.8,632.5,1257,1064.5,1258.1z M1068.5,1218.9c-403-9.5-731.9-305.6-736.4-727.5
			c-4.3-405.4,300-734.7,732.1-738c416.5-3.1,735.2,320.2,737.9,733.8C1804.7,888.8,1471.3,1215.3,1068.5,1218.9z"/>
	</g>
	<path display="inline" fill="#E5FF1D" d="M1481.1,214.1c0.4-45.1-18.8-57.4-60.9-57.2c-236.8,1.2-473.6,0.3-710.4,1
		c-13.2,0-30.5-2.9-41.7,3c-31,2.1-23.7,34.4-23.8,55.9c-0.7,168.5,0.6,336.9-1,505.4c-0.4,45.1,18.8,57.4,60.9,57.2
		c236.8-1.2,473.6-0.3,710.4-1c13.2,0,30.5,2.9,41.7-3c31-2.1,23.7-34.4,23.8-55.9C1480.8,551,1479.5,382.5,1481.1,214.1z
		 M1084.7,723.5c-104.6,0-209.2-3-313.6,1.1c-58.4,2.3-73.2-19.8-72.1-74.4c3.1-143.9,1.4-287.9,0.6-431.9c0-1.9,0-3.9,0.1-5.9
		c2.7-0.1,5.3-0.2,7.8-0.2c110.7,0.8,221.4,0.4,332.1,0.4c104.6,0,209.2,3,313.6-1.1c58.4-2.3,73.2,19.8,72.1,74.4
		c-3.1,143.9-1.4,287.9-0.6,431.9c0,1.9,0,3.9-0.1,5.9c-2.7,0.1-5.3,0.2-7.8,0.2C1306.2,723.1,1195.4,723.5,1084.7,723.5z"/>
</g>
<g display="none">
	<g id="Layer_1_2_" display="inline">
		<path fill="#666666" d="M890.4,147.7c25.2,16,50.4,32,75.5,48.1c6.4,4,13.1,7.9,18.5,13.1c3.8,3.6,6.8,9.2,7.5,14.3
			c1.2,8.4,0.4,17.2,0.4,26.5c-42.6,0-84.7,0-127.4,0c0,25.9,0,51.1,0,77.1c42.1,0,84.2,0,128.2,0c-0.6,12.9-0.4,25.2-2.3,37.2
			c-1.6,9.1-10.4,13.8-21.1,13.8c-44.6,0-89.3,0-133.9,0c-8.7,0-17.3,0.1-26,0c-12.1-0.1-20.7-7.9-21.6-19.8
			c-0.5-7.8-0.1-15.6-0.3-23.4c0-2.1,0-4.3,0-7.1c8.6,0,16.6,0,25.2,0c0-25.9,0-51.1,0-77.1c-8.1,0-16.2,0-24.6,0
			c0-10.7-0.8-20.5,0.4-30.3c0.5-4.2,4.2-8.7,7.7-11.4c7.8-6.2,16.1-11.6,24.6-17c20.8-13.3,41.7-26.4,62.5-39.6
			c1.9-1.2,3.6-2.9,5.5-4.3C889.5,147.7,890,147.7,890.4,147.7z"/>
		<path fill="#666666" d="M1342.8,288c0-31.8,4.4-86.2,19.8-107c-136,30.5-271.9,61.2-407.7,91.8c-13.3,3-13.3,3-13.1,16.9
			c0.1,14-2.1,10.8,11.2,13.8c122,27.6,244.1,55.1,366.2,82.5c14.7,3.2,29.4,6.4,44.1,9.5C1347.3,375.3,1342.8,320.2,1342.8,288z"/>
		<ellipse fill="#666666" cx="1376.6" cy="288" rx="27.3" ry="109.1"/>
	</g>
	<g id="Layer_1_copy_1_" display="inline">
		<path fill="#666666" d="M1062.9,788.9C1062.9,788.9,1063,788.9,1062.9,788.9L969.3,414c-1.6-6-6.9-10.1-13-10.3
			c-28.1,0-104.2-0.1-132.3-0.1c-6.2,0-11.6,4.2-13.1,10.1l-94.1,375.1h0.1c-0.8,1.9-1.2,3.9-1.2,6.1c0,9.2,7.5,16.8,16.8,16.8
			c1.4,0,2.9-0.3,4.2-0.5c-0.1,0.1-0.1,0.4-0.3,0.5l307.3-0.1c0-0.1,0-0.1-0.1-0.3c1.2,0.3,2.3,0.4,3.6,0.4
			c9.2,0,16.8-7.5,16.8-16.8C1064.1,792.9,1063.7,790.8,1062.9,788.9z M832.3,540.2c1.7-6.8,3.4-13.4,5.1-20c1.6-6,6.9-10.1,13-10.1
			h81.4c6.2,0,11.6,4.2,13.1,10.1c1.7,6.8,3.2,13.3,4.9,20c2.1,8.4-4.4,16.6-13.1,16.6h-91.2C836.6,557,830.1,548.8,832.3,540.2z
			 M806.6,642.5c1.9-7.5,3.9-15.2,5.5-21.2c1.6-6,6.9-10.1,13-10.1l131.1-0.1c6.2,0,11.7,4.3,13.1,10.3c1.7,6.9,3.5,14,5.3,21.1
			c2.2,8.6-4.3,16.8-13,16.8H819.6C810.9,659.4,804.4,651.1,806.6,642.5z M986.5,761.8H794c-8.7,0-15.1-8.1-13.1-16.5
			c1.4-6.1,3.1-13.1,4.7-19.4c1.4-6.1,6.9-10.3,13.1-10.3l182.6,0.3c6,0,11.2,3.9,12.9,9.6c1.7,5.8,3.6,12.6,5.5,19.2
			C1002,753.4,995.5,761.8,986.5,761.8z"/>
	</g>
</g>
<g>
	<g>
		<path fill="#666666" d="M980.3,155l-37.1,69.2l69.2,37.1l37.1-69.2L980.3,155z M1108,193.7l23.1,12.4l-61.8,115.3l-23.1-12.4
			L1108,193.7z M969.6,119.6l115.3,61.8l-61.8,115.3l-115.3-61.8L969.6,119.6z M1169.7,78.5l23.1,12.4l-49.4,92.3l-23.1-12.4
			L1169.7,78.5z M1123.6,53.8l23.1,12.4l-49.5,92.2l-23.1-12.4L1123.6,53.8z M1077.5,29l23.1,12.4l-49.5,92.2l-23.1-12.4L1077.5,29z
			 M1031.4,4.3l23.1,12.4l-49.5,92.2l-23.1-12.4L1031.4,4.3z M1056,373.7L883,281L870.7,304l172.9,92.7c3.1,1.7,6.4,2,9.9,0.9
			c3.5-1,6.1-3.2,7.8-6.3c1.7-3.1,2-6.4,0.9-9.9C1061.2,377.9,1059.1,375.3,1056,373.7z M1216.7,74L1020.7-31.1L872.4,245.5l196,105
			c4,2.1,7.4,4.9,10.4,8.1L1222,91.6c1.7-3.1,2-6.4,0.9-9.9C1221.9,78.2,1219.8,75.6,1216.7,74z M1010-66.5l219,117.5
			c9.6,5.1,16,12.9,19.1,23.2c3.1,10.3,2.1,20.3-3.1,29.9l-160.7,299.7c-5.1,9.6-12.9,16-23.2,19.1c-10.3,3.1-20.3,2.1-29.9-3.1
			l-195.9-105l24.8-46.1L837,256.3L1010-66.5z"/>
	</g>
	<g>
		<path fill="#666666" d="M1269.5,101.9c-1.2,4.3-2.9,8.4-5.1,12.5l-14.3,26.7c27.5,16.2,53,35.8,75.9,58.7
			c34.6,34.6,61.7,74.8,80.7,119.6c19.6,46.3,29.6,95.6,29.6,146.5s-9.9,100.1-29.6,146.5c-18,42.6-43.4,81-75.5,114.4
			c-1.1-0.4-2.6-0.7-4.2-1c-3.8-0.6-6.2-1.3-7.4-2.1c-7.1-2.8-11.9-4.4-14.3-4.8c0.4-2.8-0.1-5.4-1.5-7.7s-3-4.2-4.8-5.4
			c-1.8-1.2-4.3-2.8-7.4-4.8c-3.2-2-5.4-3.4-6.5-4.2c-0.8-0.8-2.2-2-4.2-3.6s-3.4-2.7-4.2-3.3s-2.3-1.5-4.4-2.7
			c-2.2-1.2-3.9-1.6-5-1.2c-1.2,0.4-3.2,0.6-6,0.6l-1.8,0.6c-1.2,0.4-2.3,0.9-3.3,1.5c-1,0.6-2.1,1.2-3.3,1.8
			c-1.2,0.6-2,1.2-2.4,1.8c-0.4,0.6-0.4,1.1,0,1.5c-8.3-6.7-15.4-11.1-21.4-13.1c-2-0.4-4.2-1.5-6.5-3.3c-2.4-1.8-4.4-3.2-6.2-4.2
			c-1.8-1-3.8-1.3-6-0.9c-2.2,0.4-4.4,1.8-6.8,4.2c-2,2-3.2,4.9-3.6,8.9c-0.4,3.9-0.8,6.5-1.2,7.7c-2.8-2-2.8-5.5,0-10.4
			s3.2-8.6,1.2-11c-1.2-2.4-3.3-3.3-6.2-2.7c-3,0.6-5.4,1.5-7.1,2.7c-1.8,1.2-4,2.8-6.8,5c-2.8,2.2-4.5,3.4-5.4,3.9
			c-0.8,0.4-2.5,1.5-5,3.3s-4.3,3.3-5,4.4c-1.2,1.6-2.4,3.9-3.6,7.1s-2.2,5.4-3,6.5c-0.8-1.6-3.1-2.8-6.8-3.9
			c-3.3-0.9-5.2-1.8-5.6-2.8c0.8,4,1.5,10.8,2.3,20.4c0.8,9.9,1.8,17.4,3,22.6c2.8,12.2,0.4,21.8-7.1,28.5
			c-10.7,9.9-16.4,17.8-17.2,23.7c-1.6,8.7,0.8,13.8,7.1,15.4c0,2.8-1.6,6.8-4.8,12.2c-3.2,5.4-4.5,9.6-4.2,12.7
			c0,1.5,0.2,3.3,0.5,5.5c-21.4,3.8-43.3,5.6-65.4,5.6c-50.8,0-100.1-9.9-146.5-29.6c-44.8-19-85-46.1-119.6-80.7
			c-34.5-34.5-61.7-74.8-80.6-119.6c-19.6-46.3-29.6-95.6-29.6-146.5s9.9-100.1,29.6-146.5c7.7-18.2,16.7-35.6,27.1-52.2
			c2.1,1.8,3.9,2.8,5.5,3.2c1.6,0.4,2.6,2.2,3,5.4c0.4,3.2,0.9,5.4,1.5,6.5c0.6,1.2,2.8,0.6,6.8-1.8c3.6,3.2,4.2,6.9,1.8,11.3
			c0.4-0.4,9.1,4.9,26.1,16c7.4,6.8,11.6,11,12.4,12.6c1.2,4.4-0.8,7.9-6,10.7c-0.4-0.8-2.2-2.6-5.4-5.4s-4.9-3.6-5.4-2.4
			c-1.2,2-1.1,5.6,0.3,11c1.3,5,3.2,7.5,5.7,7.4c-2.5,0.4-4.2,3.6-5.1,9.5c-1,6.3-1.5,13.3-1.5,21s-0.2,12.4-0.6,13.9l1.2,0.6
			c-1.2,4.8-0.1,11.6,3.3,20.5c3.4,8.9,7.6,12.7,12.7,11.6c-5.1,1.2-1.2,9.7,11.9,25.5c2.4,3.2,3.9,4.9,4.8,5.4
			c1.2,0.8,3.6,2.3,7.1,4.4c3.6,2.2,6.5,4.2,8.9,6c2.4,1.8,4.4,3.9,6,6.2c1.6,2,3.6,6.4,6,13.3c2.4,6.9,5.1,11.6,8.3,13.9
			c-0.8,2.4,1.1,6.3,5.6,11.9c4.5,5.5,6.6,10.1,6.2,13.7c-0.4,0-0.9,0.2-1.5,0.6c-0.6,0.4-1.1,0.6-1.5,0.6c1.2,2.8,4.3,5.5,9.2,8.3
			c4.9,2.8,8,5.4,9.2,7.7c0.4,1.2,0.8,3.2,1.2,6c0.4,2.8,1,4.9,1.8,6.5c0.8,1.6,2.4,2,4.8,1.2c0.8-7.9-3.9-20.2-14.3-36.8
			c-6-9.9-9.3-15.6-10.1-17.2c-1.2-2-2.3-5-3.3-9.2c-1-4.2-1.9-7-2.7-8.6c0.8,0,2,0.3,3.6,0.9s3.3,1.3,5,2.1
			c1.7,0.8,3.3,1.6,4.4,2.4c1.2,0.8,1.6,1.4,1.2,1.8c-1.2,2.8-0.8,6.2,1.2,10.4c2,4.2,4.4,7.8,7.1,11c2.8,3.2,6.1,6.9,10.1,11.3
			c3.9,4.4,6.3,6.9,7.1,7.7c2.4,2.4,5.1,6.2,8.3,11.6c3.2,5.4,3.2,8,0,8c3.6,0,7.5,2,11.9,6c4.4,3.9,7.7,7.9,10.1,11.9
			c2,3.2,3.6,8.3,4.8,15.4c1.2,7.1,2.2,11.9,3,14.3c0.8,2.8,2.5,5.5,5,8c2.6,2.6,5,4.4,7.4,5.6l9.5,4.8l7.7,4.2
			c2,0.8,5.6,2.8,11,6.2c5.4,3.4,9.6,5.6,12.7,6.8c3.9,1.6,7.1,2.4,9.5,2.4c2.4,0,5.2-0.5,8.6-1.5c3.4-1,6-1.7,8-2.1
			c6-0.8,11.7,2.2,17.2,8.9s9.7,10.9,12.5,12.5c14.3,7.5,25.1,9.7,32.6,6.5c-0.8,0.4-0.7,1.9,0.3,4.4c1,2.6,2.6,5.6,4.8,9.2
			c2.2,3.6,3.9,6.4,5.4,8.6c1.4,2.1,2.5,3.9,3.3,5c2,2.4,5.5,5.4,10.7,8.9c5.1,3.6,8.7,6.5,10.7,8.9c2-1.4,3.3-2.8,3.9-4.5
			c0.1-0.3,0.2-0.6,0.3-0.9c-0.1,0.3-0.2,0.6-0.3,0.9c-0.7,3,0.8,6.7,4.4,11c3.9,4.8,7.5,6.7,10.7,6c5.5-1.2,8.3-7.5,8.3-19
			c-12.2,6-22,2.4-29.1-10.7c0-0.4-0.5-1.5-1.5-3.3c-1-1.8-1.8-3.4-2.4-5c-0.6-1.6-1.1-3.3-1.5-5c-0.4-1.7-0.4-3.3,0-4.4
			s1.4-1.8,3-1.8c3.6,0,5.5-0.7,6-2.1c0.4-1.4,0-3.9-1.2-7.4c-1.2-3.6-2-6.1-2.4-7.7c-0.4-3.2-2.6-7.1-6.5-11.9s-6.3-7.7-7.1-8.9
			c-2,3.6-5.1,5.1-9.5,4.8c-4.4-0.4-7.5-2.2-9.5-5.4c0,0.4-0.3,1.5-0.9,3.3s-0.9,3.1-0.9,3.9c-5.1,0-8.1-0.2-8.9-0.6
			c0.4-1.2,0.9-4.6,1.5-10.4c0.6-5.7,1.3-10.2,2.1-13.3c0.4-1.6,1.5-3.9,3.3-7.1c1.8-3.2,3.3-6,4.4-8.6c1.2-2.6,2-5,2.4-7.4
			c0.4-2.4-0.5-4.3-2.7-5.6c-2.2-1.4-5.6-1.9-10.4-1.5c-7.5,0.4-12.7,4.4-15.4,11.9c-0.4,1.2-1,3.3-1.8,6.2c-0.8,3-1.8,5.2-3,6.8
			c-1.2,1.6-3,3-5.4,4.2c-2.8,1.2-7.5,1.6-14.3,1.2c-6.7-0.4-11.5-1.4-14.3-3c-5.1-3.2-9.6-8.9-13.3-17.2c-3.8-8.3-5.6-15.6-5.6-22
			c0-3.9,0.5-9.2,1.5-15.7c1-6.6,1.6-11.5,1.8-14.8c0.2-3.4-0.9-8.2-3.3-14.5c1.2-0.8,3-2.7,5.4-5.6c2.4-3,4.4-5,6-6.2
			c0.8-0.4,1.7-0.7,2.7-0.9c1-0.2,1.9-0.2,2.7,0c0.8,0.2,1.6-0.1,2.4-0.9c0.8-0.8,1.4-2,1.8-3.6c-0.4-0.4-1.2-1-2.4-1.8
			c-0.8-0.8-1.4-1.3-1.9-1.6c-0.2-0.1-0.3-0.1-0.5-0.2c0.1,0,0.3,0.1,0.5,0.2c2.9,1,8.4,0.6,16.4-1.1c8.5-1.8,13.9-1.5,16.3,0.9
			c6,4.4,10.3,3.9,13.1-1.2c0-0.4-0.5-2.3-1.5-5.6c-1-3.4-1.1-6-0.3-8c2,10.7,7.7,12.5,17.2,5.4c1.2,1.2,4.3,2.2,9.2,3
			c4.9,0.8,8.4,1.8,10.4,3c1.2,0.8,2.6,1.9,4.2,3.3c1.6,1.4,2.7,2.3,3.3,2.7c0.6,0.4,1.6,0.3,3-0.3c1.4-0.5,3.1-1.9,5-3.9
			c3.9,5.5,6.3,10.3,7.1,14.3c4.4,15.8,8.1,24.5,11.3,26.1c2.8,1.2,4.9,1.6,6.5,1.2c1.6-0.4,2.5-2.3,2.7-5.6c0.2-3.4,0.2-6.1,0-8.3
			c-0.2-2.2-0.5-4.6-0.9-7.4l-0.6-4.8v-10.7l-0.6-4.8c-6-1.2-9.6-3.6-11-7.1s-1.1-7.2,0.9-11c2-3.8,4.9-7.4,8.9-11
			c0.4-0.4,2-1.1,4.8-2.1c2.8-1,5.8-2.3,9.2-3.9c3.4-1.6,5.8-3.2,7.4-4.8c8.3-7.5,11.3-14.4,8.9-20.8c2.8,0,4.9-1.8,6.5-5.4
			c-0.4,0-1.4-0.6-3-1.8s-3.1-2.2-4.4-3c-1.4-0.8-2.3-1.2-2.7-1.2c3.6-2,3.9-5.1,1.2-9.5c2-1.2,3.4-3.4,4.4-6.5c1-3.2,2.5-5.1,4.4-6
			c3.6,4.8,7.7,5.1,12.5,1.2c2.8-3.2,3-6.3,0.6-9.5c2-2.8,6-4.9,12.2-6.2s9.8-3.3,11-5.6c2.8,0.8,4.4,0.4,4.8-1.2s0.6-3.9,0.6-7.1
			c0-3.2,0.6-5.5,1.8-7.1c1.6-2,4.5-3.8,8.9-5.4c4.4-1.6,6.9-2.6,7.7-3l10.1-6.5c1.2-1.6,1.2-2.4,0-2.4c7.1,0.8,13.2-1.4,18.4-6.5
			c3.9-4.4,2.8-8.3-3.6-11.9c1.2-2.4,0.6-4.3-1.8-5.6s-5.4-2.5-8.9-3.3c1.2-0.4,3.4-0.5,6.8-0.3s5.5-0.1,6.2-0.9
			c6-3.9,4.5-7.1-4.2-9.5c-6.7-2-15.2,0.4-25.5,7.1c-0.8,0.4-2.7,2.3-5.6,5.6c-2.8,3.2-5.4,5-7.7,5.6c-0.1,0.1-0.2,0.1-0.4,0.1
			c0.1,0,0.2-0.1,0.4-0.1c0.7-0.3,1.5-1.2,2.3-2.9c1-2,2-4.2,3-6.5c1-2.4,1.7-3.8,2.1-4.2c2.4-2.8,6.7-5.7,13.1-8.9
			c5.5-2.4,15.8-4.8,30.9-7.1c13.4-3.2,23.6-1,30.3,6.5c-0.8-0.8,1.1-3.4,5.6-7.7c4.5-4.4,7.4-6.7,8.6-7.1c1.2-0.8,4.2-1.7,8.9-2.7
			c4.8-1,7.7-2.5,8.9-4.4l1.2-13.1c-4.8,0.4-8.2-1-10.4-4.2s-3.4-7.3-3.9-12.5c0,0.8-1.2,2.4-3.6,4.8c0-2.8-0.9-4.4-2.7-4.8
			c-1.8-0.4-4-0.2-6.8,0.6c-2.8,0.8-4.5,1-5.4,0.6c-3.9-1.2-6.9-2.7-8.9-4.4s-3.6-5-4.8-9.8s-2-7.7-2.4-8.9c-0.8-2-2.7-4-5.6-6.2
			c-3-2.2-4.9-4.3-5.6-6.2c-0.4-0.8-0.9-1.9-1.5-3.3c-0.6-1.4-1.2-2.7-1.8-3.9c-0.6-1.2-1.4-2.3-2.4-3.3c-1-1-2.1-1.5-3.3-1.5
			s-2.6,1-4.2,3c-1.6,2-3.1,3.9-4.4,6c-1.4,2-2.3,3-2.7,3c-1.2-0.8-2.4-1.1-3.6-0.9s-2.1,0.4-2.7,0.6c-0.6,0.2-1.5,0.8-2.7,1.8
			c-1.2,1-2.2,1.7-3,2.1c-1.2,0.8-2.8,1.4-5,1.8c-2.2,0.4-3.9,0.8-5,1.2c6-2,5.7-4.2-0.6-6.5c-3.9-1.6-7.1-2.2-9.5-1.8
			c3.6-1.6,5-3.9,4.4-7.1c-0.4-1.9-1.1-3.7-2.3-5.4l-110.5,206c-7.9,14.6-20.4,24.9-36.2,29.7c-5.9,1.8-11.9,2.7-17.9,2.7
			c-9.9,0-19.5-2.5-28.7-7.4L805.7,323.6l24.7-46.1l-23.1-12.4L910.3,73.3c-158.1,60.3-270.5,213.3-270.5,392.6
			c0,232,188.1,420,420,420s420-188.1,420-420C1479.8,310.3,1395.2,174.4,1269.5,101.9z"/>
	</g>
</g>
</svg>
