<?xml version="1.0" encoding="utf-8"?>
<!-- Generator: Adobe Illustrator 19.1.0, SVG Export Plug-In . SVG Version: 6.00 Build 0)  -->
<svg version="1.0" id="Layer_2" xmlns="http://www.w3.org/2000/svg" xmlns:xlink="http://www.w3.org/1999/xlink" x="0px" y="0px"
	 viewBox="290 -288.6 1539.6 1536.6" enable-background="new 290 -288.6 1539.6 1536.6" xml:space="preserve">
<g display="none" opacity="0.6">
	<g display="inline">
		<path fill="#E5FF1D" d="M1064.5,1258.1c431.6,1.1,778.7-343.8,778.5-773.6c-0.2-430-347.3-774.4-779.1-773.1
			c-428.7,1.3-771.6,342.2-773.9,769C287.7,910.8,632.5,1257,1064.5,1258.1z M1068.5,1218.9c-403-9.5-731.9-305.6-736.4-727.5
			c-4.3-405.4,300-734.7,732.1-738c416.5-3.1,735.2,320.2,737.9,733.8C1804.7,888.8,1471.3,1215.3,1068.5,1218.9z"/>
	</g>
	<path display="inline" fill="#E5FF1D" d="M1481.1,214.1c0.4-45.1-18.8-57.4-60.9-57.2c-236.8,1.2-473.6,0.3-710.4,1
		c-13.2,0-30.5-2.9-41.7,3c-31,2.1-23.7,34.4-23.8,55.9c-0.7,168.5,0.6,336.9-1,505.4c-0.4,45.1,18.8,57.4,60.9,57.2
		c236.8-1.2,473.6-0.3,710.4-1c13.2,0,30.5,2.9,41.7-3c31-2.1,23.7-34.4,23.8-55.9C1480.8,551,1479.5,382.5,1481.1,214.1z
		 M1084.7,723.5c-104.6,0-209.2-3-313.6,1.1c-58.4,2.3-73.2-19.8-72.1-74.4c3.1-143.9,1.4-287.9,0.6-431.9c0-1.9,0-3.9,0.1-5.9
		c2.7-0.1,5.3-0.2,7.8-0.2c110.7,0.8,221.4,0.4,332.1,0.4c104.6,0,209.2,3,313.6-1.1c58.4-2.3,73.2,19.8,72.1,74.4
		c-3.1,143.9-1.4,287.9-0.6,431.9c0,1.9,0,3.9-0.1,5.9c-2.7,0.1-5.3,0.2-7.8,0.2C1306.2,723.1,1195.4,723.5,1084.7,723.5z"/>
</g>
<g>
	<g>
		<path fill="#666666" d="M821.7,759.3c-9.7-3.5-19.4-7.2-29.1-10.7c-1.8,0-3.5-0.2-5.3-0.2c-2.8-2.1-2.3,0.7-2.8,1.9
			c-0.5,0.7-0.9,1.6-1.4,2.3c-10,3-19.6,7-27.7,13.9c-1.8,1.9-3.5,3.7-5.3,5.6c-2.1,0.9-2.8,1.8-0.4,3l-0.2,0.4
			c1.2,16.9,1.9,18,19.2,14.4c7.9-1.6,13.6-0.4,19.2,4.9c3.9,3.5,8.5,6.3,12.7,9.5c1.6-0.9,3.3-1.8,4.9-2.6
			C811.1,787.5,816.4,773.4,821.7,759.3z"/>
		<path fill="#666666" d="M839.5,675.3c0.4-0.4,0.7-0.9,0.9-1.2c-0.4,0.2-0.7,0.2-0.9,0.5C839.5,674.5,839.5,674.9,839.5,675.3z"/>
		<path fill="#666666" d="M840.5,674C840.5,673.8,840.5,673.8,840.5,674L840.5,674C840.5,673.8,840.7,673.8,840.5,674
			C840.5,673.8,840.5,673.8,840.5,674C840.5,673.8,840.5,673.8,840.5,674z"/>
		<path fill="#666666" d="M840.7,506.2c2.6,7.9,10,11.6,15.7,16.4c6,5.1,8.1,0.4,8.1-5.5c0.9-0.2,1.8-0.2,2.6-0.4
			c-1.8-0.9-3.5-1.8-5.3-2.5C854.8,511.6,847.8,508.8,840.7,506.2z"/>
		<path fill="#666666" d="M1369.7,599.5c0-14.3,0-28.4,0-42.6c0.2-1.8,0.5-3.5,0.7-5.3c-5.8-15-11.4-30.1-17.3-45.1l0,0
			c-0.2-1.1-0.4-2.1-0.5-3.2c1.1-7.8,2.3-15.7,3.3-23.4c0.2-0.9,0.2-1.9,0.4-2.8c3.2-3,2.5-6.7,2.3-10.4c6.2-15.9,5.6-29.9-10-40.2
			c-1.1-2.5-2.1-5.1-3.2-7.6c-0.2-5.5,1.8-11.1-2.3-16l0,0c0-5.3-0.5-10.6,0.4-15.7c2.5-13.2-4.2-19.4-16-21.8
			c-0.2-0.9-0.4-1.6-0.7-2.3c1.2-8.8-0.7-18.1,3.3-26.6l-0.4-0.4c0.2,0.2,0.4,0.4,0.4,0.4c8.1,0.5,15.3,6.2,23.8,4.9
			c9.3-2.8,10.9-6.7,1.8-12.2c-3.3-1.9-6.3-4.2-9.5-6.3c-2.5-3.5-6-5.3-10-6.2l0,0c-1.1-0.4-2.1-0.5-3.2-0.9
			c-0.2,0.5-0.4,0.9-0.5,1.4c-13.2,3.2-25.9,8.3-39.5,9.2c0.9,1.6,1.6,3.2,2.5,4.8c5.5,7.8,11.8,14.4,18.7,20.8
			c-6.9-6.3-13.2-13.2-18.7-20.8c-0.9-1.6-1.6-3.2-2.5-4.8c-4.2-2.8-4.6-8.5-4.2-11.8c1.1-17.4-10.2-22-23.4-25.7
			c-5.8-1.6-11.6-3.9-17.4-5.8l0,0c0-1.6,0-3.3,0-4.9c12.7-12,12.7-12.2,0.7-24.3c-1.8-1.9-3.7-3.7-5.5-5.6
			c-3.3-2.1-3.9-8.8-9.9-6.9c-11.3,3.7-22,29.4-17.4,41.9c-0.2,0.7-0.4,1.6-0.4,2.3c-2.5,2.5-5.6,4.6-7.2,7.4
			c-8.5,15.1-20.3,19.9-37,14.4c-6.9-2.3-14.6-2.3-21.8-3.3c0,1.1-0.2,2.1-0.2,3.2c0.4,1.1,0.7,2.3,1.1,3.3
			c-0.4-1.1-0.7-2.3-1.1-3.3c0-1.1,0.2-2.1,0.2-3.2c-1.9-3-4.4-4.9-7.9-5.6l0,0c-10.4-10.2-22.9-17.6-34.7-26.1
			c-9.9-13.2-19.7-26.4-29.8-39.6c0.2-0.9,0.4-1.8,0.5-2.6c-1.1,0-1.9-0.2-3-0.2c-12.5,0-25.2,0-37.7,0c12.5,0,25.2,0,37.7,0
			c-0.2-1.2-0.2-2.5-0.2-3.7c0,1.2,0.2,2.5,0.2,3.7c1.1,0,1.9,0.2,3,0.2c21.8-8.8,44.2-16.7,58.3-37.3c8.3-7.9,14.8-17.3,21.3-26.6
			c0.7-0.9,1.4-1.8,1.9-2.6c4.6-13.4,9-26.6,13.6-40c0-1.8,0-3.5,0-5.3c0.4-0.9,0.5-1.8,0.4-2.6c8.6-10.6,19.7-19,26.9-30.8
			c2.5-1.4,4.9-3,7.4-4.4c13.2-7,19-22,31.7-29.8c1.2-2.1,2.3-4.2,3.5-6.5c4.2-0.9,3.7-3.3,0.7-4.6c-7.2-3.3-14.8-6.2-22.4-9
			c-3.5,6.3-7.2,12.5-10.7,18.8l0,0l0,0c3.5-6.3,7.2-12.5,10.7-18.8c-8.1-6-16.2-12-24.3-18c-1.8-0.4-3.3-0.7-5.1-0.9
			c-0.9-0.5-1.6-1.1-2.5-1.6c-7.4,6.7-16,11.8-21.5,20.4c0.9,0.4,1.6,0.7,2.3,1.1c-0.7-0.4-1.6-0.7-2.3-1.1
			c-7.2,6.5-7,15.5-7.9,24.1c-0.9,1.8-1.8,3.3-2.6,5.1l0,0c0.9-1.8,1.8-3.3,2.6-5.1c-8.3-1.6-6.5-9.2-8.6-14.4
			c-2.5-6-5.8-8.5-12-5.8c-13.7,5.6-27.5,11.3-41.4,16.9c3.2,1.2,5.5,3.3,7.2,5.8c-1.8-2.5-4.1-4.4-7.2-5.8
			c-12.7,2.3-25,5.8-37.2,10.4c-2.1,0.4-4.1,1.1-4.6,3.5c-2.1,2.6-4.1,5.3-6,7.9c-7,13.6-19.6,25-15.1,42.5
			c7.8,8.1,10.4,16.6,3,26.4c-5.8,7.8-10.9,15.9-16.4,23.8l0,0c-0.7,0-1.4,0-1.9,0c-1.1,0.7-1.9,1.2-3,1.8c1.1-0.5,2.1-1.1,3-1.8
			c-5.5-4.8-9.3-16.4-19.2-5.1c-0.9,0.9-1.8,1.9-2.6,2.8l0.2-0.2c-0.9,0.9-1.8,1.9-2.6,2.8h0.2c-0.2,4.4-10,6.9-2.8,12.9
			c7.9,2.6,16,5.1,24,7.8l0,0c15.9,0,31.9,0,47.7,0.2c-2.5-1.4-4.9-2.6-7.4-3.7c2.5,1.2,4.9,2.5,7.4,3.7c0.9,0.4,1.6,0.5,2.5,0.5
			l0,0l0,0l0,0l0,0c1.9,2.6,4.1,5.1,6,7.8c-0.2,1.8-0.2,3.5-0.4,5.3c1.6,3,2.5,6,2.6,9c-0.4-3-1.1-6-2.6-9
			c-13.2,8.8-26.4,17.4-37.5,29.1c-1.8,1.8-3.5,3.3-5.5,5.1c-7.8,2.8-11.8,9.9-17.6,15c-2.1,1.9-3.7,4.9-0.4,6.2
			c12.3,4.9,6.3,14.1,5.8,22c-1.4,4.8-4.2,4.2-8.1,3c-5.3-1.6-10.6-4.8-16.6-3.2c-14.8-5.8-29.6-10.2-45.6-5.8
			c-5.1,3.9-10.2,7.6-15.3,11.4c-17.4-17.8-38-27.7-63.6-24.7c-3.2-2.6-6.9-2.3-10.7-1.8c-1.8-0.2-3.7-0.2-5.5-0.4
			c-1.8,0-3.7,0-5.5-0.2c-9,3.3-15.3,10.6-22.9,15.9c-1.9,5.8-14.1,4.9-10.2,14.3c2.8,6.7,3.9,14.4,9.3,19.9
			c8.5,6,19.6,4.9,29.6,10.9c-11.6,6.5-22,12.3-32.6,18.1c-8.3,2.6-16.2,6.3-23.3,11.4c0.4,0.9,0.5,1.4,0.9,1.6
			c18.8,18.7,39.3,28.9,65,13c0.9,0.2,1.8,0.4,2.8,0.5c-2.6-15.1-5.3-30.1-7.9-45.3l0,0c2.6,15.1,5.3,30.1,7.9,45.3
			c4.2,8.1,8.5,16,12.7,24.1c0,0.7,0,1.4-0.2,2.1c-0.7,0-1.2,0.2-1.8,0.5c-0.9,2.8-1.9,5.5-3,8.3c1.1-2.6,2.1-5.5,3-8.3
			c-2.6,0-5.3,0.2-7.9,0.2c-9.9,1.6-21.7-5.6-29.4,6.2c-12.7,7.2-13,18.3-9.9,30.6c-0.4,1.8-0.5,3.5-0.9,5.3
			c-37.2,14.1-37.3,14.3-15.1,45.6c1.9,2.8,4.6,5.3,6.9,7.8c6.2,7.4,13.2,13.9,21.7,18.8c0,0.7,0.2,1.4,0.4,2.1l0,0
			c7,2.6,14.1,5.5,21.3,8.1c1.8,0.9,3.5,1.8,5.3,2.5l0.2,0.2c4.4,0.9,7.9,0.5,11.1-0.7c-3.2,1.2-6.9,1.6-11.1,0.7
			c1.8,1.8,3.5,3.5,5.3,5.3c12.3,2.8,24.7,5.5,35.2,13c0.5,0,0.9-0.2,1.4-0.4c-0.4,0.2-0.9,0.2-1.4,0.4c-0.2,8.1-0.4,16.2-0.5,24.3
			c-0.5,2.5-1.1,4.9-1.6,7.4c0.4,7.2,0.7,14.4,1.2,21.7c-1.2,0-2.3,0-3.3,0c1.1,0,2.3,0,3.3,0c-0.4-7.2-0.7-14.4-1.2-21.7
			c-7,5.5-9.2,13.9-12.5,21.7c0.2,0.9,0.2,1.8,0.4,2.6c-0.4,3,0.2,6-2.1,8.5c-0.4,6.7-0.5,13.4-0.9,20.1
			c-17.3,17.4-34.3,34.9-50,53.7c15.5,0.4,30.3-4.2,45.1-7.9c11.4,0.7,22.7,0.2,34.2-1.4c6.3,3.5,9.5-1.8,13.4-4.9
			c8.3-6.9,13.9-16.9,24.5-21.1c1.6,1.2,3.2,2.5,4.6,3.7c4.6,4.4,9.2,8.8,13.7,13.2c2.6-1.9,5.5-3.7,8.1-5.6
			c3.7-4.8,8.5-8.3,13.4-11.3c-4.9,3-9.7,6.5-13.4,11.3c-2.6,1.9-5.5,3.7-8.1,5.6c2.6,7.9-5.1,5.8-7.9,7c-16.4,7-34.9,8.6-50.6,18
			c-0.2,0.5-0.2,1.1,0.2,1.4l0,0l0,0c-0.4-0.5-0.4-0.9-0.2-1.4H918c-1.6,0-3.3-0.2-4.9-0.2c-25.4-4.6-45.8,0.9-64.8,21
			c-13.2,14.1-14.3,26.6-10.2,42.5c3.7,4.2,7.6,8.5,11.3,12.7c-8.5,5.6-18,1.1-26.8,3c-5.3,14.1-10.6,28.2-15.9,42.3
			c-1.6,0.9-3.3,1.8-4.9,2.6c0,1.8-0.2,3.3-0.2,5.1c-8.8,4.8-17.6,9.5-26.2,14.3c-11.1,6.7-2.8,18.7-7.6,27.5
			c-3.5,6.3,0.9,11.6,6.9,14.8c5.5,2.6,10.9,5.1,16.4,7.6c0.9,0.9,1.8,1.6,2.8,2.5c1.2-5.5,2.3-10.9,3.3-16.6
			c-1.1,5.5-2.1,11.1-3.3,16.6c14.3,0.2,28-5.1,42.5-2.5c-7.6,9.3-18.5,15-29.2,23.6c15.9,5.8,29.8,10.9,43.9,16
			c-2.3,5.6-4.4,11.3-6.7,16.7c-1.6,3.7-1.9,6.2,3.3,7.4c13.9,3.3,27.7,7.4,41.6,11.1c5.8,4.8,10.9,0,15.7-1.9
			c13.7-5.5,27.1-11.6,40.7-17.6c3.5-0.5,7-1.2,10.7-1.8c2.5-0.2,4.9-0.5,7.4-0.7c3.2,0.2,6.5,0.7,8.6-2.6
			c24.3-4.2,43.3-19.4,63.8-31.7c24.7-12.9,47.6-28.2,69.2-45.6c1.2-8.5,4.9-15.9,9.2-22.7c-4.2,7-7.9,14.3-9.2,22.7
			c11.1-4.9,22.4-10,32.1-17.6c15-13.7,29.9-27.5,45.1-41l0,0c13.7-3,27.7-5.6,41.7-4.8c6.2,0.4,12.5,0.5,16.7-5.3
			c2.6-0.2,5.3-0.2,7.9-0.4c3,0.4,5.5-0.2,8.3-2.1c8.8-5.8,18-11.6,29.2-5.1c2.3,2.8,5.5,2.3,8.6,2.1c2.5,0.2,4.8,0.5,7.2,0.7
			c8.8-1.2,16.7,9.9,25.9,1.8c9.3-13.2,3.2-22.7-7.4-31.4c-0.2-0.9-0.4-1.9-0.4-2.8c17.6-21.7,25.2-47,27.1-74.3h-0.7l0,0h0.7
			c6.7-13.9,10-29.2,18.1-42.6c-0.7-7.8,6.5-13.4,5.6-21.3C1369.9,601.1,1369.9,600.2,1369.7,599.5z M1329.2,335.5
			c0,0,0.2,0.2,0.4,0.4L1329.2,335.5L1329.2,335.5z M1205,43.6c0.9,1.8,1.8,3.5,2.6,5.3c0.9,0,1.8,0,2.6,0c-0.9,0-1.8,0-2.6,0
			C1206.7,47.1,1205.9,45.4,1205,43.6c-1.1-5.8-3.2-11.3-5.8-16.6C1201.6,32.3,1203.9,37.8,1205,43.6z M1159.7,62.3
			c3.3,1.1,6.7,2.5,9.9,3.9C1166.4,64.7,1163.1,63.3,1159.7,62.3L1159.7,62.3z M1157.1,62.3c-7.9,14.3-16,28.4-24,42.6l0,0
			C1141,90.6,1149,76.5,1157.1,62.3z M1130.3,152.6c4.8,1.9,9.9,2.6,14.8,4.1C1140.3,155.3,1135.1,154.4,1130.3,152.6L1130.3,152.6z
			 M1101.2,176.4c6.5,1.9,13.2,3.3,19.4,5.8C1114.4,179.9,1107.8,178.5,1101.2,176.4c-3.3-7-9.9-10.6-16-13.9
			C1091.4,166,1097.9,169.4,1101.2,176.4z M1082.6,107.5c0-1.8,0-3.5,0-5.3C1082.6,104,1082.6,105.8,1082.6,107.5
			c-1.8,0.9-3.5,1.8-5.3,2.6C1079,109.3,1080.8,108.4,1082.6,107.5z M1074.5,150c0,1.4,0,2.6,0,4.1
			C1074.6,152.6,1074.6,151.4,1074.5,150L1074.5,150z M1074.6,155.3c-0.9,0-1.8,0-2.6,0c-2.6,0.5-5.3,0.9-7.9,1.4
			c2.6-0.5,5.3-0.9,7.9-1.4C1072.9,155.3,1073.8,155.3,1074.6,155.3L1074.6,155.3c1.6,1.6,3.2,2.8,4.9,3.9
			C1077.8,158.1,1076,156.9,1074.6,155.3z M882.3,514.3c1.4-1.1,2.8-2.1,4.1-3.5C885.1,512.1,883.7,513.2,882.3,514.3z M898.5,589.5
			c1.6-0.4,3.3-0.5,5.1-0.7C901.8,588.8,900.1,588.9,898.5,589.5z M920.3,325.6L920.3,325.6c-1.8,0-3.5,0-5.3,0
			C916.8,325.6,918.6,325.6,920.3,325.6z M920.3,325.6c0,3.5,0,7,0,10.6l0,0C920.3,332.7,920.3,329.1,920.3,325.6z M914.7,479.9
			L914.7,479.9c0.4-0.2,0.7-0.4,1.1-0.5C915.6,479.6,915.2,479.7,914.7,479.9z M917.9,522.2c0.7,0.2,1.6,0.4,2.3,0.5
			c0.7,0,1.6-0.4,2.1-0.2c-0.5,0-1.4,0.2-2.1,0.2l0,0C919.5,522.4,918.7,522.4,917.9,522.2c0.5-8.1-0.4-16.2-1.4-24.3
			C917.5,506,918.6,513.9,917.9,522.2z M923,588.9c-2.1-0.7-4.2,0.4-6.3,0.7C918.7,589.1,920.9,588.2,923,588.9L923,588.9z
			 M954.9,516.7c1.2,1.1,1.9,2.5,2.5,3.9C956.6,519.2,955.9,517.8,954.9,516.7c-7.6-7.8-14.8-15.7-22.4-23.4
			C939.9,501,947.3,509,954.9,516.7z M931.1,288.1L931.1,288.1c-0.7,2.8-1.4,5.6-1.9,8.5C929.7,293.7,930.2,290.9,931.1,288.1z
			 M927.7,631.4c7.2,1.4,14.4,2.5,22,2.6l0,0C942.2,633.9,934.8,632.8,927.7,631.4z M955,634c1.8-13.2,3.3-26.4,5.1-39.8
			c-2.8-0.5-6,0.4-8.8-0.4c2.8,0.5,6-0.2,8.8,0.4C958.4,607.4,956.6,620.6,955,634z M964.5,566.7c0.9-8.5,0.9-16.9,0.7-25.5
			c-3.5,0-7-0.2-10.6-0.2l0,0c3.5,0,7,0.2,10.6,0.2C965.4,549.7,965.6,558.3,964.5,566.7z M837.9,777.6c-4.1,2.5-7.8,5.5-11.3,8.6
			C830.1,783.1,833.8,780.1,837.9,777.6c0.5-0.9,0.9-1.8,1.4-2.5C838.8,775.8,838.4,776.7,837.9,777.6z M843.2,793.4
			c-0.7-0.7-1.4-1.2-2.1-1.8C841.8,792.2,842.5,792.7,843.2,793.4L843.2,793.4z M845.8,769.5L845.8,769.5L845.8,769.5
			c0-1.6,0.4-3.2,1.4-4.4C846.2,766.3,845.8,767.9,845.8,769.5z M931.1,785.5c0.7-0.5,1.6-1.2,2.3-1.8
			C932.7,784.3,931.8,784.8,931.1,785.5L931.1,785.5z M923.2,769.3c0.5-0.7,1.1-1.4,1.4-2.1C924,767.9,923.7,768.6,923.2,769.3
			c-4.4,0.2-6-2.6-7.2-5.6C917.2,766.7,918.7,769.3,923.2,769.3z M915.2,785.3c3.5,0,6.9,0,10.4,0
			C922.1,785.3,918.7,785.3,915.2,785.3c-0.4-0.9-0.4-2.3-0.7-3.2C914.9,783.1,915,784.5,915.2,785.3z M883.2,719.1L883.2,719.1
			c1.6-1.8,3.2-3.5,4.8-5.3C886.3,715.6,884.8,717.4,883.2,719.1c-4.4,5.6-8.8,11.3-13.2,17.1C874.4,730.4,878.8,724.7,883.2,719.1z
			 M864.3,849.6c-1.8,0-3.3-0.2-5.1-0.2c0-0.9-0.2-1.8-0.2-2.8l0,0c0,0.9,0.2,1.8,0.2,2.8C861,849.5,862.7,849.5,864.3,849.6
			c-0.4,7,2.6,12.5,6.3,17.4C867,862.1,864,856.7,864.3,849.6z M870.3,849.3c1.8-0.2,3.5-0.9,4.9-2.6l0,0
			C873.8,848.4,872.2,849.1,870.3,849.3z M882.8,881.3L882.8,881.3c18.1,0,36.3,0.2,54.3-0.4C919.1,881.7,901,881.3,882.8,881.3z
			 M928.3,788.2L928.3,788.2L928.3,788.2c3.2,6.2,6.5,12.2,9.5,18.3C934.8,800.3,931.4,794.3,928.3,788.2z M1194.9,378.1
			c7.9-7.9,17.3-11.8,28.4-11.8c11.1,0,20.6,3.9,28.4,11.8c7.8,7.9,11.8,17.3,11.8,28.4s-3.9,20.6-11.8,28.4s-17.3,11.8-28.4,11.8
			c-11.1,0-20.6-3.9-28.4-11.8c-7.9-7.9-11.8-17.3-11.8-28.4C1183.1,395.4,1187.2,385.8,1194.9,378.1z M1154.3,384.1
			c0,1.8,0,3.5,0,5.1c0,0.9,0,1.9,0,2.8c0-0.9,0-1.9,0-2.8C1154.3,387.6,1154.3,385.8,1154.3,384.1z M1061.2,283c0.9,0,1.8,0,2.6,0
			C1063,283,1062.1,283,1061.2,283c0,0-0.2,0-0.4,0C1061.1,283,1061.2,283,1061.2,283z M1014,378.1c7.9-7.9,17.3-11.8,28.4-11.8
			c8.1,0,15.1,2.1,21.5,6.2c0-24.3,0-48.4-0.2-72.7c0,24.3,0,48.4,0.2,72.7c2.5,1.6,4.8,3.3,6.9,5.6c7.9,7.9,11.8,17.3,11.8,28.4
			s-3.9,20.6-11.8,28.4c-7.9,7.8-17.3,11.8-28.4,11.8c-11.1,0-20.6-3.9-28.4-11.8c-7.8-7.9-11.8-17.3-11.8-28.4
			C1002.2,395.4,1006.3,385.8,1014,378.1z M1001.7,446.6c0.7,0,2.8,1.1,6.9,3.3c3.9,2.1,9,4.4,15.3,6.7s12.5,3.3,18.7,3.3
			c7,0,13.9-1.2,21-3.7c-0.5,3.9-0.7,7.4-0.7,10.4c0,14.6,4.2,28,12.7,40.2c-11.8,0.4-22,3.7-30.8,10c-3.9,2.8-7.4,6.2-10.7,10h-21
			c-8.6,0-15.9-2.1-21.7-6.3c-5.8-4.2-8.8-10.4-8.8-18.7C982.2,465.1,988.7,446.6,1001.7,446.6z M1052.3,517.1
			c-0.5-0.2-1.1-0.2-1.6-0.2c0-0.5,0-0.9,0-1.4c0,0.5,0,0.9,0,1.4C1051.2,517.1,1051.7,517.1,1052.3,517.1z M981.5,341.5
			L981.5,341.5c1.8,0.9,3.5,1.8,5.5,2.6C985,343.2,983.2,342.3,981.5,341.5z M981.5,336.2c0,0.9,0,1.8,0,2.6
			C981.5,337.9,981.5,337.1,981.5,336.2c-1.4-0.7-2.8-1.4-4.2-2.1C978.6,334.8,980,335.5,981.5,336.2z M978.8,578.7
			c0-9.2,0-18.1,0.2-27.3l0,0C978.8,560.6,978.8,569.7,978.8,578.7z M986.7,538c-0.9,0-1.6,0-2.5,0.2c0,4.4,0,8.8,0,13.4
			c0,9.7,0.2,19.4,0.2,29.1c0-9.7,0-19.4-0.2-29.1c-1.8,0-3.5,0-5.3,0c1.8,0,3.5,0,5.3,0c0-4.4,0-8.8,0-13.4
			C985,538.2,985.9,538.2,986.7,538L986.7,538c5.8,0.4,11.6,0.9,17.4,0.9C998.2,539.1,992.6,538.4,986.7,538z M951,791.9
			c19.7,6.5,39.5,13.4,59.7,18c0,1.1,0.2,2.1,0.2,3.2c0-1.1-0.2-2.1-0.2-3.2C990.3,805.1,970.7,798.4,951,791.9z M960.1,878.7
			c-0.5,0.4-1.1,0.7-1.6,1.1C959.1,879.4,959.6,879.1,960.1,878.7c2.6,0.9,5.5,1.8,8.1,2.5C965.6,880.3,963,879.6,960.1,878.7z
			 M968.4,888.6c1.6-1.6,3.3-3.2,5.1-4.6C971.8,885.4,970,887,968.4,888.6z M1005.1,887.9c4.6,1.1,9.2,2.1,13.9,2.8
			C1014.2,890,1009.6,888.9,1005.1,887.9z M1177.3,713.8c7.8-6.9,15.5-13.9,23.3-21C1192.8,699.9,1185.1,706.8,1177.3,713.8z
			 M1232.3,527.1c-8.1-9.5-17.8-15.7-29.2-18.5c-2.6,3-5.3,5.8-7.9,8.8c4.2,0.5,8.1,1.4,11.6,2.8c5.3,2.1,9.7,4.9,13.4,8.5
			c3.7,3.5,6.9,7.8,9.7,12.7c2.8,4.9,5.1,10,6.7,15.3c1.8,5.3,3,10.9,4.2,17.1c1.1,6.2,1.8,11.8,2.1,17.1c0.4,5.3,0.5,10.7,0.5,16.2
			c0,12.5-3.9,22.5-11.4,29.8c-7.6,7.2-17.8,10.9-30.5,10.9h-137.2c-12.7,0-22.9-3.7-30.5-10.9c-7.6-7.2-11.4-17.3-11.4-29.8
			c0-5.6,0.2-10.9,0.5-16.2c0.4-5.3,1.1-10.9,2.1-17.1c1.1-6.2,2.5-11.8,4.2-17.1s3.9-10.4,6.7-15.3c2.8-4.9,6-9.2,9.7-12.7
			c0.5-0.5,1.2-1.1,1.9-1.6c-0.5-1.6-1.2-3.2-2.3-4.8c0-1.8-0.2-3.5-0.2-5.1c0,1.8,0.2,3.5,0.2,5.1c1.1,1.4,1.9,3,2.3,4.8
			c3.3-2.8,7-4.9,11.4-6.7c0.4-0.2,0.7-0.2,0.9-0.4c-1.4,0-2.8-0.2-4.2-0.2c-0.4-0.7-0.9-1.2-1.4-1.6c0.5,0.4,1.1,0.9,1.4,1.6
			c1.4,0,2.8,0.2,4.2,0.2c5.1-1.9,10.6-2.8,16.6-2.8c1.1,0,3.3,1.1,6.7,3.3c3.5,2.3,7.2,4.8,11.4,7.6c4.2,2.8,9.9,5.3,16.7,7.6
			s14.1,3.3,21.1,3.3c4.8,0,9.5-0.5,14.1-1.6c-1.4-3.7-3-7.4-4.4-10.9c-3.2,0.5-6.3,0.7-9.7,0.7c-16.7,0-30.8-5.8-42.6-17.6
			c-11.8-11.8-17.6-26.1-17.6-42.6c0-13.7,4.1-25.7,12-36.1c1.8-2.3,3.5-4.4,5.6-6.5c11.8-11.8,26.1-17.6,42.6-17.6
			s30.8,5.8,42.6,17.6c11.8,11.8,17.6,26.1,17.6,42.6c0,16.6-5.8,30.8-17.6,42.6c-9.3,9.3-20.4,15-32.9,16.9c1.4,3.7,3,7.4,4.4,10.9
			c2.3-0.5,4.8-1.1,7-1.9c7-2.3,12.7-4.8,16.7-7.6c4.2-2.8,7.9-5.3,11.4-7.6c3.5-2.3,5.6-3.3,6.7-3.3c1.9,0,3.9,0.2,5.8,0.4
			c2.6-3,5.3-5.8,7.9-8.8c-3.9-0.9-8.1-1.4-12.3-1.6c8.5-12.3,12.7-25.7,12.7-40.2c0-3-0.2-6.5-0.7-10.4c6.9,2.5,13.9,3.7,21,3.7
			c6.2,0,12.3-1.1,18.7-3.3c6.3-2.3,11.4-4.4,15.3-6.7c3.9-2.1,6.2-3.3,6.9-3.3c13,0,19.6,18.5,19.6,55.5c0,8.1-3,14.4-8.8,18.7
			c-3.3,2.5-7.2,4.1-11.4,5.1c0,16.9-0.2,33.8,0,50.7c-0.2-16.9,0-33.8,0-50.7c-3.2,0.7-6.5,1.2-10.2,1.2h-20.4V527.1z
			 M1252.4,585.9c4.4,3.3,9,6.5,13.6,9.7C1261.3,592.5,1256.9,589.1,1252.4,585.9L1252.4,585.9z M1255.4,628.6
			C1255.4,628.6,1255.4,628.8,1255.4,628.6L1255.4,628.6c0.2-0.4,0.4-0.7,0.5-1.1C1255.7,628,1255.5,628.2,1255.4,628.6z
			 M1274.4,628.8c-0.7,6.5-6.3,8.1-10.9,10.6c-0.2,2.5-1.2,4.1-3.2,4.8c1.9-0.7,3-2.3,3.2-4.8C1268,636.9,1273.7,635.3,1274.4,628.8
			c3.5-0.4,6.7-0.2,9.9,1.1C1281.1,628.8,1277.7,628.4,1274.4,628.8z M1292.7,610.1c-0.9,0-1.6,0-2.5,0.2
			C1291.1,610.1,1291.8,610.1,1292.7,610.1L1292.7,610.1z M1290.1,541c-1.6,1.9-2.8,4.4-4.8,6.5C1287.2,545.4,1288.5,543,1290.1,541
			c3.7-1.2,7.6-3.3,10.9-3.2C1297.6,537.7,1293.8,539.8,1290.1,541z M1308.6,543.5c-0.9,1.6-1.8,3.3-2.6,4.9
			C1306.8,546.8,1307.7,545.3,1308.6,543.5c-0.9-1.8-1.9-3-3-3.9C1306.6,540.5,1307.7,541.7,1308.6,543.5z M1306.1,551.6
			c-1.1,4.9-2.1,9.9-3.2,15.1C1304,561.5,1305,556.5,1306.1,551.6c1.8,0.9,3.5,1.6,5.3,2.5C1309.6,553.4,1307.9,552.5,1306.1,551.6z
			 M1343.3,418.6c-1.8-0.4-3.5-0.7-5.3-1.1C1339.7,417.7,1341.5,418.1,1343.3,418.6L1343.3,418.6z"/>
	</g>
</g>
</svg>
