<?xml version="1.0" encoding="utf-8"?>
<!-- Generator: Adobe Illustrator 19.1.0, SVG Export Plug-In . SVG Version: 6.00 Build 0)  -->
<svg version="1.0" id="Layer_2" xmlns="http://www.w3.org/2000/svg" xmlns:xlink="http://www.w3.org/1999/xlink" x="0px" y="0px"
	 viewBox="290 -288.6 1539.6 1536.6" enable-background="new 290 -288.6 1539.6 1536.6" xml:space="preserve">
<g display="none" opacity="0.6">
	<g display="inline">
		<path fill="#E5FF1D" d="M1064.5,1258.1c431.6,1.1,778.7-343.8,778.5-773.6c-0.2-430-347.3-774.4-779.1-773.1
			c-428.7,1.3-771.6,342.2-773.9,769C287.7,910.8,632.5,1257,1064.5,1258.1z M1068.5,1218.9c-403-9.5-731.9-305.6-736.4-727.5
			c-4.3-405.4,300-734.7,732.1-738c416.5-3.1,735.2,320.2,737.9,733.8C1804.7,888.8,1471.3,1215.3,1068.5,1218.9z"/>
	</g>
	<path display="inline" fill="#E5FF1D" d="M1481.1,214.1c0.4-45.1-18.8-57.4-60.9-57.2c-236.8,1.2-473.6,0.3-710.4,1
		c-13.2,0-30.5-2.9-41.7,3c-31,2.1-23.7,34.4-23.8,55.9c-0.7,168.5,0.6,336.9-1,505.4c-0.4,45.1,18.8,57.4,60.9,57.2
		c236.8-1.2,473.6-0.3,710.4-1c13.2,0,30.5,2.9,41.7-3c31-2.1,23.7-34.4,23.8-55.9C1480.8,551,1479.5,382.5,1481.1,214.1z
		 M1084.7,723.5c-104.6,0-209.2-3-313.6,1.1c-58.4,2.3-73.2-19.8-72.1-74.4c3.1-143.9,1.4-287.9,0.6-431.9c0-1.9,0-3.9,0.1-5.9
		c2.7-0.1,5.3-0.2,7.8-0.2c110.7,0.8,221.4,0.4,332.1,0.4c104.6,0,209.2,3,313.6-1.1c58.4-2.3,73.2,19.8,72.1,74.4
		c-3.1,143.9-1.4,287.9-0.6,431.9c0,1.9,0,3.9-0.1,5.9c-2.7,0.1-5.3,0.2-7.8,0.2C1306.2,723.1,1195.4,723.5,1084.7,723.5z"/>
</g>
<g>
	<g>
		<g>
			<g>
				<path fill="#666666" d="M945.7,491.4c33,33,72.6,49.4,119.3,49.4c46.5,0,86.3-16.4,119.3-49.4c33-33,49.4-72.6,49.4-119.3
					s-16.4-86.3-49.4-119.3c-33-33-72.6-49.4-119.3-49.4c-46.5,0-86.3,16.4-119.3,49.4s-49.4,72.6-49.4,119.3
					S912.7,458.4,945.7,491.4z"/>
				<path fill="#666666" d="M812,315.9c31,0,57.5-11,79.5-33c21.9-21.9,33-48.5,33-79.5s-11-57.5-33-79.5S843,91,812,91
					s-57.5,11-79.5,33c-21.9,21.9-33,48.5-33,79.5s11,57.5,33,79.5C754.4,304.9,780.8,315.9,812,315.9z"/>
				<path fill="#666666" d="M1318,315.9c31,0,57.5-11,79.5-33c21.9-21.9,33-48.5,33-79.5s-11-57.5-33-79.5
					c-21.9-21.9-48.5-33-79.5-33c-31,0-57.5,11-79.5,33c-21.9,21.9-33,48.5-33,79.5s11,57.5,33,79.5
					C1260.4,304.9,1287,315.9,1318,315.9z"/>
				<path fill="#666666" d="M1432.3,315.9c-1.7,0-8.1,3-19,9.2s-25.2,12.3-42.8,18.7s-35.1,9.5-52.3,9.5c-19.6,0-39.1-3.4-58.5-10.1
					c1.4,10.9,2.2,20.5,2.2,29c0,40.7-11.8,78.2-35.6,112.4c47.4,1.4,86.2,20.2,116.4,56.2h58.9c24,0,44.3-5.9,60.7-17.7
					c16.4-11.8,24.6-29.2,24.6-52C1486.6,367.5,1468.5,315.9,1432.3,315.9z"/>
				<path fill="#666666" d="M903.8,484.6c-23.8-34.3-35.6-71.7-35.6-112.4c0-8.5,0.8-18.1,2.2-29c-19.3,6.7-38.8,10.1-58.5,10.1
					c-17.2,0-34.7-3.2-52.3-9.5s-31.8-12.5-42.8-18.7s-17.3-9.2-19-9.2c-36.4,0-54.5,51.8-54.5,155.1c0,22.9,8.3,40.2,24.6,52
					c16.4,11.8,36.7,17.7,60.7,17.7h58.9C817.5,504.8,856.2,486,903.8,484.6z"/>
			</g>
			<g>
				<path fill="#666666" d="M1372.7,718.9c-1.1-14.8-3-30.7-6.2-47.9c-3.2-17.2-7-33-11.7-47.7c-4.7-14.6-11-28.9-18.9-42.8
					c-7.9-13.9-16.9-25.7-27.2-35.6c-10.2-9.9-22.7-17.6-37.6-23.5c-14.8-5.8-31.1-8.8-49-8.8c-2.9,0-9.2,3.2-18.9,9.5
					c-9.7,6.3-20.4,13.3-32.1,21.1c-11.7,7.8-27.3,14.8-47,21.1c-19.7,6.3-39.4,9.5-59.2,9.5c-19.8,0-39.7-3.2-59.2-9.5
					c-19.6-6.3-35.3-13.3-47-21.1c-11.7-7.8-22.5-14.8-32.1-21.1c-9.7-6.3-15.9-9.5-18.9-9.5c-17.9,0-34.2,2.9-49,8.8
					c-14.8,5.8-27.3,13.7-37.6,23.5c-10.2,9.9-19.3,21.7-27.2,35.6c-7.9,13.9-14.2,28.2-18.9,42.8c-4.7,14.6-8.5,30.5-11.7,47.7
					c-3,17.1-5.1,33.1-6.2,47.9c-1.1,14.8-1.6,30-1.6,45.5c0,35.2,10.6,62.9,32.1,83.3s49.8,30.5,85.3,30.5h384
					c35.5,0,63.8-10.2,85.3-30.5c21.4-20.4,32.1-48.1,32.1-83.3C1374.2,748.9,1373.7,733.8,1372.7,718.9z M1174.8,707.4
					c-1.2,55.4-43.5,103.3-103.4,116.9c-46.9,10.6-95.8-13.1-117.8-57.5c-25.7-52.2-1.8-122,63.6-132.9
					c43.9-7.2,86.8,27.2,87.1,71.7c0.1,15.1-4.3,28.5-19.6,34.8c-16.9,7.1-34.8,8.1-52,0.9c-6.6-2.8-9.3-9.9-7.2-17.2
					c2.9-9.9,10-14.1,20.1-14.7c8.1-0.5,20.8,5.6,23.1-5.1c2.9-13.3-6.3-24.3-18.3-30.6c-17.5-9.3-35.2-6.8-50.7,4.6
					c-16.8,12.3-25,29.8-21.9,50.8c5.4,37.8,34.5,62,73,61.7c47.7-0.4,83.5-33.8,90.4-85.5c1.6-12.3,3-23.4,18.1-22.7
					C1175.2,683.3,1175,695.7,1174.8,707.4z M1157.4,637.6c-12.9-2-25.1-7.6-26-25.2c-0.9-18.5,9.9-30.9,26.9-30.5
					c16.4,0.4,26.5,9.6,28,26C1187.8,624.1,1175.3,637.2,1157.4,637.6z"/>
			</g>
		</g>
	</g>
</g>
</svg>
