<?xml version="1.0" encoding="utf-8"?>
<!-- Generator: Adobe Illustrator 19.1.0, SVG Export Plug-In . SVG Version: 6.00 Build 0)  -->
<svg version="1.0" id="Layer_2" xmlns="http://www.w3.org/2000/svg" xmlns:xlink="http://www.w3.org/1999/xlink" x="0px" y="0px"
	 viewBox="290 -288.6 1539.6 1536.6" enable-background="new 290 -288.6 1539.6 1536.6" xml:space="preserve">
<g display="none" opacity="0.6">
	<g display="inline">
		<path fill="#E5FF1D" d="M1064.5,1258.1c431.6,1.1,778.7-343.8,778.5-773.6c-0.2-430-347.3-774.4-779.1-773.1
			c-428.7,1.3-771.6,342.2-773.9,769C287.7,910.8,632.5,1257,1064.5,1258.1z M1068.5,1218.9c-403-9.5-731.9-305.6-736.4-727.5
			c-4.3-405.4,300-734.7,732.1-738c416.5-3.1,735.2,320.2,737.9,733.8C1804.7,888.8,1471.3,1215.3,1068.5,1218.9z"/>
	</g>
	<path display="inline" fill="#E5FF1D" d="M1481.1,214.1c0.4-45.1-18.8-57.4-60.9-57.2c-236.8,1.2-473.6,0.3-710.4,1
		c-13.2,0-30.5-2.9-41.7,3c-31,2.1-23.7,34.4-23.8,55.9c-0.7,168.5,0.6,336.9-1,505.4c-0.4,45.1,18.8,57.4,60.9,57.2
		c236.8-1.2,473.6-0.3,710.4-1c13.2,0,30.5,2.9,41.7-3c31-2.1,23.7-34.4,23.8-55.9C1480.8,551,1479.5,382.5,1481.1,214.1z
		 M1084.7,723.5c-104.6,0-209.2-3-313.6,1.1c-58.4,2.3-73.2-19.8-72.1-74.4c3.1-143.9,1.4-287.9,0.6-431.9c0-1.9,0-3.9,0.1-5.9
		c2.7-0.1,5.3-0.2,7.8-0.2c110.7,0.8,221.4,0.4,332.1,0.4c104.6,0,209.2,3,313.6-1.1c58.4-2.3,73.2,19.8,72.1,74.4
		c-3.1,143.9-1.4,287.9-0.6,431.9c0,1.9,0,3.9-0.1,5.9c-2.7,0.1-5.3,0.2-7.8,0.2C1306.2,723.1,1195.4,723.5,1084.7,723.5z"/>
</g>
<g>
	<g id="Layer_1_2_">
		<path display="none" d="M1790.6-127.7c139.3,0,267.8,34.3,385.5,103s210.8,161.8,279.5,279.5s103,246.2,103,385.5
			s-34.3,267.8-103,385.5c-68.7,117.7-161.8,210.8-279.5,279.5c-117.7,68.7-246.2,103-385.5,103s-267.8-34.3-385.5-103
			c-117.7-68.7-210.8-161.8-279.5-279.5c-68.7-117.7-103-246.2-103-385.5s34.3-267.8,103-385.5S1287.4,44,1405.1-24.7
			S1651.3-127.7,1790.6-127.7z M2064.6,393.3c-1.3,0.7-4.5,3.8-9.5,9.5s-9.5,8.8-13.5,9.5c1.3,0,2.8-1.7,4.5-5s3.3-7,5-11
			s2.8-6.3,3.5-7c4-4.7,11.3-9.7,22-15c9.3-4,26.7-8,52-12c22.7-5.3,39.7-1.7,51,11c-1.3-1.3,1.8-5.7,9.5-13s12.5-11.3,14.5-12
			c2-1.3,7-2.8,15-4.5s13-4.2,15-7.5l2-22c-8,0.7-13.8-1.7-17.5-7s-5.8-12.3-6.5-21c0,1.3-2,4-6,8c0-4.7-1.5-7.3-4.5-8
			s-6.8-0.3-11.5,1s-7.7,1.7-9,1c-6.7-2-11.7-4.5-15-7.5s-6-8.5-8-16.5s-3.3-13-4-15c-1.3-3.3-4.5-6.8-9.5-10.5s-8.2-7.2-9.5-10.5
			c-0.7-1.3-1.5-3.2-2.5-5.5s-2-4.5-3-6.5s-2.3-3.8-4-5.5s-3.5-2.5-5.5-2.5s-4.3,1.7-7,5s-5.2,6.7-7.5,10s-3.8,5-4.5,5
			c-2-1.3-4-1.8-6-1.5s-3.5,0.7-4.5,1s-2.5,1.3-4.5,3s-3.7,2.8-5,3.5c-2,1.3-4.8,2.3-8.5,3s-6.5,1.3-8.5,2c10-3.3,9.7-7-1-11
			c-6.7-2.7-12-3.7-16-3c6-2.7,8.5-6.7,7.5-12s-3.8-10-8.5-14h5c-0.7-2.7-3.5-5.5-8.5-8.5s-10.8-5.8-17.5-8.5s-11-4.7-13-6
			c-5.3-3.3-16.7-6.5-34-9.5s-28.3-3.2-33-0.5c-3.3,4-4.8,7.5-4.5,10.5s1.7,7.7,4,14s3.5,10.5,3.5,12.5c0.7,4-1.2,8.3-5.5,13
			s-6.5,8.7-6.5,12c0,4.7,4.7,9.8,14,15.5s12.7,12.8,10,21.5c-2,5.3-7.3,10.7-16,16s-14,9.3-16,12c-3.3,5.3-3.8,11.5-1.5,18.5
			s5.8,12.5,10.5,16.5c1.3,1.3,1.8,2.7,1.5,4s-1.5,2.8-3.5,4.5s-3.8,3-5.5,4s-3.8,2.2-6.5,3.5l-3,2c-7.3,3.3-14.2,1.3-20.5-6
			s-10.8-16-13.5-26c-4.7-16.7-10-26.7-16-30c-15.3-5.3-25-5-29,1c-3.3-8.7-17-17.3-41-26c-16.7-6-36-7.3-58-4c4-0.7,4-5.7,0-15
			c-4.7-10-11-14-19-12c2-4,3.3-9.8,4-17.5s1-12.2,1-13.5c2-8.7,6-16.3,12-23c0.7-0.7,3-3.5,7-8.5s7.2-9.5,9.5-13.5s2.5-6,0.5-6
			c23.3,2.7,40-1,50-11c3.3-3.3,7.2-9,11.5-17s7.8-13.7,10.5-17c6-4,10.7-5.8,14-5.5s8.2,2.2,14.5,5.5s11.2,5,14.5,5
			c9.3,0.7,14.5-3,15.5-11s-1.5-14.7-7.5-20c8,0.7,9-5,3-17c-3.3-4.7-6-7.7-8-9c-8-2.7-17-1-27,5c-5.3,2.7-4.7,5.3,2,8
			c-0.7-0.7-3.8,2.8-9.5,10.5s-11.2,13.5-16.5,17.5s-10.7,2.3-16-5c-0.7-0.7-2.5-5.2-5.5-13.5s-6.2-12.8-9.5-13.5
			c-5.3,0-10.7,5-16,15c2-5.3-1.7-10.3-11-15s-17.3-7.3-24-8c12.7-8,10-17-8-27c-4.7-2.7-11.5-4.3-20.5-5s-15.5,0.7-19.5,4
			c-3.3,4.7-5.2,8.5-5.5,11.5s1.3,5.7,5,8s7.2,4.2,10.5,5.5s7.2,2.7,11.5,4s7.2,2.3,8.5,3c9.3,6.7,12,11.3,8,14
			c-1.3,0.7-4.2,1.8-8.5,3.5s-8.2,3.2-11.5,4.5s-5.3,2.7-6,4c-2,2.7-2,7.3,0,14s1.3,11.3-2,14c-3.3-3.3-6.3-9.2-9-17.5
			s-5-13.8-7-16.5c4.7,6-3.7,8-25,6l-10-1c-2.7,0-8,0.7-16,2s-14.8,1.7-20.5,1s-10.2-3.3-13.5-8c-2.7-5.3-2.7-12,0-20
			c0.7-2.7,2-3.3,4-2c-2.7-2-6.3-5.2-11-9.5s-8-7.2-10-8.5c-30.7,10-62,23.7-94,41c4,0.7,8,0.3,12-1c3.3-1.3,7.7-3.5,13-6.5
			s8.7-4.8,10-5.5c22.7-9.3,36.7-11.7,42-7l5-5c9.3,10.7,16,19,20,25c-4.7-2.7-14.7-3-30-1c-13.3,4-20.7,8-22,12c4.7,8,6.3,14,5,18
			c-2.7-2-6.5-5.3-11.5-10s-9.8-8.3-14.5-11s-9.7-4.3-15-5c-10.7,0-18,0.3-22,1c-97.3,53.3-175.7,127.3-235,222
			c4.7,4.7,8.7,7.3,12,8c2.7,0.7,4.3,3.7,5,9s1.5,9,2.5,11s4.8,1,11.5-3c6,5.3,7,11.7,3,19c0.7-0.7,15.3,8.3,44,27
			c12.7,11.3,19.7,18.3,21,21c2,7.3-1.3,13.3-10,18c-0.7-1.3-3.7-4.3-9-9s-8.3-6-9-4c-2,3.3-1.8,9.5,0.5,18.5s5.8,13.2,10.5,12.5
			c-4.7,0-7.8,5.3-9.5,16s-2.5,22.5-2.5,35.5s-0.3,20.8-1,23.5l2,1c-2,8-0.2,19.5,5.5,34.5s12.8,21.5,21.5,19.5c-8.7,2-2,16.3,20,43
			c4,5.3,6.7,8.3,8,9c2,1.3,6,3.8,12,7.5s11,7,15,10s7.3,6.5,10,10.5c2.7,3.3,6,10.8,10,22.5s8.7,19.5,14,23.5
			c-1.3,4,1.8,10.7,9.5,20s11.2,17,10.5,23c-0.7,0-1.5,0.3-2.5,1s-1.8,1-2.5,1c2,4.7,7.2,9.3,15.5,14s13.5,9,15.5,13
			c0.7,2,1.3,5.3,2,10s1.7,8.3,3,11s4,3.3,8,2c1.3-13.3-6.7-34-24-62c-10-16.7-15.7-26.3-17-29c-2-3.3-3.8-8.5-5.5-15.5
			s-3.2-11.8-4.5-14.5c1.3,0,3.3,0.5,6,1.5s5.5,2.2,8.5,3.5s5.5,2.7,7.5,4s2.7,2.3,2,3c-2,4.7-1.3,10.5,2,17.5s7.3,13.2,12,18.5
			s10.3,11.7,17,19s10.7,11.7,12,13c4,4,8.7,10.5,14,19.5s5.3,13.5,0,13.5c6,0,12.7,3.3,20,10s13,13.3,17,20c3.3,5.3,6,14,8,26
			s3.7,20,5,24c1.3,4.7,4.2,9.2,8.5,13.5s8.5,7.5,12.5,9.5l16,8l13,7c3.3,1.3,9.5,4.8,18.5,10.5s16.2,9.5,21.5,11.5
			c6.7,2.7,12,4,16,4s8.8-0.8,14.5-2.5s10.2-2.8,13.5-3.5c10-1.3,19.7,3.7,29,15s16.3,18.3,21,21c24,12.7,42.3,16.3,55,11
			c-1.3,0.7-1.2,3.2,0.5,7.5s4.3,9.5,8,15.5s6.7,10.8,9,14.5s4.2,6.5,5.5,8.5c3.3,4,9.3,9,18,15c8.7,6,14.7,11,18,15
			c4-2.7,6.3-5.7,7-9c-2,5.3,0.3,12,7,20s12.7,11.3,18,10c9.3-2,14-12.7,14-32c-20.7,10-37,4-49-18c0-0.7-0.8-2.5-2.5-5.5
			s-3-5.8-4-8.5s-1.8-5.5-2.5-8.5s-0.7-5.5,0-7.5s2.3-3,5-3c6,0,9.3-1.2,10-3.5s0-6.5-2-12.5s-3.3-10.3-4-13c-0.7-5.3-4.3-12-11-20
			s-10.7-13-12-15c-3.3,6-8.7,8.7-16,8s-12.7-3.7-16-9c0,0.7-0.5,2.5-1.5,5.5s-1.5,5.2-1.5,6.5c-8.7,0-13.7-0.3-15-1
			c0.7-2,1.5-7.8,2.5-17.5s2.2-17.2,3.5-22.5c0.7-2.7,2.5-6.7,5.5-12s5.5-10.2,7.5-14.5s3.3-8.5,4-12.5s-0.8-7.2-4.5-9.5
			s-9.5-3.2-17.5-2.5c-12.7,0.7-21.3,7.3-26,20c-0.7,2-1.7,5.5-3,10.5s-3,8.8-5,11.5s-5,5-9,7c-4.7,2-12.7,2.7-24,2s-19.3-2.3-24-5
			c-8.7-5.3-16.2-15-22.5-29s-9.5-26.3-9.5-37c0-6.7,0.8-15.5,2.5-26.5s2.7-19.3,3-25s-1.5-13.8-5.5-24.5c2-1.3,5-4.5,9-9.5
			s7.3-8.5,10-10.5c1.3-0.7,2.8-1.2,4.5-1.5s3.2-0.3,4.5,0s2.7-0.2,4-1.5s2.3-3.3,3-6c-0.7-0.7-2-1.7-4-3c-2-2-3.3-3-4-3
			c4.7,2,14.2,1.5,28.5-1.5s23.5-2.5,27.5,1.5c10,7.3,17.3,6.7,22-2c0-0.7-0.8-3.8-2.5-9.5s-1.8-10.2-0.5-13.5c3.3,18,13,21,29,9
			c2,2,7.2,3.7,15.5,5s14.2,3,17.5,5c2,1.3,4.3,3.2,7,5.5s4.5,3.8,5.5,4.5s2.7,0.5,5-0.5s5.2-3.2,8.5-6.5c6.7,9.3,10.7,17.3,12,24
			c7.3,26.7,13.7,41.3,19,44c4.7,2,8.3,2.7,11,2s4.2-3.8,4.5-9.5s0.3-10.3,0-14s-0.8-7.8-1.5-12.5l-1-8v-18l-1-8
			c-10-2-16.2-6-18.5-12s-1.8-12.2,1.5-18.5s8.3-12.5,15-18.5c0.7-0.7,3.3-1.8,8-3.5s9.8-3.8,15.5-6.5s9.8-5.3,12.5-8
			c14-12.7,19-24.3,15-35c4.7,0,8.3-3,11-9c-0.7,0-2.3-1-5-3s-5.2-3.7-7.5-5s-3.8-2-4.5-2c6-3.3,6.7-8.7,2-16c3.3-2,5.8-5.7,7.5-11
			s4.2-8.7,7.5-10c6,8,13,8.7,21,2c4.7-5.3,5-10.7,1-16c3.3-4.7,10.2-8.2,20.5-10.5s16.5-5.5,18.5-9.5c4.7,1.3,7.3,0.7,8-2
			s1-6.7,1-12s1-9.3,3-12c2.7-3.3,7.7-6.3,15-9s11.7-4.3,13-5l17-11c2-2.7,2-4,0-4c12,1.3,22.3-2.3,31-11c6.7-7.3,4.7-14-6-20
			c2-4,1-7.2-3-9.5s-9-4.2-15-5.5c2-0.7,5.8-0.8,11.5-0.5s9.2-0.2,10.5-1.5c10-6.7,7.7-12-7-16C2096.3,378,2081.9,382,2064.6,393.3z
			 M1901.6,1270.3c137.3-24,254.3-87,351-189c-2-2-6.2-3.5-12.5-4.5s-10.5-2.2-12.5-3.5c-12-4.7-20-7.3-24-8c0.7-4.7-0.2-9-2.5-13
			s-5-7-8-9s-7.2-4.7-12.5-8c-5.3-3.3-9-5.7-11-7c-1.3-1.3-3.7-3.3-7-6s-5.7-4.5-7-5.5s-3.8-2.5-7.5-4.5s-6.5-2.7-8.5-2s-5.3,1-10,1
			l-3,1c-2,0.7-3.8,1.5-5.5,2.5s-3.5,2-5.5,3s-3.3,2-4,3s-0.7,1.8,0,2.5c-14-11.3-26-18.7-36-22c-3.3-0.7-7-2.5-11-5.5
			s-7.5-5.3-10.5-7s-6.3-2.2-10-1.5s-7.5,3-11.5,7c-3.3,3.3-5.3,8.3-6,15s-1.3,11-2,13c-4.7-3.3-4.7-9.2,0-17.5s5.3-14.5,2-18.5
			c-2-4-5.5-5.5-10.5-4.5s-9,2.5-12,4.5s-6.8,4.8-11.5,8.5s-7.7,5.8-9,6.5s-4.2,2.5-8.5,5.5s-7.2,5.5-8.5,7.5c-2,2.7-4,6.7-6,12
			c-2,5.3-3.7,9-5,11c-1.3-2.7-5.2-4.8-11.5-6.5c-6.3-1.7-9.5-3.5-9.5-5.5c1.3,6.7,2.7,18.3,4,35c1.3,16.7,3,29.3,5,38
			c4.7,20.7,0.7,36.7-12,48c-18,16.7-27.7,30-29,40c-2.7,14.7,1.3,23.3,12,26c0,4.7-2.7,11.5-8,20.5s-7.7,16.2-7,21.5
			C1899.6,1258.3,1900.3,1263.6,1901.6,1270.3z"/>
		<path display="none" d="M2386.9,156c-13.4-16.7-22.2-9-31.6,1.6c11.6-13.5,11.6-24.9-2.4-40.2c-96.4-105.1-213.8-175.3-349.6-216
			c-16.4-4.9-33.1-8.8-49.8-12.7c-6.6-1.5-12.3-2.8-17.3-3.7l0,0c-3.5-0.6-6.6-1.1-9.5-1.4l-31.8-4.7v-0.1c-1.2-0.1-2.4-0.3-3.7-0.4
			l-0.4-0.1l0,0c-16.6-2.1-33.2-5-49.9-5.5C1524.4-137.8,1284-7.3,1119.6,263.2c-8.5,14-24.3,46.8-29.5,57.8
			c-33.3,71.7-54.3,147-63.8,225.3c-16.9,139.3,2.4,273.8,58.7,402.2c19.1,43.7,91.7,156.9,103.8,171.3
			c145.1,171.7,325.8,276.2,553.9,287.6c276.9,13.9,498.6-93.3,666.6-311.9c30-39.1,50.4-85.4,77.3-127.1c1.3-2.1,2.1-4.2,2.3-6.4
			l7.6-14.6l11.7-34.8c28.7-83.4,51.8-240.9,51.5-268.1C2557.8,461.7,2501.1,298.8,2386.9,156z M2502.4,747.5
			c-4.9,39.3-17.6,77.8-29.3,115.9c-2.6,8.3-5.3,16.4-7,24.4l-11.4,32.1c-10,19.3-19.5,38.8-29.9,57.8
			c-96.5,177-240.3,296.4-434.2,353.1c-106.4,31.1-214.8,37.6-324.4,19.2c-2.4-0.4-4.9-0.4-7.3-1.1c-52-15.9-105.6-28-155.4-49.1
			c-50.7-21.4-97.7-51.7-148.7-79.3c-1,1.1-25.4-19-30.5-24.9c-20.3-23.4-42.7-44.9-63.8-67.7c-106.6-115.2-168.3-252.3-186.3-407.1
			c-14.3-122.6,3-242.7,51.3-357.5c5-11.9,22.5-50.1,28.3-58.6c21.6-31.5,41.1-64.4,61.7-96.6c4.1-6.3,9.7-11.7,19-14.2
			c-10.1,15.1-24.2,29-29.5,45.6c-20.6,64.7-41,129.6-55.4,195.8c-5.3,24.4,1.9,50.9,29.7,70.3c19.1,13.3,27.1,42.4,40.1,64.4
			l0.2,0.3h-0.1c1.3,7,1.4,14.6,4.2,20.9c6,13.4,12.8,26.5,21,38.6c0.6,0.8,1.9,1.2,3.7,1.1l29.6,9.1c-1.2,1-2.5,1.9-3.7,2.9
			c6.4,30.1,6.2,59.8-16.1,88c-7.7,9.8-3,28.7-6.3,42.9c-11.8,50.9,22.2,87.7,41.9,127.2c16.6,33.2,46.3,59.9,70.3,89.3
			c1.4,1.7,4.1,2.5,6.3,3.4c47.2,19.1,50.4,33.1,16.5,71.2c-2.1,2.4-4,5-5.4,6.7c3,10.3,4.7,20,8.8,28.6c2.9,6,8.1,12.5,13.9,15.1
			c18.8,8.6,24.4,23.3,15.4,39.7c-8.5,15.3-2,23.8,6.3,34.5c6.8,8.7,11.2,19.4,18.3,27.8c16,19,33.1,37.2,49.8,55.6
			c3-2,5.9-3.9,8.9-5.9c-7.9-22.6-15.8-45.2-24.4-70c14.9-7.3,29.4-14.4,45.6-22.3c-6.7-7.4,11.2-21,13.2-23.7
			c12.8-17.1,31.8-34.3,34.1-53.3c2.9-23.8,13.5-36.8,32.2-39.1c44.3-5.5,52.9-38.4,53.9-71.4c0.8-28.4,14.7-46.7,29.5-66.8
			c5.6-7.6,11.3-16.3,13.2-25.3c3.2-15.6,3.4-30.6-17.8-36.7c-8.5-2.4-14.9-12-22.2-18.4c-0.7,0.8-1.4,1.6-2.1,2.3
			c13.8,16.2-11.3-7.5-45.3-17.2c-8.2-2.3-14.7-9.9-22.6-13.9c-19.3-9.7-38.9-18.7-58.2-28c1.3-47.6-16.1-70.4-60.2-80.9
			c-5.5-1.3-10.7-6.3-14.7-10.9c-13.3-15.1-24.1-33-39.6-45.3c-12-9.5-29.5-12.1-44.5-17.8c-3-1.1-6.4-1.5-9.2-3.2
			c-24.5-14.6-24.5-14.7-34.7,12.9c0-9,0-18.1,0-27.1c-2-2-3.9-3.9-5.9-5.9c-9.6,7.4-19.2,14.8-29,22.3l-57.8-22
			c-2.8-10.8-2-25.4,2.6-44c-0.9,0.4-1.7,0.8-2.6,1.2v-20.8c1.2-2,2.4-4,3.7-6.1c-9.9-4.7-18.9-9-29.7-14.2
			c9.4-20.8,18.4-40.7,27.3-60.6c-1.6-1.7-3.1-3.4-4.7-5.2c-5.5,4.5-10.7,9.6-16.7,13.3c-8.2,4.9-17.6,12.6-25.4,11.5
			c-5.2-0.7-12-14.7-12-22.9c-0.3-36.5,15.5-68.2,36.8-96.3c7.9-10.4,20.7-19.8,38.6-10.3c10.4,5.5,25.5,1.8,36.9,6.2
			c12.8,5,20.4,14.7,12.5,31.1c-4,8.2-2.7,18.9,0.5,29.5c3.5-11.7,9.1-23.3,10-35.1c2-28.9,21.3-41.8,43.3-54.5
			c11.2-6.5,19.9-17.4,29.7-26.4c14.8-13.5,29.3-27.2,44.4-40.2c7.5-6.5,15.8-12.4,24.5-17c12-6.2,25-10.5,37.2-16.4
			c8-3.8,15.3-8.9,22.9-13.4c-0.9-2.3-1.8-4.6-2.7-7c-8.4-1.5-16.9-3.1-30.2-5.5c17.9-16.2,34-23.4,55.5-23.2
			c20.6,0.2,41.3-4.3,62.3-6.8c-6.8-26.6-12-46.8-17.2-67.3c-3.4,1-10.1,3-21.1,6.2c1.2-9.2,3-15.8,2.6-22.3
			c-0.3-5.2-1.9-13-5.4-14.7c-4-1.9-10.8,1.1-16,3c-2.8,1-4.8,4.2-7.1,6.5c-24.8,24.9-49.6,49.7-73.9,74.2c-3.7-2.3-6.3-3.6-6.2-4
			c5.9-21.6,9.1-42.1-3.4-63.7c-2.3-3.9,12.5-22.4,22.7-27.9c21.2-11.4,45.1-17.8,67.1-28c11.2-5.2,20.7-14,30.3-24.3
			C1551,23.8,1535.1,14.3,1520-1c37.2-63.8,104.8-58.6,162.7-68.7c45.5-8,93.1-4,139.6-6.9l0,0l62.6,2.1l0,0
			c32.5,8.4,65.4,15.8,97.2,26.4c23.6,7.9,45.5,21,68,32c2,1,4.3,3,4.9,5c5.7,18.9,11.1,37.9,16.6,56.9c-1.6,1.9-3.3,3.9-4.9,5.8
			c-9.3-8.6-17.3-21.6-28.2-24.8c-19.9-5.8-41.5-5.8-62.4-8.2c-0.5,6.4-1.5,12.8-1.5,19.2c-0.1,13.8,1.7,27.9-0.1,41.5
			c-1.8,13.9,15.4,38.4,24.4,31.6c19.7-14.9,26.7,3.2,38.3,9.9c4.3,2.5,8.4,5.3,12.6,8c2.1-1.7,4.2-3.5,6.3-5.2
			c-8.1-11.9-16.8-23.4-24.1-35.7c-7.4-12.6-13.5-26-20.1-39.1c2.2-1.8,4.3-3.6,6.5-5.4c4.6,4.1,9.8,7.6,13.6,12.3
			c4.4,5.5,6.9,12.5,11.5,17.9c11.8,14.1,23.3,17.1,33-2.6c2.7-5.6,6.3-10.7,13.1-13.9c5.6,26.8-21.5,51.5,8.6,77.7
			c-19.5,5.3-33.4,11.3-47.6,12.4c-16.5,1.3-24.5,10.5-32.9,22.7c-11.7,16.9-25.3,32.4-37.6,47.9c14.3,6.4,21.2,4.3,13,34.4
			c-16.3,1-20.3,13.4-38.5,14.5c1.9,17.5,2.6,32.7,5.3,47.7c3.8,21,24.8,18.2,37.4,20.7c26.7,5.3,51.5-17.5,38.2-48.9
			c-10.7-25.5,33.1-40.5,58.5-41.7c6.4-0.3,9.6,9.2,12.5,15.7c2.1,4.7,4.4,8.3,7,10.8v28.3h11h20l0.8-14.5h16.2l-10.9-14.5h-6.1
			c-10.8-21.7-42.7-18.7-41.6-53.6c35.8,24,67,44.9,98.8,66.2c-0.2-9.9-9.9-27.8,13.6-28.1c0.8,1.1,1.4,2.3,1.9,3.6
			c8.6,12.4,17.9,19.5,30.5,4.3l0,0c-2,8.5-4.1,16.9-6.1,25.4c12.8,0.6,25.5,1.6,38.3,1.5c3.1,0,6.2-3.7,10-6
			c6.1,9.6,12.7,17.2,16.1,26.1c4.4,11.6,12.2,31.6,8.1,34.8c-11.3,8.8-27.7,13.3-42.5,14.8c-13.2,1.4-27.1-3.3-42.9-5.7
			c0,9.4,0,18.3,0,27.8c-33.4,5.4-62.3-41.9-90.6-6.4c-2-17.4-4.1-36.2-6.6-58.6c-49,14.7-91.7,27.6-139.3,41.9
			c-2.6,3.3-9.5,11.2-15.4,19.8c-4.1,5.9-11.3,14.6-9.5,18.8c10.8,25.2-11.3,32.6-21.3,48.1c-18.8,29.3-46.7,56.6-30.4,99.2
			c6.4,16.6,3.5,38.3,0.1,56.8s-1.9,31.9,13.4,44.2c24.5,19.6,32.2,53.5,60.9,70.5c15.6,9.2,27.1,12.2,46.6,7.7
			c31.8-7.4,63.4-12.9,93.4-27.1c6.6-3.1,19.6,7.3,29.7,11.3c6.5,2.6,14.3,8.3,19.7,6.6c22.4-7,32,5.5,28.4,22.8
			c-7.3,35-0.4,63.3,16.4,95.5c18.3,35.2,19.2,75.1-7,113.8c-11.3,16.7-7.1,44.9-7.4,67.9c-0.1,8.8,6.4,18.1,18,8.1
			c-15.4,21.2-29.4,41.9-20.2,71.4c3.3,10.8-3.9,24.8-7.6,44.5c24.2-13.1,48.7-20.5,64.7-36.4c30.5-30.3,62.9-62,81.7-99.5
			c17.6-35.1,37.7-67.4,59.2-99.7c7.3-10.9,1.6-35.5,11.3-49c23.1-32.1,1.3-50.9,9.5-80.1c8-28.2,14.3-57,24.4-84.4
			c16.3-43.9,17.6-88.5,13.8-138.2c-8.1,9.4-13.2,15.3-20.6,23.9c-43.9-68.1-86.6-134.4-129.3-200.8c1-1.5,2.1-3,3.1-4.5
			c11.8,9.2,27,16.2,34.8,28.1c25.2,38.6,47.8,78.9,71.1,118.6c4.1,6.9,7,14.5,10.6,22.1c27.8-28,26.1-114.5,7.3-146.2
			c-2.3-3.9-11.2-4.1-17-5.9c-1.5,2.5-3.1,5-4.6,7.5c-15.4-20.2-30.8-40.4-46.2-60.6c2.2-2.3,4.5-4.7,6.7-7
			c17.9,14.6,32.7,38.4,61.8,22.4c28.8,41.9,38.9,90.7,50.3,138.8C2512.9,573.1,2513.2,660.5,2502.4,747.5z M1236.4,605.4l1.6,4.9
			C1237.4,608.7,1236.9,607.1,1236.4,605.4z"/>
	</g>
	<g id="hands_1_">
		<g>
			<path fill="#666666" d="M1454.6,510c-20.6-53.2-41.2-106.3-61.8-159.4c-20.7-53.5-41.5-107-62.1-160.6c-1.9-4.7-3.6-5.9-8.6-3.9
				c-30.6,12-61.2,23.9-91.8,35.8c-6.9,2.7-7,2.7-4.3,9.7c41.2,106.5,82.5,213,123.8,319.5c2.7,7.1,2.8,7.1,9.8,4.5
				c30.3-11.7,60.6-23.4,90.8-35.2C1457.4,517.4,1457.4,517.4,1454.6,510z M1386.3,519.8c-11.1,4.3-23.5-1.1-27.7-12.4
				c-4.4-11.8,0.6-23.6,11.8-27.9c11.6-4.4,23.5,1,28,12.8C1402.6,503.1,1397.1,515.6,1386.3,519.8z"/>
			<path fill="#666666" d="M884.6,459.7c8.4,10.4,18.6,18.1,31.4,22.1c8.2,2.5,14.8,0.9,20.2-5.8c25.1-30.9,50.2-61.8,75.4-92.7
				c6-7.3,9.7-8.2,18.1-4.2c19.3,9.1,38.6,18,57.9,27.4c47.9,23.2,95.7,46.7,143.5,70.1c6.6,3.3,13,4.3,20.1,1.4
				c11.7-4.7,23.5-9.2,35.5-13.6c4.8-1.8,5.8-3.9,3.9-8.7c-10.2-25.8-20.2-51.8-30.2-77.6c-10.1-26.1-20.2-52.1-30.2-78.2
				c-1.5-4-3.2-5.5-7.5-3.7c-10.1,4.2-20.3,6.9-31.8,5.1c-65-10.6-130-20.7-195.1-31c-14.6-2.3-20.4,0.6-27.8,13.6
				c-13.8,24.3-27.7,48.5-41.5,72.8c-16.4,29-30.5,59-42.4,90.1C882.3,451.2,881.3,455.6,884.6,459.7z"/>
			<path fill="#666666" d="M1262.7,512.1c-9.4-13.6-23-21.4-37.5-28.3c-64.8-31.3-129.5-62.6-194.2-93.9c-8.2-4-9.8-3.6-15.7,3.8
				c-1.5,2-3.1,3.8-4.6,5.7c-22.6,28-45.3,56-67.9,84.1c-6.7,8.3-14.9,12-25.4,8.8c-14.5-4.5-27.2-12-37.8-23
				c-7.4-7.7-9.4-16.6-4.7-26.5c13.6-29.2,27.4-58.5,41.2-87.6c1.6-3.3,3.2-6.7,5.4-11.4c-1.5,0-2.4,0.1-3.1-0.1
				c-5.7-1.4-9.3,1.8-12.5,5.7c-21.7,26.6-44.9,52-63.9,80.8c-6.2,9.4-14,17.3-24,22.8c-6.9,3.8-6.9,3.8-4.1,11.2
				c19.6,50.5,39.2,101.1,58.7,151.6c0.6,1.6,0.9,3.6,2,4.6c1.1,1.1,3.8,2.1,4.7,1.5c10-6.3,19.9-4.4,29.6,0.1
				c8.8,4,17.2,8.6,26,12.6c35.8,16,71.8,32,107.7,47.7c5.6,2.5,11.8,4.2,17.9,5.2c21.6,3.5,41.6-5.9,52.4-24.5
				c2.4-4.1,4.3-4.3,8.4-2.9c27.8,9.4,54.4-7,58.2-35.9c0.4-3.6,1.9-4.3,5.2-4.9c8.1-1.4,16.4-2.8,24-5.6
				c15.1-5.4,22.5-18.3,21-34.2c-0.2-1.6-0.2-3.2-0.3-5.2c3.9,0.3,7,0.5,10.2,0.6c20.5,0.5,34.7-14.3,33-34.8
				C1272,529.8,1268.6,520.6,1262.7,512.1z"/>
			<path fill="#666666" d="M1198.2,282.6c4.7,0,10-1.3,17-4.2c2.5-1.1,5-1.8,7.5-2c-4.4-11.4-8.9-22.9-13.3-34.3
				c-4.3,4.5-9.3,8.7-12.8,14c-5.1,8-11.1,15.8-16.4,24c4.6,0.7,9.1,1.5,13.7,2.2C1195.3,282.5,1196.7,282.6,1198.2,282.6z"/>
			<path fill="#666666" d="M1293.1,482.8c-7.6,2.7-15.3,5.5-22.5,8.4c2.7,2.9,5.4,6,7.8,9.4c9.6-2.2,19.2-4.2,28.6-6.5
				c-2-5.1-4-10.3-6-15.4C1298.7,480.4,1296,481.8,1293.1,482.8z"/>
			<path fill="#666666" d="M837.5,711.5c0.2,0,0.3-0.1,0.6-0.2c0.5-0.2,1-0.6,1.1-1.1c0.3-0.7,0.1-1.3,0-1.6
				c-0.4-1.2-1.1-1.9-1.7-1.9c-0.3,0-0.7,0.1-1.3,0.3c-0.3,0.1-0.5,0.3-0.7,0.7c-0.2,0.3-0.3,0.9,0,1.7
				C836.2,710.9,837,711.5,837.5,711.5z"/>
			<path fill="#666666" d="M766.2,401.5c-2.6,1.1-4.4,1.7-6.1,2.4c-30.6,11.9-61.2,23.9-91.9,35.5c-5,2-6,3.8-4,9
				c41.5,106.8,83,213.6,124.2,320.5c2.1,5.4,4.2,6.3,9.5,4.2c30.2-12,60.5-23.6,90.7-35.3c6.8-2.6,6.8-2.6,4.1-9.7
				C851.5,621.6,810.3,515,769,408.6C768.1,406.4,767.3,404.4,766.2,401.5z M829.3,689.2c11.6-4.5,23.4,0.8,28,12.6
				c4.3,11.1-1.1,23.4-12.3,27.7c-11.1,4.2-22.9-1.3-27.4-13C813.3,705.5,818.5,693.3,829.3,689.2z"/>
		</g>
	</g>
</g>
</svg>
