<?xml version="1.0" encoding="utf-8"?>
<!-- Generator: Adobe Illustrator 19.1.0, SVG Export Plug-In . SVG Version: 6.00 Build 0)  -->
<svg version="1.0" id="Layer_2" xmlns="http://www.w3.org/2000/svg" xmlns:xlink="http://www.w3.org/1999/xlink" x="0px" y="0px"
	 viewBox="290 -288.6 1539.6 1536.6" enable-background="new 290 -288.6 1539.6 1536.6" xml:space="preserve">
<g display="none" opacity="0.6">
	<g display="inline">
		<path fill="#E5FF1D" d="M1064.5,1258.1c431.6,1.1,778.7-343.8,778.5-773.6c-0.2-430-347.3-774.4-779.1-773.1
			c-428.7,1.3-771.6,342.2-773.9,769C287.7,910.8,632.5,1257,1064.5,1258.1z M1068.5,1218.9c-403-9.5-731.9-305.6-736.4-727.5
			c-4.3-405.4,300-734.7,732.1-738c416.5-3.1,735.2,320.2,737.9,733.8C1804.7,888.8,1471.3,1215.3,1068.5,1218.9z"/>
	</g>
	<path display="inline" fill="#E5FF1D" d="M1481.1,214.1c0.4-45.1-18.8-57.4-60.9-57.2c-236.8,1.2-473.6,0.3-710.4,1
		c-13.2,0-30.5-2.9-41.7,3c-31,2.1-23.7,34.4-23.8,55.9c-0.7,168.5,0.6,336.9-1,505.4c-0.4,45.1,18.8,57.4,60.9,57.2
		c236.8-1.2,473.6-0.3,710.4-1c13.2,0,30.5,2.9,41.7-3c31-2.1,23.7-34.4,23.8-55.9C1480.8,551,1479.5,382.5,1481.1,214.1z
		 M1084.7,723.5c-104.6,0-209.2-3-313.6,1.1c-58.4,2.3-73.2-19.8-72.1-74.4c3.1-143.9,1.4-287.9,0.6-431.9c0-1.9,0-3.9,0.1-5.9
		c2.7-0.1,5.3-0.2,7.8-0.2c110.7,0.8,221.4,0.4,332.1,0.4c104.6,0,209.2,3,313.6-1.1c58.4-2.3,73.2,19.8,72.1,74.4
		c-3.1,143.9-1.4,287.9-0.6,431.9c0,1.9,0,3.9-0.1,5.9c-2.7,0.1-5.3,0.2-7.8,0.2C1306.2,723.1,1195.4,723.5,1084.7,723.5z"/>
</g>
<g>
	<g id="Money_3_">
		<g>
			<path fill="#666666" d="M1324.3,500.5c-0.4-9.5-0.8-18.7-1.2-28.2c-0.1-0.7-1.3-1.8-2.3-2.2c-7.6-2.6-15.7-4.7-23.1-7.9
				c-0.2,0-0.3-0.2-0.3-0.2l-7.9,20.3c6.4-0.3,12.8-0.5,19.2-0.8C1310.8,494.1,1315.1,499.7,1324.3,500.5z"/>
			<path fill="#666666" d="M1322.2,358.9c-13,0.5-25.4,3.5-36.6,8.4l47.8,1.8c0,0-1.2,0.1,0,0c0,0,1.4,12.7,1.5,16.8
				c4.6,0.5,8.9,0.9,13.3,1.6c12.3,2,23,7.2,30,18.2c3.6,5.6,5.5,12.8,5.2,20c-10.2,0.4-20.6,0.7-31.3,1.2
				c-1.2-4.7-2.5-9.3-6.8-11.8c-2.5-1.5-5.4-2.3-9.2-3.7c0.1,3.6,0.3,5.9,0.3,8.3c0.2,5,0.7,10.2,0.4,15.2c0,3.1,0.9,4.2,3.8,5.1
				c8.3,2.6,16.9,4.9,24.6,8.9c18,8.8,24.7,22.5,22.2,42c-2.2,17.4-13.7,29.3-31.9,33.4c-4.7,1.2-9.6,1.8-14.7,2.8
				c0.3,5.9,0.4,11.9,0.7,18c-5.2,0.3-10.2,0.4-15.4,0.7c-0.3-5.9-0.4-11.9-0.7-18.2c-16.7-0.6-31.6-5-41.8-19
				c-0.9-1.3-1.7-2.7-2.5-4.3l-14.6,37.5c17.9,13.1,40,20.4,63.7,19.4c55.7-2.3,99.2-49.3,96.9-105.1S1377.9,356.5,1322.2,358.9z"/>
		</g>
		<path fill="#666666" d="M1482.6,236.9c-24.4-50.1-84.9-71.2-135.2-46.6c-21.6,10.6-37.9,27.8-47.4,48.2
			c11.3,16.8,18.6,36.6,20.6,58.1c1,10.6,0.5,21.2-1.2,31.3c18.7-1.5,36.5,1.2,53,7.3c0.1-1.2,1-2.2,2.6-3.1c7-3.5,13.9-6.7,21-10.3
			c0.4-0.3,0.9-0.6,1.4-0.6c-1.5-2.9-2.9-5.9-4.4-8.9c-0.4,0.3-0.9,0.6-1.4,0.6c-6.9,3.2-13.9,6.7-20.7,10c-2.9,1.5-4.7,0.9-6.1-2.3
			c-1.5-2.9-2.9-5.9-4.4-8.9c-1.5-2.9-0.9-4.9,2.3-6.4c5.9-2.9,12.1-5.9,18-8.8c0.4-0.3,0.9-0.3,1.4-0.6c-0.8-0.6-1.6-1.3-2-1.7
			c-7.9-6.2-16.1-12.3-24.1-18.5c-7.2-5.3-14.1-10.8-21.2-16.1c-7.2-5.5-14.3-11.1-21.5-16.6c-1.8-1.5-3.6-2.8-5.4-4.2
			c-2.6-2.2-2.9-3.5-1-6.3c7.3-3.5,14.6-7,21.9-10.6c2.1-0.2,3.7,1.3,5.2,2.4c7.2,5.5,14.6,11,21.8,16.6c8.7,6.6,17.2,13.2,25.9,20
			c2,1.5,3.9,3.2,6,5.2c-0.1-3.3-0.1-6.7-0.2-9.8c-0.1-6.7-0.3-13.1-0.6-19.7c-0.2-7.4-0.4-14.7-0.6-22.1c0-5.7-0.4-11.6-0.4-17.4
			c-0.1-0.9,0.8-2,0.9-3.2c7.3-3.5,14.3-7,21.6-10.6c3.4,0.4,4.4,1.5,4.3,5.1c0.1,9.1,0,17.8-0.1,26.9c0,10.5,0,20.7,0,31.2
			c-0.1,9.1,0,18.1-0.1,27.2c0,2.6,0,5.3,0,8.1c0.7-0.3,1.2-0.6,1.6-0.9c5.9-2.9,12.1-5.9,18-8.8c3.2-1.5,4.9-0.9,6.4,2.3
			c1.5,2.9,2.9,5.9,4.4,9.1c1.5,2.7,0.9,4.4-2.1,5.9c-7,3.5-14.1,6.8-21.2,10.3c-0.4,0.3-0.9,0.6-1.4,0.6c1.5,2.9,2.9,5.9,4.4,8.9
			c0.4-0.3,0.9-0.6,1.4-0.6c7-3.5,13.9-6.7,21-10.3c2.9-1.5,4.9-0.9,6.4,2.3c1.5,2.9,2.9,5.9,4.4,9.1c1.5,2.7,0.6,4.5-2.1,5.9
			c-7,3.5-13.9,6.7-21,10.3c-1.6,0.9-1.6,0.9-0.7,2.2c2.4,5,4.7,10.1,7.3,15c1.2,2,1.1,3.9-0.4,5.5c-6.4,3.2-12.8,6.2-19.4,9.4
			c-2.3,0.2-3.7-1.1-4.5-2.9c-2.4-5.3-5-10.2-7.4-15.3c-0.6-0.9-0.8-1.1-2-0.8c-3.9,2-7.7,3.8-11.8,5.8c13.6,8,25.5,18.4,35.2,30.8
			c2.5-0.9,5.3-2.2,7.8-3.4C1486.1,347.5,1507.2,287,1482.6,236.9z"/>
		<path fill="#666666" d="M1212.2,366.8l24.4,1.8c14.5-16.1,33.3-28.5,54.6-35.3l2.5-3.3c12.3-50.7-16.2-103-66.5-119.6
			c-53-17.5-110.1,11.1-127.9,64.1c-10.2,31-4.6,63.5,12.4,88.6l33.7,1.2c-2.5-3.4-4.7-7.2-6.7-11.1c-1.2-2.3-2.1-4.8-2.8-7.4
			c-1.4-4.6-2.5-9.3-2.9-14c-0.9-7.1-0.8-14-0.3-20.9c0-0.5,0.1-1,0.1-1.5c-0.3-0.2-0.5-0.2-0.5-0.2c-4.9-1.7-9.6-3.2-14.5-4.8
			c-0.2,0-0.3-0.2-0.5-0.2l0-0.2c0.2,0,0.2,0,0.2-0.3c0.2-0.3,0.4-0.7,0.6-1c1-1.8,2-3.8,3.1-5.5c1.2-2.3,2.5-4.5,3.7-6.8
			c0.2-0.5,0.6-1,0.8-1.5c0.2,0,0.5,0.2,0.5,0.2c3.2,1.1,6.4,2,9.6,3.2c0.2,0,0.3,0.2,0.5,0.2l0.2,0c0-0.2-0.3-0.4-0.1-0.7
			c0.2-0.5,0.4-1,0.6-1.5c0.3-1.5,0.9-2.7,1.3-4.2c0.2-0.5,0.4-1,0.6-1.5c0.2-0.3,0.2-0.7,0.4-1c-0.2,0-0.3-0.2-0.5-0.2
			c-2.9-0.9-5.9-1.8-8.8-3c-0.2,0-0.2,0-0.5-0.2c0,0-0.2,0-0.3-0.2c2.9-5,5.5-10,8.4-15c0.2,0,0.5,0,0.5,0.2
			c2.5,0.7,4.9,1.7,7.6,2.4c0.2,0,0.3,0.2,0.5,0.2l0.2-0.3c1.5-2.5,2.9-5,4.3-7.3c2.9-4.5,6.3-8.7,10.3-12.6
			c5.3-5,11.3-9.1,18.1-12.4c6.1-2.9,12.9-4.8,19.5-5.6c3.5-0.6,7.1-0.7,10.4-0.7c4.5,0.1,8.9,0.6,13.5,1.6c1.5,0.3,3.2,0.7,4.6,1.2
			l0.2,0c1.7,0.6,3.4,1.1,5.1,1.7l0.3,0.2c1,0.4,2,0.8,3,1.2c1.5,0.6,3.2,1.4,4.7,2.2c2.2,1,4.2,2.2,6.3,3.7
			c4.3,2.7,8.4,5.9,11.8,9.6c2.3,2.4,4.2,4.8,6.2,7.5c0.3,0.2,0.3,0.7,0.6,0.9c0,0.2-0.2,0.5-0.2,0.7c-0.4,1-0.6,1.7-0.9,2.7
			c-0.9,2.9-1.9,5.7-2.8,8.6c-0.6,1.7-1.1,3.4-1.7,5.1c-0.4,1-0.8,2-0.9,2.9c0,0,0,0.2-0.2,0.3c0,0,0,0.2-0.2,0.3
			c-0.3-0.2-0.5-0.4-0.6-0.9c-3.2-4-6.4-7.7-10.1-11.2c-2.1-2.2-4.4-4.1-7-5.8c-3.1-2.3-6.3-4.2-9.8-5.8c-1.5-0.8-3.2-1.4-4.7-1.9
			c-0.7-0.4-1.7-0.6-2.7-0.7c-1.5-0.3-3.2-0.7-4.6-1c-1.7-0.3-3.4-0.6-5.3-0.7c-3.1-0.2-6.2-0.1-9.3-0.1c-2.3,0.2-4.7,0.4-7,1.1
			c-4.7,1.2-8.8,2.9-13.1,5.3c-2,1.2-4.1,2.3-5.8,3.9c-1.3,1.1-2.6,2.4-3.7,3.4c-2.8,2.9-5.4,6-7.7,9.5c-0.2,0.3-0.2,0.5-0.7,0.5
			c0.2,0,0.5,0.2,0.7,0.2c22.8,7.7,45.7,15.1,68.5,22.7c0.2,0,0.3,0.2,0.5,0.2c0,0,0.2,0,0.3,0.2l0,0.2c-1.2,2.3-2.5,4.5-3.6,6.8
			c-1.5,2.5-2.8,5.3-4.3,7.8c0,0.2-0.2,0.5-0.4,0.5c-0.2,0-0.5-0.2-0.7-0.2c-22.6-7.4-45.4-15.1-68-22.5c-0.2,0-0.3-0.2-0.5-0.2
			l-0.2,0l0,0c-0.6,1.5-0.9,2.7-1.5,4.2c-0.2,0.7-0.4,1.2-0.5,1.9c-0.2,0.7-0.3,1.5-0.7,2.2c0,0.2-0.2,0.3,0,0.5
			c0.3,0.2,0.5,0.2,0.7,0.2c22.6,7.4,44.9,14.9,67.5,22.3c0.2,0,0.3,0.2,0.5,0.2c0,0,0.2,0,0.3,0.2c-0.4,0.7-8.2,14.8-8.4,15l0,0
			l0,0l0,0l0,0l0,0l0,0l0,0l0,0l0,0l0,0l0,0c-20.6-6.9-41.5-13.8-62.1-20.7l0,0l0,0l0,0l0,0l0,0l0,0l0,0l0,0l0,0l0,0l0,0l0,0l0,0.2
			c-0.3,4.5,0.1,9.3,0.8,13.7c1,5.6,2.9,11.2,5.8,16.1c3.4,6.3,8.2,11.4,13.8,15.6c1.5,1,3.1,2.3,4.8,3.1l17.4,0.5L1212.2,366.8z"/>
		<g>
			<path fill="#666666" d="M1308.4,423.4c-1,7,4.2,12.2,13.7,14c-0.3-8.1-0.3-16.2-0.6-24.2C1315.7,412.5,1309.3,417.6,1308.4,423.4
				z"/>
			<path fill="#666666" d="M1338.9,476.3c0.1,9.3,0.3,18.5,0.7,27.8c8.3,0,15.2-5.4,15.6-11.9
				C1355.4,484.1,1348.8,477.3,1338.9,476.3z"/>
		</g>
	</g>
	<g id="Layer_1_copy_2_2_">
		<path fill="#666666" d="M1119,638.4c-20-1.6-39.7-3.3-59-4.8c-9.8-0.8-45.2-3.7-45.2-3.7l6.3-14.3c8.9-20.1,17.7-40.3,26.3-59.7
			c2.6-5.9,5.2-11.9,7.9-17.9L970,403.5V254.9h23.8c6.4,0,12-2.3,16.8-7.1c4.7-4.7,7.1-10.3,7.1-16.8c0-6.4-2.3-12-7.1-16.8
			c-4.7-4.7-10.3-7.1-16.8-7.1H803.1c-6.4,0-12,2.3-16.8,7.1c-4.7,4.7-7.1,10.3-7.1,16.8c0,6.4,2.3,12,7.1,16.8
			c4.7,4.7,10.3,7.1,16.8,7.1H827v148.6L639.6,698.9c-13.9,22.1-16.6,41-8,56.8c8.6,15.8,26,23.7,52.3,23.7H1113
			c26.3,0,43.8-7.9,52.3-23.7c8.6-15.8,5.9-34.7-8-56.8L1119,638.4z M867.2,428.9l7.4-11.5V254.9h47.7v162.4l7.4,11.5l101.3,159.8
			H765.9L867.2,428.9z"/>
		<path fill="#666666" d="M1108.1,386.6c0,0,91.1,73.4-12.2,139.2c-3.9-8.3-7.8-16.4-12.1-25.3c-17.7,40.2-34.8,79.3-52.5,119.5
			c42.3,3.5,83.3,6.9,126.1,10.4c-4.6-8.5-8.8-16.4-12.9-24.1c75.4-13.3,143-102.2,155-212.5C1235.2,391.4,1173.1,389,1108.1,386.6z
			"/>
	</g>
</g>
</svg>
