<?xml version="1.0" encoding="utf-8"?>
<!-- Generator: Adobe Illustrator 19.1.0, SVG Export Plug-In . SVG Version: 6.00 Build 0)  -->
<svg version="1.0" id="Layer_2" xmlns="http://www.w3.org/2000/svg" xmlns:xlink="http://www.w3.org/1999/xlink" x="0px" y="0px"
	 viewBox="290 -288.6 1539.6 1536.6" enable-background="new 290 -288.6 1539.6 1536.6" xml:space="preserve">
<g display="none" opacity="0.6">
	<g display="inline">
		<path fill="#E5FF1D" d="M1064.5,1258.1c431.6,1.1,778.7-343.8,778.5-773.6c-0.2-430-347.3-774.4-779.1-773.1
			c-428.7,1.3-771.6,342.2-773.9,769C287.7,910.8,632.5,1257,1064.5,1258.1z M1068.5,1218.9c-403-9.5-731.9-305.6-736.4-727.5
			c-4.3-405.4,300-734.7,732.1-738c416.5-3.1,735.2,320.2,737.9,733.8C1804.7,888.8,1471.3,1215.3,1068.5,1218.9z"/>
	</g>
	<path display="inline" fill="#E5FF1D" d="M1481.1,214.1c0.4-45.1-18.8-57.4-60.9-57.2c-236.8,1.2-473.6,0.3-710.4,1
		c-13.2,0-30.5-2.9-41.7,3c-31,2.1-23.7,34.4-23.8,55.9c-0.7,168.5,0.6,336.9-1,505.4c-0.4,45.1,18.8,57.4,60.9,57.2
		c236.8-1.2,473.6-0.3,710.4-1c13.2,0,30.5,2.9,41.7-3c31-2.1,23.7-34.4,23.8-55.9C1480.8,551,1479.5,382.5,1481.1,214.1z
		 M1084.7,723.5c-104.6,0-209.2-3-313.6,1.1c-58.4,2.3-73.2-19.8-72.1-74.4c3.1-143.9,1.4-287.9,0.6-431.9c0-1.9,0-3.9,0.1-5.9
		c2.7-0.1,5.3-0.2,7.8-0.2c110.7,0.8,221.4,0.4,332.1,0.4c104.6,0,209.2,3,313.6-1.1c58.4-2.3,73.2,19.8,72.1,74.4
		c-3.1,143.9-1.4,287.9-0.6,431.9c0,1.9,0,3.9-0.1,5.9c-2.7,0.1-5.3,0.2-7.8,0.2C1306.2,723.1,1195.4,723.5,1084.7,723.5z"/>
</g>
<g>
	<g>
		<g>
			<g>
				<path fill="#666666" d="M965.9,441.6c-52.3,0-103.5,0-156.3,0c0,112.7,0,224.9,0,337.7c-28.4,0-55.4,0-83.5,0
					c-0.2-3.7-0.6-7.6-0.6-11.5c0-118.7,0-237.2-0.2-356c0-8.7,2.2-11.3,11.3-13.9c17.4-5,32.8-5.4,50.4,0c14.4,4.5,30,1.5,44.3-5.4
					c3-1.5,7.6-1.3,10.6,0c21.1,9.1,41.8,9.1,63.2,0.2c3.5-1.5,8.2-1.5,11.7,0c21.1,8.9,41.8,8.9,63.2-0.2c3-1.3,7.8-1.5,10.9-0.2
					c21.5,9.3,42.5,9.3,64,0c3-1.3,7.6-1.3,10.6,0.2c21.1,9.1,41.8,9.1,63.2,0.2c3.3-1.5,8.4-1.3,11.7,0c21.1,8.9,41.8,8.9,63.2-0.2
					c3-1.3,7.8-1.5,10.9-0.2c21.5,9.3,42.5,9.3,64,0c3-1.3,7.6-1.1,10.9,0.2c21.1,9.1,41.8,9.1,63.2,0.2c3.3-1.5,8-0.9,11.7,0
					c7,1.5,13.7,5,20.6,5.6c8.2,0.6,10,3.9,10,11.5c-0.2,56-0.2,112.2-0.2,168.2c0,62.5,0,125.2,0,187.8c0,4.3,0,8.4,0,13.5
					c-143.3,0-285.2,0-428.3,0C965.9,666.7,965.9,554.5,965.9,441.6z M1021.1,645.2c95.5,0,189.9,0,284.5,0c0-68.4,0-135.9,0-203.8
					c-95,0-189.5,0-284.5,0C1021.1,509.5,1021.1,576.8,1021.1,645.2z"/>
				<path fill="#666666" d="M1283.3,350c-6.6,20.4-21.3,25.6-38.8,25.2c-15.8-0.4-29.4-5.4-35.4-25.2c-6.7,19.7-20.4,25.4-37.3,25.4
					c-16.7-0.2-30.8-4.8-37.2-25.6c-6.6,19.9-20.4,25.6-37.2,25.6c-17.2,0-31.5-5-37.3-25.8c-6.6,20.8-21.1,26.2-38.6,25.8
					c-16.2-0.4-30-5.4-34.9-23.4c-22.3,32.4-55.6,32.6-76,0c-6.1,18.4-20.2,23.4-37.2,23.2c-16.7-0.2-30.8-5.4-36.5-25.6
					c-6.7,21.3-21.9,26.1-39.7,25.6c-16-0.4-28.9-6.3-34.5-25c-7.6,20.8-23,26.5-41.8,24.5c-21.5-2.2-35.8-22.8-30.8-43.6
					c11.7-50.1,23.7-100.5,35.6-151.1c222.7,0,445.1,0,668.5,0c6.6,26.9,13.2,54.3,19.5,81.6c5.4,22.8,10.9,45.6,16,68.5
					c4.3,18.9-5.6,37.6-23.2,43.2c-14.5,4.5-40.4,1.5-46.6-18.3c-0.2-1.1-1.1-1.7-2.4-3.7c-6.1,18.9-20.4,24.1-37.8,23.8
					C1303.1,374.9,1289.3,369.5,1283.3,350z"/>
			</g>
		</g>
	</g>
</g>
</svg>
