<?xml version="1.0" encoding="utf-8"?>
<!-- Generator: Adobe Illustrator 19.1.0, SVG Export Plug-In . SVG Version: 6.00 Build 0)  -->
<svg version="1.0" id="Layer_2" xmlns="http://www.w3.org/2000/svg" xmlns:xlink="http://www.w3.org/1999/xlink" x="0px" y="0px"
	 viewBox="290 -288.6 1539.6 1536.6" enable-background="new 290 -288.6 1539.6 1536.6" xml:space="preserve">
<g display="none" opacity="0.6">
	<g display="inline">
		<path fill="#E5FF1D" d="M1064.5,1258.1c431.6,1.1,778.7-343.8,778.5-773.6c-0.2-430-347.3-774.4-779.1-773.1
			c-428.7,1.3-771.6,342.2-773.9,769C287.7,910.8,632.5,1257,1064.5,1258.1z M1068.5,1218.9c-403-9.5-731.9-305.6-736.4-727.5
			c-4.3-405.4,300-734.7,732.1-738c416.5-3.1,735.2,320.2,737.9,733.8C1804.7,888.8,1471.3,1215.3,1068.5,1218.9z"/>
	</g>
	<path display="inline" fill="#E5FF1D" d="M1481.1,214.1c0.4-45.1-18.8-57.4-60.9-57.2c-236.8,1.2-473.6,0.3-710.4,1
		c-13.2,0-30.5-2.9-41.7,3c-31,2.1-23.7,34.4-23.8,55.9c-0.7,168.5,0.6,336.9-1,505.4c-0.4,45.1,18.8,57.4,60.9,57.2
		c236.8-1.2,473.6-0.3,710.4-1c13.2,0,30.5,2.9,41.7-3c31-2.1,23.7-34.4,23.8-55.9C1480.8,551,1479.5,382.5,1481.1,214.1z
		 M1084.7,723.5c-104.6,0-209.2-3-313.6,1.1c-58.4,2.3-73.2-19.8-72.1-74.4c3.1-143.9,1.4-287.9,0.6-431.9c0-1.9,0-3.9,0.1-5.9
		c2.7-0.1,5.3-0.2,7.8-0.2c110.7,0.8,221.4,0.4,332.1,0.4c104.6,0,209.2,3,313.6-1.1c58.4-2.3,73.2,19.8,72.1,74.4
		c-3.1,143.9-1.4,287.9-0.6,431.9c0,1.9,0,3.9-0.1,5.9c-2.7,0.1-5.3,0.2-7.8,0.2C1306.2,723.1,1195.4,723.5,1084.7,723.5z"/>
</g>
<g id="Layer_3">
</g>
<path fill="#666666" d="M815,523.3c-3.8,13.2-6.5,26.6-8.1,40.2c-0.8,6.9-1.2,13.8-1.4,20.7c0,0.9,0,1.9,0,2.8
	c18.7,24.1,43.3,42.6,71.1,53.9c-5-10.8-8.6-22.1-10.6-34c-1.2-7.3-1.9-14.7-2-22.1c-0.1-7.2,0.3-14.4,1.2-21.6
	c0.4-3.6,1.1-7.2,1.7-10.8c0.9-5,2.1-10,3.4-14.8c0.1-0.2,0.2-0.5,0.4-0.8c0.6,0.4,1.2,0.7,1.7,1c7.8,4.7,15.6,9.5,23.4,14.2
	c18.7,11.3,37.4,22.6,56.1,33.9c11.4,6.9,22.7,13.8,34.1,20.7c13.4,8.1,26.9,16.3,40.3,24.4c0.3,0.2,0.5,0.3,0.8,0.4
	c0.2-0.1,0.5-0.3,0.7-0.4c4.1-4.3,30.3-34,31.1-35c-0.4-0.3-0.9-0.6-1.3-0.9c-17.7-10.7-35.4-21.4-53.1-32.2
	c-14.7-8.9-29.5-17.8-44.2-26.8c-18-10.9-36.1-21.9-54.1-32.8c-5.3-3.2-10.7-6.5-16-9.7c-0.5-0.3-1.2-0.5-1.5-1.2
	c4-7.5,8.4-14.7,13.3-21.8c6.4,3.9,12.8,7.8,19.2,11.6c6.4,3.9,12.8,7.7,19.1,11.6c6.3,3.8,12.7,7.7,19,11.5
	c6.4,3.9,12.7,7.7,19.1,11.6c6.4,3.9,12.8,7.7,19.1,11.6c6.4,3.9,12.8,7.7,19.1,11.6c6.3,3.8,12.6,7.7,19,11.5
	c6.4,3.9,12.7,7.7,19.1,11.6c6.4,3.8,12.7,7.7,19,11.5c0.2-0.1,0.4-0.1,0.4-0.2c0.2-0.2,0.4-0.4,0.6-0.6
	c10.2-11.5,20.3-22.9,30.5-34.4c0,0,0.1-0.1,0.1-0.2c0-0.1,0-0.1-0.1-0.4c-28.7-17.4-57.5-34.8-86.3-52.3
	c-28.8-17.4-57.6-34.9-86.4-52.4c0.6-0.5,1-0.9,1.5-1.3c9.7-9,20.3-16.8,31.5-23.7c5.7-3.5,11.9-6.2,18.2-8.4
	c6.7-2.3,13.5-4.1,20.4-5.4c5.5-1.1,11-1.9,16.6-2.3c2.1-0.1,4.2-0.3,6.2-0.4c6.5-0.4,12.9-0.1,19.4,0.9c8.2,1.3,16.2,3.1,24.2,5.5
	c11.2,3.3,21.9,7.7,31.9,13.6c-1.8-4.2-3.7-8.4-5.8-12.5c-14.6-28.4-36.2-51.4-62.2-67.6c-5.5-0.2-11.1-0.1-16.6,0.2
	c-5.4,0.3-10.7,0.8-16,1.6c-5.6,0.8-11.2,1.8-16.7,3.2c-9.6,2.3-18.9,5.3-28,9.1c-9.6,4-18.8,8.8-27.6,14.4
	c-9.9,6.3-19.2,13.5-27.7,21.6c-6.6,6.2-12.8,12.7-18.8,19.4c-0.4,0.5-0.8,1-1.4,1.4c-7-4.3-14.1-8.5-21.2-12.8
	c-0.3,0.3-0.5,0.4-0.7,0.6c-10.3,11.5-20.5,23.1-30.7,34.6c-0.1,0.1-0.1,0.2-0.1,0.4c0.6,0.4,1.2,0.8,1.8,1.2
	c7.3,4.4,14.5,8.8,21.8,13.2c0.3,0.2,0.5,0.4,0.8,0.6c-1.1,1.7-2.1,3.3-3.1,4.9c-3,4.7-5.8,9.4-8.5,14.3c-0.3,0.5-0.6,0.9-0.8,1.4
	c-0.2,0.5-0.2,1.1-0.3,1.8c-9-5.4-17.9-10.8-27-16.3c-10.6,11.9-21.1,23.6-31.7,35.6c4.4,2.7,8.6,5.2,12.8,7.8
	c4.3,2.6,8.5,5.1,12.8,7.7c4.2,2.6,8.5,5.1,12.7,7.7c-0.1,0.7-0.3,1.3-0.6,1.9C818.1,513.2,816.5,518.2,815,523.3z"/>
<path fill="#666666" d="M1212.6,621.6c33.4,11.7,67.7,24.1,102,35.7c29.6,10.1,59.6,19.4,89.4,28.7c34.5,11,63.5-2.1,73.9-33
	c10.5-31.3-5-60.2-39.9-71.6c-61.7-20.3-123.7-39.9-185.4-59.7c-2.6-0.9-5.1-2-7.5-2.9c22.9-195.6-131.8-325.5-263.9-340.7
	C836.1,161.6,694,251.1,652,389.7c-42.3,139.8,16.3,287.9,148.7,359.6C922.4,815.4,1116.9,791.2,1212.6,621.6z M1114.5,391.2
	c49.4,95.9,11.4,212.5-85.2,261.8c-94,48-210.1,10.5-259-84c-49.1-94.4-11.7-211.7,82.6-260.5
	C948.5,259.2,1065.6,296.1,1114.5,391.2z"/>
</svg>
