<?xml version="1.0" encoding="utf-8"?>
<!-- Generator: Adobe Illustrator 19.1.0, SVG Export Plug-In . SVG Version: 6.00 Build 0)  -->
<svg version="1.0" id="Layer_2" xmlns="http://www.w3.org/2000/svg" xmlns:xlink="http://www.w3.org/1999/xlink" x="0px" y="0px"
	 viewBox="290 -288.6 1539.6 1536.6" enable-background="new 290 -288.6 1539.6 1536.6" xml:space="preserve">
<g display="none" opacity="0.6">
	<g display="inline">
		<path fill="#E5FF1D" d="M1064.5,1258.1c431.6,1.1,778.7-343.8,778.5-773.6c-0.2-430-347.3-774.4-779.1-773.1
			c-428.7,1.3-771.6,342.2-773.9,769C287.7,910.8,632.5,1257,1064.5,1258.1z M1068.5,1218.9c-403-9.5-731.9-305.6-736.4-727.5
			c-4.3-405.4,300-734.7,732.1-738c416.5-3.1,735.2,320.2,737.9,733.8C1804.7,888.8,1471.3,1215.3,1068.5,1218.9z"/>
	</g>
	<path display="inline" fill="#E5FF1D" d="M1481.1,214.1c0.4-45.1-18.8-57.4-60.9-57.2c-236.8,1.2-473.6,0.3-710.4,1
		c-13.2,0-30.5-2.9-41.7,3c-31,2.1-23.7,34.4-23.8,55.9c-0.7,168.5,0.6,336.9-1,505.4c-0.4,45.1,18.8,57.4,60.9,57.2
		c236.8-1.2,473.6-0.3,710.4-1c13.2,0,30.5,2.9,41.7-3c31-2.1,23.7-34.4,23.8-55.9C1480.8,551,1479.5,382.5,1481.1,214.1z
		 M1084.7,723.5c-104.6,0-209.2-3-313.6,1.1c-58.4,2.3-73.2-19.8-72.1-74.4c3.1-143.9,1.4-287.9,0.6-431.9c0-1.9,0-3.9,0.1-5.9
		c2.7-0.1,5.3-0.2,7.8-0.2c110.7,0.8,221.4,0.4,332.1,0.4c104.6,0,209.2,3,313.6-1.1c58.4-2.3,73.2,19.8,72.1,74.4
		c-3.1,143.9-1.4,287.9-0.6,431.9c0,1.9,0,3.9-0.1,5.9c-2.7,0.1-5.3,0.2-7.8,0.2C1306.2,723.1,1195.4,723.5,1084.7,723.5z"/>
</g>
<g>
	<g id="Layer_1_2_">
		<g>
			<path fill="#666666" d="M901,599.9c-1.7,8.7-3.7,17.8-5.4,26.5c-0.6,2.8,0.6,4.5,3.1,5.6c8.2,3.4,16.4,6.5,24.5,9.9
				c1.4-3.4,3.4-6.8,5.1-10.1c-2,3.4-3.7,6.8-5.1,10.1c26.5,11.6,53.3,22.8,80.1,33.5c12.7,5.4,25.7,10.7,38.3,16.1
				c11,4.5,22,9.3,33.3,13.8c19.7,8.2,39.2,16.6,59.5,25.1c2-10.4,3.9-20.3,5.9-30.4c2-2.5,0.6-4.8-0.3-7.3
				c-1.4-4.8-4.2-8.7-4.2-13.8l0,0c27.6,0.6,55,0,82.3-2.8c16.4-1.1,32.7-2.8,48.8-5.9c14.9-1.7,29.6-4.5,44-8.5
				c13-2.3,25.4-5.6,37.8-10.1c11.8-3.1,23.4-7,34.4-12.1c11.6-4.2,22.6-9.3,32.7-15.8c23.4-13.8,42.6-31.6,52.7-56.4
				c3.7-8.5,5.1-17.8,7-26.8c0.8-5.9,3.9-11.3,3.9-17.5l0,0c3.9-18.6,0.6-36.4-7-53.6c-9.3-20.6-23.4-38.1-40-54.1
				c-18.3-17.8-38.9-33.5-61.2-46.5c-18-11.8-37.2-21.7-56.7-31.3c-6.8-3.4-13.8-6.5-20.9-9.9c-31.6-14.9-64.3-27.6-97.8-38.9
				c-14.4-4.8-28.5-9.9-43.1-13.3c-13.5-4.8-27.6-7.9-41.7-11.6c-6.2-1.7-12.4-3.1-18.6-4.2c-1.7-0.3-3.9-1.7-4.8,1.1
				c-3.1,5.1-2.5,11-3.9,16.6c-0.6,2,1.4,2.3,2.8,2.5c6.5,1.7,12.7,3.4,19.2,5.1c9.6,3.1,19.5,5.9,29,9c10.4,3.7,20.9,7.3,31,11.3
				c10.7,4.5,21.1,8.7,31.9,13.3c27.1,12.7,53.8,25.9,78.4,43.1c23.7,16.6,46.2,35,66,55.8c17.5,18.6,26.8,40.3,29.9,64.6
				c0.3,2.5,0.3,5.1,2,7.3c-0.3,0.3-0.3,0.6,0,0.8c-3.9,9.6-10.7,17.2-17.2,25.1c-22.8,22.6-51.6,35.8-82.3,45.7
				c-3.4,1.1-6.8,2-9.9,3.9c-1.7-0.6-3.4,0-5.1,0.6c-25.4,7-51.6,11-77.8,14.7c-10.7,1.4-21.4,1.7-32.4,2.5l0,0
				c-13.3,0.6-26.5,1.1-40,1.4c-3.1,0-6.5-0.8-9.6-1.4c-5.1-14.4-10.4-28.8-15.5-43.1c-0.8-2.3-1.7-3.9-4.5-2
				c-14.9,5.1-29.6,10.1-44.5,15.2c-11.3,2.3-21.7,6.8-32.4,10.1c-13.3,4.2-26.5,9-40,13.5c-20.6,6.5-41.2,12.7-61.2,20.6
				C901,597.4,901,598.8,901,599.9z M1176.1,643.1c-8.7,0.6-17.5,0.6-26.2,0.3C1158.6,643.6,1167.4,643.6,1176.1,643.1L1176.1,643.1
				z M1094.9,676.6L1094.9,676.6c-0.6-2.5-1.7-5.1-2.8-7.6C1093.2,671.5,1094.4,673.8,1094.9,676.6z M1213.6,645
				c0.8,4.8,1.7,9.6,2.5,14.4C1215.3,654.9,1214.5,650.1,1213.6,645L1213.6,645z M1296.2,630.1c-12.1,3.1-24.8,4.8-37.2,6.5
				C1271.7,635.2,1284.1,633.2,1296.2,630.1L1296.2,630.1z M1399.7,598.8c-8.7-17.8-17.2-35.2-25.9-53
				C1382.5,563.6,1391.2,581,1399.7,598.8L1399.7,598.8z M1378.5,479.5c1.7-5.9,2.5-12.4,1.4-18.9c0.6-10.1-1.4-19.7-5.1-29.3
				c3.7,9.3,5.6,18.9,5.1,29.3C1381.1,467.4,1380.5,473.6,1378.5,479.5z M1183.2,291.5c12.7,4.5,25.1,9.6,37.2,15.2
				C1208.3,301.1,1195.8,296,1183.2,291.5c0,0.3-0.3,0.6-0.3,0.8C1183.2,292.1,1183.2,291.8,1183.2,291.5z M1125.1,273.5
				c9.9,2.8,19.5,5.6,29.3,8.5c7,2,14.1,3.9,20.9,6.5c-6.8-2.5-13.8-4.5-20.9-6.5c-0.3,0.6-0.3,0.8-0.3,1.4c0-0.3,0-0.8,0.3-1.4
				C1144.5,279.1,1134.7,276.3,1125.1,273.5L1125.1,273.5z M1154.4,285c0.3,0.3,0.3,0.8,0.6,1.1
				C1154.7,285.9,1154.4,285.3,1154.4,285z M1106.5,267.3c2.3,1.1,4.8,1.7,7,2.3C1111.3,269,1109,268.4,1106.5,267.3z M1097.2,263.9
				L1097.2,263.9c-2,2.3-1.1,4.2,0,5.9C1095.8,268.1,1094.9,266.1,1097.2,263.9z M1105.1,266.4c0.6,0.3,1.1,0.6,1.7,0.8
				C1105.9,267,1105.3,266.7,1105.1,266.4c-0.6-0.3-1.1-0.6-1.4-0.6C1103.9,265.8,1104.5,266.1,1105.1,266.4z M1152.4,279.1
				L1152.4,279.1c-5.6-1.7-11.6-3.1-17.2-4.8C1140.9,276,1146.5,277.4,1152.4,279.1z M1241.5,314.3c-2.8-1.4-5.6-2.3-8.5-3.4
				c-7.6-5.1-16.1-8.7-24.8-12.1c8.5,3.4,16.9,7,24.8,12.1C1235.9,312.1,1238.7,312.9,1241.5,314.3z M1317.4,629.5
				c9.6-2.3,19.5-4.2,29-6.5c11-3.4,21.7-7,32.7-10.4c10.7-4.8,21.4-9.9,32.1-14.7c0.8-0.6,1.7-1.4,2.8-2c-0.8,0.6-1.7,1.4-2.8,2
				c-10.7,4.8-21.4,9.9-32.1,14.7c-11,3.4-21.7,7-32.7,10.4c-1.7,6.2-0.6,12.1,0.8,18c-1.4-5.9-2.5-11.8-0.8-18
				C1336.5,625.3,1326.9,627.3,1317.4,629.5z M1068.4,670.7c7.3,2.8,14.7,5.4,21.1,9.3c3.4,1.1,6.8,2.3,10.1,3.7
				c-3.4-1.4-6.8-2.5-10.1-3.7C1083.1,676,1075.7,673.5,1068.4,670.7z M1006.4,667.9c3.7-6.2,7-12.4,10.4-18.3l0,0
				C1013.4,655.5,1010.1,661.7,1006.4,667.9z"/>
		</g>
		<g>
			<path fill="#666666" d="M1138.3,410.2l10.7,47.9c1.7,7-2,14.4-10.7,21.7c-8.7,7.6-21.1,14.4-37.2,20.6
				c-16.1,6.2-33.8,10.7-53.3,13.8c-19.5,3.1-37.8,4.2-55,3.4c-17.2-0.8-31-3.7-41.7-8.2c-10.4-4.5-16.1-10.4-16.9-17.5l-4.5-49.1
				l100.6,12.7c2.5,0.3,5.4,0.3,8.2-0.3c2.8-0.6,5.6-1.1,7.9-2.3L1138.3,410.2z M1219.5,346.5c0.3,2.3-0.6,4.2-2.8,5.4l-179,83.7
				c-0.6,0.3-0.8,0.3-1.7,0.3s-1.1,0.3-1.7,0l-114.2-14.4c-4.2,4.2-7.3,10.7-9.3,18.9c-2,8.2-2.3,17.8-1.4,28.2
				c7.6,2.5,12.1,7.6,13.3,14.9c1.1,7-1.1,13-7,18l20.3,64.8c0.6,1.4,0.3,2.8-0.8,3.9c-0.8,1.4-2,2-3.7,2.3l-32.1,5.1
				c-1.7,0.3-3.1,0-4.2-1.1c-1.4-0.8-2-2.3-2-3.7l-0.8-67.9c-7-2.8-11.3-7.9-12.4-14.9c-1.1-7.6,1.7-13.8,8.2-18.9
				c-2.3-21.4,0.6-39.2,8.5-53.3l-58.4-7c-2.5-0.6-3.9-1.7-4.5-4.2c-0.6-2.5,0.6-4.2,2.8-5.4l179-83.7c0.6-0.3,0.8-0.3,1.7-0.3
				s1.1-0.3,1.7,0l196.2,24.5C1217.6,342.8,1219,344.2,1219.5,346.5z"/>
		</g>
	</g>
	<g id="Layer_2_3_">
		<path fill="#666666" d="M641,362c-5.6,25.1-1.7,48.2,9.9,69.4c12.4,23.1,29.3,40.6,48.2,55.3c5.9,5.4,12.1,9.6,18.3,13.8
			c6.8,5.1,13.8,9.3,21.4,13.3c7.3,5.6,15.2,10.1,23.1,13.8c7.3,4.2,15.2,7.9,23.1,10.7c7.3,3.7,14.9,6.5,22.6,8.7
			c6.5,3.1,13.5,4.8,20.3,6.8c5.6,1.7,11.3,3.7,17.2,4.8c3.7,0.8,7.3,1.7,11.3,2.8c1.7,0.6,2.5-0.3,2.8-2.3c0.8-4.5,1.7-9,2.5-13.8
			c0.6-3.4-2-2.5-2.8-2.8c-7.6-3.1-15.5-6.2-23.1-9.3c-12.4-5.1-24.2-11-36.1-16.9c-15.2-8.5-30.4-17.5-44.8-28.8
			c-16.6-13.3-32.1-28.2-43.7-48.2c-6.8-11.3-11.3-23.7-13.5-37.5c-0.3-2.5-0.3-5.1-0.6-7.9c10.4-28.2,29.9-43.4,52.4-54.1
			c6.2-2.8,12.7-5.6,18.9-8.5c9.3-2.5,18.3-4.8,27.6-7.3c4.8-0.8,9.9-1.7,14.7-2.5c5.1-0.6,10.1-1.1,15.2-1.7
			c5.1,0,10.1-0.3,15.2-0.8c5.1,0,10.1,0,14.9,0c3.1,0.3,6.5,0.3,9.6,0.6c2.5,10.1,5.1,20.3,7.6,30.2c1.1-7.3,2.3-14.9,3.4-22.3
			c2.8,0.3,5.1-1.4,7.3-2.5c-2.5,0.8-4.8,2.8-7.3,2.5c-1.1,7.3-2.3,14.9-3.4,22.3c0.3,0.6,0.6,0.6,1.1,0.6c7.3-3.1,14.7-5.9,22-9
			c6.5-2,12.7-4.5,18.9-7.3c6.8-2.5,13.5-5.4,20.3-7.9c7.3-2.5,14.4-5.1,21.4-8.5c3.7-1.4,7.3-2.8,11.3-3.9c1.1-0.3,1.7-1.1,1.7-2.5
			c0.8-6.8,2-13.5,2.8-20.3c-0.6-1.7-2-1.1-2.8-2l0,0c-19.5-9.9-38.9-19.7-58.4-29.9c-8.5-4.2-17.2-8.5-25.9-13
			c-10.7-5.9-21.4-11.3-32.4-16.4c-1.4-1.4-1.4,0.3-1.4,1.1c-0.6,4.8-1.1,9.6-2,14.4c-1.1,3.9-1.1,7.9,0,11.8
			c-9.6,0-19.2,0.3-28.5,0.3c-0.6,0-1.1,0.3-1.7,0.3c-10.7-0.3-21.1,0.6-31.6,1.7c-11,0.8-22,2-32.7,4.5c-9.9,1.4-19.5,4.5-29,8.2
			c-8.2,2.3-16.4,5.4-24,9.6c-7.9,3.4-15.5,7.6-22.6,13.3l0,0c-7.6,5.4-14.7,11.6-20.6,19.5c-6.2,7.6-11.3,15.8-14.1,26.2
			c0,0.6,0,1.4,0,2c2.5,1.7,4.5,3.7,6.5,5.9c-2-2.3-3.9-4.5-6.5-5.9c0-0.6,0-1.4,0-2C641.9,347,641,354.4,641,362z M765.1,308.7
			c6.5-2.3,12.7-4.5,19.2-6.8v-0.3v0.3C777.8,304.2,771.5,306.4,765.1,308.7z M901.5,312.6c0-0.3-0.3-0.3-0.6-0.6
			C901.2,312.4,901.5,312.6,901.5,312.6z M856.1,257.1c0.3,0,0.3,0,0.6,0C856.7,256.8,856.4,256.8,856.1,257.1z M833.3,295.2
			c5.1-0.3,9.9-0.3,14.9-0.6l0,0C843.2,294.9,838.4,294.9,833.3,295.2z M814.7,293.2c0.3,0.6,0.6,1.4,0.6,2.3
			C815.2,294.6,815,293.8,814.7,293.2z M784.2,300.8L784.2,300.8L784.2,300.8z M761.7,310.7c-0.3,0.3-0.6,0.6-0.8,0.6l0,0
			C761.4,311,761.7,310.7,761.7,310.7L761.7,310.7z M756.6,312.9C756.6,312.6,756.6,312.6,756.6,312.9L756.6,312.9
			C756.6,312.6,756.6,312.6,756.6,312.9z M733.8,321.4c0.3,0.6,0.3,1.4,0.3,2.3C734.1,322.8,734.1,322,733.8,321.4z M712.6,343.9
			c0.6-0.8,1.1-1.4,2-1.7l0,0C714,342.5,713.2,343.1,712.6,343.9z M709.8,348.2c0.6-0.6,1.1-1.1,1.4-1.7l0,0
			C710.9,347,710.4,347.6,709.8,348.2z M701.4,362.8c-0.3,0-0.6,0-0.6-0.3C700.8,362.8,701.1,362.8,701.4,362.8z M859.2,256.3
			c0.3-0.6,0.3-1.1,0-1.7c0-0.3-0.3-0.8-0.6-1.1c0,0.3,0.3,0.8,0.6,1.1C859.5,255.4,859.5,256,859.2,256.3z M952,311.5
			c-2.3-3.4-4.8-7-7.9-9.6C947.2,304.8,949.4,308.1,952,311.5z M904.3,317.4L904.3,317.4c1.7,2.3,3.1,4.5,4.8,6.5
			C907.4,321.7,905.7,319.4,904.3,317.4z M886,324.2L886,324.2c0.6,1.1,0.8,2,1.4,3.1C887.1,326.5,886.6,325.3,886,324.2z
			 M879.5,324.2c7.6-3.1,15.2-5.9,23.1-8.7c0-0.3,0-0.3,0-0.3v0.3c9.6-3.7,19.5-7.3,29-11.3c0-0.8,0-1.7-0.3-2.3
			c0.3,0.6,0.6,1.4,0.3,2.3c-9.6,3.7-19.5,7.3-29,11.3C894.8,318.3,887.1,321.1,879.5,324.2z M851.3,296.9L851.3,296.9
			c0.3,2.3,0.6,4.2,1.1,6.5C851.9,301.1,851.6,299.1,851.3,296.9z M852.5,303.3c0.3,1.1,0.6,2.3,0.8,3.4
			C853,305.6,852.7,304.5,852.5,303.3z M806.2,302.5c0.3,1.1,0.6,2.5,0.8,3.7C806.8,305,806.5,303.9,806.2,302.5z M791,301.9
			c4.8-0.8,9.9-1.7,14.7-2.5c5.1-0.6,10.1-1.1,15.2-1.7c2.5,0,5.1-0.3,7.6-0.6c-2.5,0.3-5.1,0.6-7.6,0.6l0,0
			c-5.1,0.6-10.1,1.1-15.2,1.7l0,0C800.9,300.2,796.1,301.1,791,301.9L791,301.9z M753.5,314.6h-0.3l0,0
			C753.2,314.6,753.2,314.6,753.5,314.6z M745.3,318.6H745l0,0C745,318.6,745,318.6,745.3,318.6z M743.1,320L743.1,320L743.1,320z
			 M799.2,517.9c0.3,0.8,0.6,1.4,0.6,2.3C800,519.3,799.5,518.7,799.2,517.9z M833,535.7L833,535.7c0,0.8-0.3,1.7-0.3,2.5
			C833,537.3,833,536.5,833,535.7z M799.7,522.7c-2.8-1.4-5.6-2.8-8.5-4.2l0,0C794.1,519.9,796.9,521.6,799.7,522.7z M788.7,528.6
			c0.3-0.8,0.6-2,1.1-2.8C789.3,526.9,789,527.8,788.7,528.6z M723.1,481.2L723.1,481.2c7,5.1,14.4,9.6,21.7,14.1
			c7.9,4.2,15.5,8.5,23.4,13c6.5,3.1,13.3,6.2,20,9c-6.8-3.1-13.3-6.2-20-9l0,0c-7.9-4.2-15.5-8.5-23.4-13l0,0
			C737.4,490.8,730.1,486.3,723.1,481.2z M743.1,502.1c-0.3,0.8-0.6,1.7-0.8,2.8C742.5,503.8,742.8,502.9,743.1,502.1z M767.9,510.3
			c-0.3,0.8-0.3,1.4-0.6,2.3C767.3,512,767.6,511.1,767.9,510.3z M721.4,488.6c0.3-0.8,0.6-1.7,0.8-2.8
			C721.9,486.9,721.6,487.7,721.4,488.6z M703.9,473.3c0.6-1.4,0.8-3.1,1.1-4.8l0,0C704.7,470.2,704.5,471.9,703.9,473.3z"/>
	</g>
</g>
</svg>
