<?xml version="1.0" encoding="utf-8"?>
<!-- Generator: Adobe Illustrator 19.1.0, SVG Export Plug-In . SVG Version: 6.00 Build 0)  -->
<svg version="1.0" id="Layer_2" xmlns="http://www.w3.org/2000/svg" xmlns:xlink="http://www.w3.org/1999/xlink" x="0px" y="0px"
	 viewBox="290 -288.6 1539.6 1536.6" enable-background="new 290 -288.6 1539.6 1536.6" xml:space="preserve">
<g display="none" opacity="0.6">
	<g display="inline">
		<path fill="#E5FF1D" d="M1064.5,1258.1c431.6,1.1,778.7-343.8,778.5-773.6c-0.2-430-347.3-774.4-779.1-773.1
			c-428.7,1.3-771.6,342.2-773.9,769C287.7,910.8,632.5,1257,1064.5,1258.1z M1068.5,1218.9c-403-9.5-731.9-305.6-736.4-727.5
			c-4.3-405.4,300-734.7,732.1-738c416.5-3.1,735.2,320.2,737.9,733.8C1804.7,888.8,1471.3,1215.3,1068.5,1218.9z"/>
	</g>
	<path display="inline" fill="#E5FF1D" d="M1481.1,214.1c0.4-45.1-18.8-57.4-60.9-57.2c-236.8,1.2-473.6,0.3-710.4,1
		c-13.2,0-30.5-2.9-41.7,3c-31,2.1-23.7,34.4-23.8,55.9c-0.7,168.5,0.6,336.9-1,505.4c-0.4,45.1,18.8,57.4,60.9,57.2
		c236.8-1.2,473.6-0.3,710.4-1c13.2,0,30.5,2.9,41.7-3c31-2.1,23.7-34.4,23.8-55.9C1480.8,551,1479.5,382.5,1481.1,214.1z
		 M1084.7,723.5c-104.6,0-209.2-3-313.6,1.1c-58.4,2.3-73.2-19.8-72.1-74.4c3.1-143.9,1.4-287.9,0.6-431.9c0-1.9,0-3.9,0.1-5.9
		c2.7-0.1,5.3-0.2,7.8-0.2c110.7,0.8,221.4,0.4,332.1,0.4c104.6,0,209.2,3,313.6-1.1c58.4-2.3,73.2,19.8,72.1,74.4
		c-3.1,143.9-1.4,287.9-0.6,431.9c0,1.9,0,3.9-0.1,5.9c-2.7,0.1-5.3,0.2-7.8,0.2C1306.2,723.1,1195.4,723.5,1084.7,723.5z"/>
</g>
<g>
	<g id="hands_1_">
		<g>
			<path fill="#666666" d="M1361.4,542.2c-15.7-40.6-31.4-81.1-47.2-121.6c-15.8-40.8-31.6-81.6-47.4-122.5c-1.4-3.6-2.8-4.5-6.6-3
				c-23.3,9.2-46.7,18.2-70.1,27.3c-5.3,2.1-5.4,2.1-3.3,7.4c31.4,81.3,62.9,162.5,94.4,243.8c2.1,5.4,2.1,5.4,7.5,3.4
				c23.1-8.9,46.2-17.9,69.3-26.9C1363.6,547.8,1363.6,547.8,1361.4,542.2z M1309.4,549.6c-8.5,3.3-17.9-0.9-21.2-9.5
				c-3.4-9,0.5-18,9-21.3c8.9-3.4,17.9,0.7,21.4,9.7C1321.7,536.9,1317.6,546.4,1309.4,549.6z"/>
			<path fill="#666666" d="M926.5,503.8c6.4,7.9,14.2,13.8,24,16.9c6.2,1.9,11.3,0.7,15.4-4.4c19.1-23.6,38.4-47.2,57.5-70.7
				c4.6-5.6,7.4-6.2,13.8-3.2c14.7,7,29.5,13.8,44.1,20.9c36.5,17.7,73,35.6,109.5,53.5c5,2.5,9.9,3.3,15.3,1.1
				c8.9-3.6,17.9-7.1,27.1-10.3c3.7-1.3,4.4-3,3-6.6c-7.8-19.7-15.4-39.5-23-59.2c-7.7-19.9-15.4-39.8-23-59.6
				c-1.1-3-2.4-4.2-5.7-2.8c-7.7,3.2-15.5,5.3-24.2,3.9c-49.6-8.1-99.2-15.8-148.8-23.6c-11.1-1.7-15.6,0.5-21.2,10.3
				c-10.5,18.5-21.2,37-31.7,55.5c-12.6,22.1-23.2,45.1-32.4,68.8C924.8,497.3,924,500.7,926.5,503.8z"/>
			<path fill="#666666" d="M1215,543.8c-7.2-10.3-17.6-16.3-28.6-21.6c-49.4-23.8-98.8-47.8-148.2-71.6c-6.2-3-7.5-2.8-12,2.9
				c-1.1,1.5-2.4,2.9-3.5,4.4c-17.3,21.4-34.6,42.7-51.9,64.1c-5.1,6.3-11.4,9.2-19.4,6.7c-11.1-3.4-20.8-9.1-28.8-17.5
				c-5.6-5.9-7.2-12.7-3.6-20.2c10.4-22.3,21-44.6,31.4-66.8c1.2-2.6,2.4-5.1,4.1-8.7c-1.1,0-1.8,0.1-2.4-0.1
				c-4.4-1.1-7.1,1.3-9.5,4.4c-16.5,20.3-34.3,39.6-48.7,61.6c-4.7,7.2-10.7,13.2-18.3,17.4c-5.2,2.9-5.3,2.9-3.1,8.5
				c14.9,38.6,29.9,77.1,44.8,115.7c0.5,1.2,0.7,2.8,1.5,3.5c0.9,0.8,2.9,1.6,3.6,1.1c7.7-4.8,15.2-3.4,22.6,0.1
				c6.7,3,13.1,6.6,19.8,9.6c27.3,12.2,54.7,24.4,82.1,36.4c4.3,1.9,9,3.2,13.6,4c16.5,2.7,31.8-4.5,40-18.7
				c1.8-3.1,3.3-3.3,6.4-2.2c21.2,7.2,41.5-5.4,44.4-27.4c0.3-2.8,1.4-3.3,4-3.8c6.2-1.1,12.5-2.1,18.3-4.3
				c11.5-4.1,17.2-14,16.1-26.1c-0.1-1.2-0.1-2.4-0.2-4c3,0.2,5.4,0.4,7.8,0.5c15.7,0.4,26.5-10.9,25.2-26.5
				C1222.1,557.3,1219.5,550.2,1215,543.8z"/>
			<path opacity="0.85" fill="#666666" d="M1165.8,368.7c3.6,0,7.7-1,13-3.2c1.9-0.8,3.8-1.3,5.7-1.5c-3.4-8.7-6.8-17.5-10.1-26.2
				c-3.3,3.4-7.1,6.6-9.7,10.7c-3.9,6.1-8.5,12.1-12.5,18.3c3.5,0.5,7,1.1,10.5,1.7C1163.6,368.6,1164.6,368.7,1165.8,368.7z"/>
			<path opacity="0.85" fill="#666666" d="M1238.2,521.4c-5.8,2.1-11.6,4.2-17.2,6.4c2.1,2.2,4.1,4.6,6,7.2c7.3-1.7,14.6-3.2,21.8-5
				c-1.5-3.9-3-7.9-4.6-11.8C1242.5,519.6,1240.5,520.6,1238.2,521.4z"/>
			<path opacity="0.85" fill="#666666" d="M750.4,477.4c2.4-1.7,4.6-2.6,5.8-3c5.1-1.9,10.3-3.9,15.4-5.8
				C757.2,460,756.6,460.5,750.4,477.4z"/>
			<path opacity="0.85" fill="#666666" d="M890.6,695.9c0.1,0,0.3-0.1,0.5-0.1c0.4-0.1,0.7-0.5,0.9-0.8c0.3-0.5,0.1-1,0-1.2
				c-0.3-0.9-0.8-1.4-1.3-1.4c-0.2,0-0.5,0.1-1,0.2c-0.2,0.1-0.4,0.2-0.5,0.5c-0.1,0.3-0.2,0.7,0,1.3
				C889.6,695.4,890.2,695.9,890.6,695.9z"/>
			<path opacity="0.85" fill="#666666" d="M1460.7,154.3c-9-11.2-14.9-6-21.2,1.1c7.8-9.1,7.8-16.7-1.6-27
				C1373.1,57.8,1294.3,10.7,1203-16.7c-11-3.3-22.2-5.9-33.4-8.5c-4.4-1-8.3-1.9-11.6-2.5l0,0c-2.4-0.4-4.4-0.7-6.4-0.9l-21.4-3.2
				v-0.1c-0.8-0.1-1.6-0.2-2.5-0.3l-0.3-0.1l0,0c-11.2-1.4-22.3-3.4-33.5-3.7C881.4-43,719.9,44.6,609.5,226.3
				c-5.7,9.4-16.3,31.4-19.8,38.8c-22.4,48.2-36.5,98.7-42.9,151.3c-11.4,93.6,1.6,183.9,39.4,270.2C599.1,716,647.8,792,656,801.7
				c97.5,115.3,218.8,185.5,372,193.2c186,9.3,334.9-62.7,447.7-209.5c20.2-26.3,33.9-57.4,51.9-85.4c0.9-1.4,1.4-2.8,1.5-4.3
				l5.1-9.8l7.9-23.4c19.3-56,34.8-161.8,34.6-180.1C1575.5,359.7,1537.4,250.3,1460.7,154.3z M1538.3,551.6
				c-3.3,26.4-11.8,52.3-19.7,77.8c-1.7,5.6-3.6,11-4.7,16.4l-7.7,21.6c-6.7,13-13.1,26.1-20.1,38.8
				c-64.8,118.9-161.4,199.1-291.6,237.2c-71.5,20.9-144.3,25.3-217.9,12.9c-1.6-0.3-3.3-0.3-4.9-0.7c-34.9-10.7-70.9-18.8-104.4-33
				c-34.1-14.4-65.6-34.7-99.9-53.3c-0.7,0.7-17.1-12.8-20.5-16.7c-13.6-15.7-28.7-30.2-42.9-45.5c-71.6-77.4-113-169.5-125.1-273.4
				c-9.6-82.3,2-163,34.5-240.1c3.4-8,15.1-33.7,19-39.4c14.5-21.2,27.6-43.3,41.4-64.9c2.8-4.2,6.5-7.9,12.8-9.5
				c-6.8,10.1-16.3,19.5-19.8,30.6c-13.8,43.5-27.5,87.1-37.2,131.5c-3.6,16.4,1.3,34.2,19.9,47.2c12.8,8.9,18.2,28.5,26.9,43.3
				l0.1,0.2h-0.1c0.9,4.7,0.9,9.8,2.8,14c4,9,8.6,17.8,14.1,25.9c0.4,0.5,1.3,0.8,2.5,0.7l19.9,6.1c-0.8,0.7-1.7,1.3-2.5,1.9
				c4.3,20.2,4.2,40.2-10.8,59.1c-5.2,6.6-2,19.3-4.2,28.8c-7.9,34.2,14.9,58.9,28.1,85.4c11.2,22.3,31.1,40.2,47.2,60
				c0.9,1.1,2.8,1.7,4.2,2.3c31.7,12.8,33.9,22.2,11.1,47.8c-1.4,1.6-2.7,3.4-3.6,4.5c2,6.9,3.2,13.4,5.9,19.2
				c1.9,4,5.4,8.4,9.3,10.1c12.6,5.8,16.4,15.7,10.3,26.7c-5.7,10.3-1.3,16,4.2,23.2c4.6,5.8,7.5,13,12.3,18.7
				c10.7,12.8,22.2,25,33.4,37.3c2-1.3,4-2.6,6-4c-5.3-15.2-10.6-30.4-16.4-47c10-4.9,19.7-9.7,30.6-15c-4.5-5,7.5-14.1,8.9-15.9
				c8.6-11.5,21.4-23,22.9-35.8c1.9-16,9.1-24.7,21.6-26.3c29.8-3.7,35.5-25.8,36.2-48c0.5-19.1,9.9-31.4,19.8-44.9
				c0.6-0.8,1.1-1.5,1.7-2.4c-12-5.4-23.2-10.3-33-14.7c-3.8-1.7-7.3-3.5-10.7-5.2c-3.2-1.6-6.1-3.1-9.1-4.4
				c-2.6-1.2-4.7-1.8-6.2-1.8c-0.6,0-1.4,0.1-2.5,0.8c-2.2,1.4-4.8,2.2-7.5,2.4l23.5,60.7c1.5,4,3.7,9.5,1.1,16
				c-2.8,6.8-8.7,9.1-12.6,10.5c-6.4,2.5-12.8,5-19.2,7.5c-16.4,6.3-33.4,12.9-50,19.5c-2,0.8-5,1.8-8.7,1.8l0,0
				c-3.8,0-13.1-1.3-17.8-13.4c-31.2-80-63-162.3-95-244.6c-0.8-2.1-3.4-8.7-0.2-15.7c1.4-3.2,3.6-5.5,5.7-7.1c0-5.8,0-11.8,0-17.6
				c-1.3-1.3-2.6-2.6-4-4c-6.4,5-12.9,9.9-19.5,15l-38.7-15c-1.9-7.3-1.3-17.1,1.7-29.6c-0.6,0.3-1.1,0.5-1.7,0.8v-14
				c0.8-1.3,1.6-2.7,2.5-4.1c-6.6-3.2-12.7-6-19.9-9.5c6.3-14,12.4-27.3,18.3-40.7c-1.1-1.1-2.1-2.3-3.2-3.5
				c-3.7,3-7.2,6.4-11.2,8.9c-5.5,3.3-11.8,8.5-17.1,7.7c-3.5-0.5-8.1-9.9-8.1-15.4c-0.2-24.5,10.4-45.8,24.7-64.7
				c5.3-7,13.9-13.3,25.9-6.9c7,3.7,17.1,1.2,24.8,4.2c8.6,3.4,13.7,9.9,8.4,20.9c-2.7,5.5-1.8,12.7,0.3,19.8
				c2.4-7.9,6.1-15.7,6.7-23.6c1.3-19.4,14.3-28.1,29.1-36.6c7.5-4.4,13.4-11.7,19.9-17.7c9.9-9.1,19.7-18.3,29.8-27
				c5-4.4,10.6-8.3,16.5-11.4c8.1-4.2,16.8-7.1,25-11c5.4-2.6,10.3-6,15.4-9c-0.6-1.5-1.2-3.1-1.8-4.7c-5.6-1-11.4-2.1-20.3-3.7
				c12-10.9,22.8-15.7,37.3-15.6c13.8,0.1,27.7-2.9,41.8-4.6c-4.6-17.9-8.1-31.4-11.6-45.2c-2.3,0.7-6.8,2-14.2,4.2
				c0.8-6.2,2-10.6,1.7-15c-0.2-3.5-1.3-8.7-3.6-9.9c-2.7-1.3-7.3,0.7-10.7,2c-1.9,0.7-3.2,2.8-4.8,4.4
				c-16.7,16.7-33.3,33.4-49.6,49.8c-2.5-1.5-4.2-2.4-4.2-2.7c4-14.5,6.1-28.3-2.3-42.8c-1.5-2.6,8.4-15,15.2-18.7
				c14.2-7.7,30.3-12,45.1-18.8c7.5-3.5,13.9-9.4,20.4-16.3c-15.1,9.3-25.8,3-35.9-7.3C903.4,6,948.8,9.5,987.7,2.7
				c30.6-5.4,62.5-2.7,93.8-4.6l0,0l42,1.4l0,0c21.8,5.6,43.9,10.6,65.3,17.7c15.9,5.3,30.6,14.1,45.7,21.5c1.3,0.7,2.9,2,3.3,3.4
				c3.8,12.7,7.5,25.5,11.1,38.2c-1.1,1.3-2.2,2.6-3.3,3.9c-6.2-5.8-11.6-14.5-18.9-16.7c-13.4-3.9-27.9-3.9-41.9-5.5
				c-0.3,4.3-1,8.6-1,12.9c-0.1,9.3,1.1,18.7-0.1,27.9c-1.2,9.3,10.3,25.8,16.4,21.2c13.2-10,17.9,2.1,25.7,6.6
				c2.9,1.7,5.6,3.6,8.5,5.4c1.4-1.1,2.8-2.4,4.2-3.5c-5.4-8-11.3-15.7-16.2-24c-5-8.5-9.1-17.5-13.5-26.3c1.5-1.2,2.9-2.4,4.4-3.6
				c3.1,2.8,6.6,5.1,9.1,8.3c3,3.7,4.6,8.4,7.7,12c7.9,9.5,15.7,11.5,22.2-1.7c1.8-3.8,4.2-7.2,8.8-9.3c3.8,18-14.4,34.6,5.8,52.2
				c-13.1,3.6-22.4,7.6-32,8.3c-11.1,0.9-16.5,7.1-22.1,15.2c-7.9,11.4-17,21.8-25.3,32.2c9.6,4.3,14.2,2.9,8.7,23.1
				c-10.9,0.7-13.6,9-25.9,9.7c1.3,11.8,1.7,22,3.6,32c2.6,14.1,16.7,12.2,25.1,13.9c17.9,3.6,34.6-11.8,25.7-32.8
				c-7.2-17.1,22.2-27.2,39.3-28c4.3-0.2,6.4,6.2,8.4,10.5c1.4,3.2,3,5.6,4.7,7.3v19h7.4h13.4l0.5-9.7h10.9l-7.3-9.7h-4.1
				c-7.3-14.6-28.7-12.6-27.9-36c24,16.1,45,30.2,66.4,44.5c-0.1-6.6-6.6-18.7,9.1-18.9c0.5,0.7,0.9,1.5,1.3,2.4
				c5.8,8.3,12,13.1,20.5,2.9l0,0c-1.3,5.7-2.8,11.4-4.1,17.1c8.6,0.4,17.1,1.1,25.7,1c2.1,0,4.2-2.5,6.7-4
				c4.1,6.4,8.5,11.6,10.8,17.5c3,7.8,8.2,21.2,5.4,23.4c-7.6,5.9-18.6,8.9-28.5,9.9c-8.9,0.9-18.2-2.2-28.8-3.8
				c0,6.3,0,12.3,0,18.7c-22.4,3.6-41.8-28.1-60.9-4.3c-1.3-11.7-2.8-24.3-4.4-39.4c-32.9,9.9-61.6,18.5-93.6,28.1
				c-1.7,2.2-6.4,7.5-10.3,13.3c-1.4,2-3.4,4.6-4.8,6.9c1.5-0.8,3.1-1.4,4.5-1.9c6-2.4,12.2-4.7,18.2-7.1
				c17-6.6,34.5-13.4,51.7-20.2c3-1.1,5.7-1.7,8.3-1.7c3.8,0,12.9,1.3,17.5,13.2c12.4,32.2,25.1,65,37.3,96.7l14.8,38.2
				c14.1,36.4,28.2,72.9,42.3,109.3c1.6,4.2,3.8,9.8,1,16.3c-2.9,6.7-8.6,8.9-12.8,10.5c-8.1,3.2-16.2,6.2-24.3,9.4
				c1.6,11.9,5.8,23.3,12.2,35.5c12.3,23.6,12.9,50.4-4.7,76.4c-7.6,11.2-4.8,30.2-5,45.6c-0.1,5.9,4.3,12.2,12.1,5.4
				c-10.3,14.2-19.7,28.1-13.6,48c2.2,7.3-2.6,16.7-5.1,29.9c16.3-8.8,32.7-13.8,43.5-24.4c20.5-20.4,42.2-41.6,54.9-66.8
				c11.8-23.6,25.3-45.3,39.8-67c4.9-7.3,1.1-23.8,7.6-32.9c15.5-21.6,0.9-34.2,6.4-53.8c5.4-18.9,9.6-38.3,16.4-56.7
				c10.9-29.5,11.8-59.4,9.3-92.8c-5.4,6.3-8.9,10.3-13.8,16.1c-29.5-45.7-58.2-90.3-86.8-134.9c0.7-1,1.4-2,2.1-3
				c7.9,6.2,18.1,10.9,23.4,18.9c16.9,25.9,32.1,53,47.8,79.7c2.8,4.6,4.7,9.7,7.1,14.8c18.7-18.8,17.5-76.9,4.9-98.2
				c-1.5-2.6-7.5-2.8-11.4-4c-1,1.7-2.1,3.4-3.1,5c-10.3-13.6-20.7-27.1-31-40.7c1.5-1.5,3-3.2,4.5-4.7c12,9.8,22,25.8,41.5,15
				c19.3,28.1,26.1,60.9,33.8,93.2C1545.3,434.5,1545.5,493.2,1538.3,551.6z M687.9,456.2l1.1,3.3
				C688.6,458.4,688.3,457.3,687.9,456.2z"/>
			<path fill="#666666" d="M836.2,459.4c-2,0.8-3.4,1.3-4.6,1.8c-23.4,9.1-46.7,18.2-70.1,27.1c-3.8,1.5-4.6,2.9-3,6.9
				c31.7,81.5,63.3,163,94.8,244.6c1.6,4.1,3.2,4.8,7.3,3.2c23-9.1,46.1-18,69.3-26.9c5.2-2,5.2-2,3.1-7.4
				c-31.5-81.3-62.9-162.5-94.4-243.8C837.6,463.1,837,461.6,836.2,459.4z M884.3,678.9c8.9-3.4,17.9,0.6,21.4,9.6
				c3.3,8.5-0.9,17.9-9.4,21.2c-8.5,3.2-17.5-1-21-9.9C872.1,691.3,876.1,682,884.3,678.9z"/>
			<polygon opacity="0.85" fill="#666666" points="1154.1,154.5 1162.3,154.5 1167.6,161.3 1172.3,172 1175.2,178.7 1164.6,187.4 
				1158.9,187.4 1154.1,174.7 1145.5,176.7 1149.5,163.9 			"/>
			<path opacity="0.85" fill="#666666" d="M1196.2,157.9l-8.4-9.4l-12.6-6.7h-8.2v-15.4l-3.4-10.7l-9.5-5.4l2.5,22.1
				c-0.8,0.7-1.7,1.4-2.5,2.1c1.1,3,1.5,6.9,3.6,8.7c8.3,7.1,19.5,11.4,17.9,25.9c-0.2,1.8,6.6,6.1,10.3,6.4
				c3.4,0.2,6.9-3.6,10.4-5.6c-0.7-0.7-1.3-1.4-1.9-2.1L1196.2,157.9z"/>
			<g opacity="0.85">
				<path fill="#666666" d="M1521,674.9c0.1,0.1,0.1,0.2,0.1,0.3c0.1,0.1,0.2,0.1,0.3,0.2l0,0C1521.4,675.2,1521.2,675.1,1521,674.9
					L1521,674.9L1521,674.9z"/>
				<path fill="#666666" d="M676.5,432.5L676.5,432.5c-0.1,0.1-0.2,0.2-0.3,0.3C676.2,432.8,676.5,432.5,676.5,432.5z"/>
				<path fill="#666666" d="M1003.5,117.5c8.3-20.8,27.7-28.3,45.6-36c23.7-10.2,32.6-29.7,19.3-50.4c-2.3-3.6-8.7-7.1-12.5-6.5
					c-15.5,2.5-30.6,4.3-45.8-1.9c-2.4-1-5.8,0.7-8.7,3.6c4,0.9,8,1.7,16.3,3.6c-10.1,3.8-15.9,6-22.2,8.4c8.5,6.6,9,31.9,1.4,39.1
					c-14.1,13.4-14.4,14.3-10.4,36c4.2-1.2,8.2-2.4,13.4-3.8c-0.5,3.6-1.1,6.8-1.7,11.3C1001,119,1003,118.5,1003.5,117.5z"/>
				<path fill="#666666" d="M955.3,84.7c1.5-8,3.6-14.1,3.8-20.3c0.2-5-1.3-14.3-2.8-14.4c-8.9-0.9-17.9,0.4-24.9,0.8
					c4.2,9.4,8.1,15.2,9.3,21.6C942.7,82.5,946.8,87.2,955.3,84.7z"/>
				<path fill="#666666" d="M676.2,432.8c0.1-0.1,0.2-0.1,0.3-0.1c0-0.1,0-0.1,0-0.1L676.2,432.8z"/>
				<path fill="#666666" d="M1490.3,652.8c-8,18.8-16,37.6-24,56.4c1.1,0.5,2.3,1.1,3.4,1.7c8.5-18.5,17-37,25.5-55.5
					C1493.6,654.5,1491.9,653.7,1490.3,652.8z"/>
			</g>
		</g>
	</g>
</g>
</svg>
