<?xml version="1.0" encoding="utf-8"?>
<!-- Generator: Adobe Illustrator 19.1.0, SVG Export Plug-In . SVG Version: 6.00 Build 0)  -->
<svg version="1.0" id="Layer_2" xmlns="http://www.w3.org/2000/svg" xmlns:xlink="http://www.w3.org/1999/xlink" x="0px" y="0px"
	 viewBox="290 -288.6 1539.6 1536.6" enable-background="new 290 -288.6 1539.6 1536.6" xml:space="preserve">
<g display="none" opacity="0.6">
	<g display="inline">
		<path fill="#E5FF1D" d="M1064.5,1258.1c431.6,1.1,778.7-343.8,778.5-773.6c-0.2-430-347.3-774.4-779.1-773.1
			c-428.7,1.3-771.6,342.2-773.9,769C287.7,910.8,632.5,1257,1064.5,1258.1z M1068.5,1218.9c-403-9.5-731.9-305.6-736.4-727.5
			c-4.3-405.4,300-734.7,732.1-738c416.5-3.1,735.2,320.2,737.9,733.8C1804.7,888.8,1471.3,1215.3,1068.5,1218.9z"/>
	</g>
	<path display="inline" fill="#E5FF1D" d="M1481.1,214.1c0.4-45.1-18.8-57.4-60.9-57.2c-236.8,1.2-473.6,0.3-710.4,1
		c-13.2,0-30.5-2.9-41.7,3c-31,2.1-23.7,34.4-23.8,55.9c-0.7,168.5,0.6,336.9-1,505.4c-0.4,45.1,18.8,57.4,60.9,57.2
		c236.8-1.2,473.6-0.3,710.4-1c13.2,0,30.5,2.9,41.7-3c31-2.1,23.7-34.4,23.8-55.9C1480.8,551,1479.5,382.5,1481.1,214.1z
		 M1084.7,723.5c-104.6,0-209.2-3-313.6,1.1c-58.4,2.3-73.2-19.8-72.1-74.4c3.1-143.9,1.4-287.9,0.6-431.9c0-1.9,0-3.9,0.1-5.9
		c2.7-0.1,5.3-0.2,7.8-0.2c110.7,0.8,221.4,0.4,332.1,0.4c104.6,0,209.2,3,313.6-1.1c58.4-2.3,73.2,19.8,72.1,74.4
		c-3.1,143.9-1.4,287.9-0.6,431.9c0,1.9,0,3.9-0.1,5.9c-2.7,0.1-5.3,0.2-7.8,0.2C1306.2,723.1,1195.4,723.5,1084.7,723.5z"/>
</g>
<g>
	<g>
		<g>
			<path fill="#666666" d="M821.8,759.2c-9.7-3.5-19.4-7.2-29.1-10.7c-1.8,0-3.5-0.2-5.3-0.2c-2.8-2.1-2.3,0.7-2.8,1.9
				c-0.5,0.7-0.9,1.6-1.4,2.3c-10,3-19.6,7-27.7,13.9c-1.8,1.9-3.5,3.7-5.3,5.6c-2.1,0.9-2.8,1.8-0.4,3l-0.2,0.4
				c1.2,16.9,1.9,18,19.2,14.4c7.9-1.6,13.6-0.4,19.2,4.9c3.9,3.5,8.5,6.3,12.7,9.5c1.6-0.9,3.3-1.8,4.9-2.6
				C811.2,787.4,816.5,773.3,821.8,759.2z"/>
			<path fill="#666666" d="M839.6,675.2c0.4-0.4,0.7-0.9,0.9-1.2c-0.4,0.2-0.7,0.2-0.9,0.5C839.6,674.4,839.6,674.8,839.6,675.2z"/>
			<path fill="#666666" d="M840.6,673.9C840.6,673.7,840.6,673.7,840.6,673.9L840.6,673.9C840.6,673.7,840.8,673.7,840.6,673.9
				C840.6,673.7,840.6,673.7,840.6,673.9C840.6,673.7,840.6,673.7,840.6,673.9z"/>
			<path fill="#666666" d="M840.8,506.1c2.6,7.9,10,11.6,15.7,16.4c6,5.1,8.1,0.4,8.1-5.5c0.9-0.2,1.8-0.2,2.6-0.4
				c-1.8-0.9-3.5-1.8-5.3-2.5C854.9,511.5,847.9,508.7,840.8,506.1z"/>
		</g>
	</g>
</g>
<path fill="#666666" d="M1371.2,601.2c-1.2-0.2-1.2-1.1-1.4-1.8c0-14.3,0-28.4,0-42.6c0.2-1.8,0.5-3.5,0.7-5.3
	c-5.8-15-11.4-30.1-17.3-45.1c-0.2-1.1-0.4-2.1-0.5-3.2c1.1-7.8,2.3-15.7,3.3-23.4c0.2-0.9,0.2-1.9,0.4-2.8c3.2-3,2.5-6.7,2.3-10.4
	c6.2-15.9,5.6-29.9-10-40.2c-1.1-2.5-2.1-5.1-3.2-7.6c-0.2-5.5,1.8-11.1-2.3-16c0-5.3-0.5-10.6,0.4-15.7c2.5-13.2-4.2-19.4-16-21.8
	c-0.2-0.9-0.4-1.6-0.7-2.3c1.2-8.8-0.7-18.1,3.3-26.6l-0.2-0.2c0.1,0.1,0.2,0.2,0.2,0.2c8.1,0.5,15.3,6.2,23.8,4.9
	c9.3-2.8,10.9-6.7,1.8-12.2c-3.3-1.9-6.3-4.2-9.5-6.3c-2.5-3.5-6-5.3-10-6.2c-1.1-0.4-2.1-0.5-3.2-0.9c-0.2,0.5-0.4,0.9-0.5,1.4
	c-13.2,3.2-25.9,8.3-39.5,9.2c-4.2-2.8-4.6-8.5-4.2-11.8c1.1-17.4-10.2-22-23.4-25.7c-5.8-1.6-11.6-3.9-17.4-5.8c0-1.6,0-3.3,0-4.9
	c12.7-12,12.7-12.2,0.7-24.3c-1.8-1.9-3.7-3.7-5.5-5.6c-3.3-2.1-3.9-8.8-9.9-6.9c-11.3,3.7-22,29.4-17.4,41.9
	c-0.2,0.7-0.4,1.6-0.4,2.3c-2.5,2.5-5.6,4.6-7.2,7.4c-8.5,15.1-20.3,19.9-37,14.4c-6.9-2.3-14.6-2.3-21.8-3.3
	c-1.9-3-4.4-4.9-7.9-5.6c-10.4-10.2-22.9-17.6-34.7-26.1c-9.9-13.2-19.7-26.4-29.8-39.6c0.2-0.9,0.4-1.8,0.5-2.6
	c21.8-8.8,44.2-16.7,58.3-37.3c8.3-7.9,14.8-17.3,21.3-26.6c0.7-0.9,1.4-1.8,1.9-2.6c4.6-13.4,9-26.6,13.6-40c0-1.8,0-3.5,0-5.3
	c0.4-0.9,0.5-1.8,0.4-2.6c8.6-10.6,19.7-19,26.9-30.8c2.5-1.4,4.9-3,7.4-4.4c13.2-7,19-22,31.7-29.8c1.2-2.1,2.3-4.2,3.5-6.5
	c4.2-0.9,3.7-3.3,0.7-4.6c-7.2-3.3-14.8-6.2-22.4-9c-8.1-6-16.2-12-24.3-18c-1.8-0.4-3.3-0.7-5.1-0.9c-0.9-0.5-1.6-1.1-2.5-1.6
	c-7.4,6.7-16,11.8-21.5,20.4c0.9,0.4,1.6,0.7,2.3,1.1c-0.7-0.4-1.6-0.7-2.3-1.1c-7.2,6.5-7,15.5-7.9,24.1c-8.3-1.6-6.5-9.2-8.6-14.4
	c-2.5-6-5.8-8.5-12-5.8c-13.7,5.6-27.5,11.3-41.4,16.9c3.2,1.2,5.5,3.3,7.2,5.8c-1.8-2.5-4.1-4.4-7.2-5.8
	c-12.7,2.3-25,5.8-37.2,10.4c-2.1,0.4-4.1,1.1-4.6,3.5c-2.1,2.6-4.1,5.3-6,7.9c-7,13.6-19.6,25-15.1,42.5c7.8,8.1,10.4,16.6,3,26.4
	c-5.8,7.8-10.9,15.9-16.4,23.8c-0.7,0-1.4,0-1.9,0c-5.5-4.8-9.3-16.4-19.2-5.1c-0.9,0.9-1.8,1.9-2.6,2.8l0.2-0.2
	c-0.9,0.9-1.8,1.9-2.6,2.8h0.2c-0.2,4.4-10,6.9-2.8,12.9c7.9,2.6,16,5.1,24,7.8c15.9,0,31.9,0,47.7,0.2c0.9,0.4,1.6,0.5,2.5,0.5
	c1.9,2.6,4.1,5.1,6,7.8c-0.2,1.8-0.2,3.5-0.4,5.3c1.6,3,2.5,6,2.6,9c-0.4-3-1.1-6-2.6-9c-13.2,8.8-26.4,17.4-37.5,29.1
	c-1.8,1.8-3.5,3.3-5.5,5.1c-7.8,2.8-11.8,9.9-17.6,15c-2.1,1.9-3.7,4.9-0.4,6.2c12.3,4.9,6.3,14.1,5.8,22c-1.4,4.8-4.2,4.2-8.1,3
	c-5.3-1.6-10.6-4.8-16.6-3.2C977.8,272,963,267.6,947,272c-5.1,3.9-10.2,7.6-15.3,11.4c-17.4-17.8-38-27.7-63.6-24.7
	c-3.2-2.6-6.9-2.3-10.7-1.8c-1.8-0.2-3.7-0.2-5.5-0.4c-1.8,0-3.7,0-5.5-0.2c-9,3.3-15.3,10.6-22.9,15.9c-1.9,5.8-14.1,4.9-10.2,14.3
	c2.8,6.7,3.9,14.4,9.3,19.9c8.5,6,19.6,4.9,29.6,10.9c-11.6,6.5-22,12.3-32.6,18.1c-8.3,2.6-16.2,6.3-23.3,11.4
	c0.4,0.9,0.5,1.4,0.9,1.6c18.8,18.7,39.3,28.9,65,13c0.9,0.2,1.8,0.4,2.8,0.5c-2.6-15.1-5.3-30.1-7.9-45.3
	c2.6,15.1,5.3,30.1,7.9,45.3c4.2,8.1,8.5,16,12.7,24.1c0,0.7,0,1.4-0.2,2.1c-0.7,0-1.2,0.2-1.8,0.5c-2.6,0-5.3,0.2-7.9,0.2
	c-9.9,1.6-21.7-5.6-29.4,6.2c-12.7,7.2-13,18.3-9.9,30.6c-0.4,1.8-0.5,3.5-0.9,5.3c-37.2,14.1-37.3,14.3-15.1,45.6
	c1.9,2.8,4.6,5.3,6.9,7.8c6.2,7.4,13.2,13.9,21.7,18.8c0,0.7,0.2,1.4,0.4,2.1c7,2.6,14.1,5.5,21.3,8.1c1.8,0.9,3.5,1.8,5.3,2.5
	l0.2,0.2c1.6,0.3,3.1,0.5,4.6,0.5c-1.4,0-3-0.1-4.6-0.5c1.8,1.8,3.5,3.5,5.3,5.3c12.3,2.8,24.7,5.5,35.2,13
	c-0.2,8.1-0.4,16.2-0.5,24.3c-0.5,2.5-1.1,4.9-1.6,7.4c-7,5.5-9.2,13.9-12.5,21.7c0.2,0.9,0.2,1.8,0.4,2.6c-0.4,3,0.2,6-2.1,8.5
	c-0.4,6.7-0.5,13.4-0.9,20.1c-17.3,17.4-34.3,34.9-50,53.7c15.5,0.4,30.3-4.2,45.1-7.9c11.4,0.7,22.7,0.2,34.2-1.4
	c6.3,3.5,9.5-1.8,13.4-4.9c8.3-6.9,13.9-16.9,24.5-21.1c1.6,1.2,3.2,2.5,4.6,3.7c4.6,4.4,9.2,8.8,13.7,13.2c2.6,7.9-5.1,5.8-7.9,7
	c-16.4,7-34.9,8.6-50.6,18c-0.1,0.2-0.1,0.5-0.1,0.7c0-0.2,0-0.5,0.1-0.7h-0.5c-1.6,0-3.3-0.2-4.9-0.2c-25.4-4.6-45.8,0.9-64.8,21
	c-13.2,14.1-14.3,26.6-10.2,42.5c3.7,4.2,7.6,8.5,11.3,12.7c-8.5,5.6-18,1.1-26.8,3c-5.3,14.1-10.6,28.2-15.9,42.3
	c-1.6,0.9-3.3,1.8-4.9,2.6c0,1.8-0.2,3.3-0.2,5.1c-8.8,4.8-17.6,9.5-26.2,14.3c-11.1,6.7-2.8,18.7-7.6,27.5
	c-3.5,6.3,0.9,11.6,6.9,14.8c5.5,2.6,10.9,5.1,16.4,7.6c0.9,0.9,1.8,1.6,2.8,2.5c14.3,0.2,28-5.1,42.5-2.5
	c-7.6,9.3-18.5,15-29.2,23.6c15.9,5.8,29.8,10.9,43.9,16c-2.3,5.6-4.4,11.3-6.7,16.7c-1.6,3.7-1.9,6.2,3.3,7.4
	c13.9,3.3,27.7,7.4,41.6,11.1c5.8,4.8,10.9,0,15.7-1.9c13.7-5.5,27.1-11.6,40.7-17.6c3.5-0.5,7-1.2,10.7-1.8
	c2.5-0.2,4.9-0.5,7.4-0.7c3.2,0.2,6.5,0.7,8.6-2.6c24.3-4.2,43.3-19.4,63.8-31.7c24.7-12.9,47.6-28.2,69.2-45.6
	c1.2-8.5,4.9-15.9,9.2-22.7c-4.2,7-7.9,14.3-9.2,22.7c11.1-4.9,22.4-10,32.1-17.6c15-13.7,29.9-27.5,45.1-41
	c13.7-3,27.7-5.6,41.7-4.8c6.2,0.4,12.5,0.5,16.7-5.3c2.6-0.2,5.3-0.2,7.9-0.4c3,0.4,5.5-0.2,8.3-2.1c8.8-5.8,18-11.6,29.2-5.1
	c2.3,2.8,5.5,2.3,8.6,2.1c2.5,0.2,4.8,0.5,7.2,0.7c8.8-1.2,16.7,9.9,25.9,1.8c9.3-13.2,3.2-22.7-7.4-31.4c-0.2-0.9-0.4-1.9-0.4-2.8
	c17.6-21.7,25.2-47,27.1-74.3c6.7-13.9,10-29.2,18.1-42.6C1364.9,614.7,1372.1,609.1,1371.2,601.2z M1207.7,48.8
	c-0.9-1.8-1.7-3.5-2.6-5.3C1206,45.3,1206.9,47,1207.7,48.8z M1138.9,155c2.1,0.5,4.3,1,6.4,1.6C1143.2,156,1141,155.5,1138.9,155z
	 M1157.2,62.2c-7.9,14.3-16,28.4-24,42.6C1141.1,90.5,1149.1,76.4,1157.2,62.2z M1120.7,182.1c-6.2-2.3-12.8-3.7-19.4-5.8
	C1107.8,178.2,1114.5,179.6,1120.7,182.1z M922.4,522.4c-0.5,0-1.4,0.2-2.1,0.2C921,522.6,921.9,522.2,922.4,522.4z M914.8,479.8
	c0.4-0.2,0.7-0.4,1.1-0.5C915.7,479.5,915.3,479.6,914.8,479.8z M918,522.1c0.5-8.1-0.4-16.2-1.4-24.3
	C917.6,505.9,918.7,513.8,918,522.1z M916.8,589.5c2-0.5,4.2-1.4,6.3-0.7C921,588.1,918.9,589.2,916.8,589.5z M931.2,288
	c-0.7,2.8-1.4,5.6-1.9,8.5C929.8,293.6,930.3,290.8,931.2,288z M927.8,631.3c3.6,0.7,7.2,1.3,10.9,1.8
	C935,632.6,931.4,632,927.8,631.3z M951.4,593.7c2.8,0.5,6-0.2,8.8,0.4C957.4,593.6,954.2,594.5,951.4,593.7z M932.9,796.6
	c-1.5-2.8-3-5.6-4.4-8.5C929.9,791,931.4,793.8,932.9,796.6z M923.3,769.2c-3.6,0.2-5.3-1.7-6.5-4
	C918,767.5,919.7,769.2,923.3,769.2z M915.3,785.2c-0.4-0.9-0.4-2.3-0.7-3.2C915,783,915.1,784.4,915.3,785.2z M859.1,846.5
	c0,0.9,0.2,1.8,0.2,2.8C859.3,848.4,859.1,847.5,859.1,846.5z M861.7,849.4c0.9,0,1.8,0.1,2.7,0.1
	C863.5,849.5,862.6,849.5,861.7,849.4z M870.4,849.2c1.8-0.2,3.5-0.9,4.9-2.6C873.9,848.3,872.3,849,870.4,849.2z M882.9,881.2
	c18.1,0,36.3,0.2,54.3-0.4C919.2,881.6,901.1,881.2,882.9,881.2z M968.5,888.5c1.6-1.6,3.3-3.2,5.1-4.6
	C971.9,885.3,970.1,886.9,968.5,888.5z M1082.7,107.4c-1.8,0.9-3.5,1.8-5.3,2.6C1079.1,109.2,1080.9,108.3,1082.7,107.4z
	 M1074.7,155.2c1.6,1.6,3.2,2.8,4.9,3.9C1077.9,158,1076.1,156.8,1074.7,155.2z M1074.7,229.9c-0.2-1.2-0.2-2.5-0.2-3.7
	C1074.5,227.4,1074.7,228.7,1074.7,229.9z M1176.9,702.4c0,2.8-1,5.2-3.1,7.3c-2.1,2.1-4.5,3.1-7.3,3.1H1104c-2.8,0-5.2-1-7.3-3.1
	c-2.1-2.1-3.1-4.5-3.1-7.3V640c0-2.8,1-5.2,3.1-7.3s4.5-3.1,7.3-3.1h62.4c2.8,0,5.2,1,7.3,3.1c2.1,2.1,3.1,4.5,3.1,7.3V702.4z
	 M1255,510.1c-2.7,8.2-5.7,14.8-9.1,19.9s-8.2,10.3-14.3,15.5c-6.2,5.2-11.1,9-15,11.3s-9.1,5.4-15.9,9.2c-7.1,4-13.1,9.6-17.8,16.9
	c-4.8,7.3-7.2,13.1-7.2,17.4c0,2.9-1,5.8-3.1,8.5c-2.1,2.7-4.5,4-7.3,4H1103c-2.6,0-4.8-1.6-6.6-4.8c-1.8-3.2-2.7-6.5-2.7-9.8v-11.7
	c0-14.4,5.6-28,16.9-40.7c11.3-12.7,23.7-22.2,37.2-28.2c10.2-4.7,17.5-9.5,21.9-14.6c4.3-5,6.5-11.6,6.5-19.8
	c0-7.3-4-13.7-12.1-19.3c-8.1-5.5-17.4-8.3-28-8.3c-11.3,0-20.6,2.5-28.1,7.5c-6.1,4.3-15.3,14.3-27.8,29.9
	c-2.3,2.8-4.9,4.2-8.1,4.2c-2.1,0-4.2-0.7-6.5-2.1l-42.7-32.5c-2.3-1.7-3.6-3.9-4-6.5c-0.4-2.6,0-5,1.4-7.3
	c27.7-46.1,68-69.2,120.7-69.2c13.9,0,27.8,2.7,41.9,8.1c14,5.4,26.7,12.6,38,21.6c11.3,9,20.5,20.1,27.6,33.2
	c7.1,13.1,10.7,26.8,10.7,41.2C1259.1,493.2,1257.7,502,1255,510.1z M1307.7,345.5c2.1,2.2,4.3,4.3,6.6,6.4
	C1312.1,349.9,1309.9,347.7,1307.7,345.5z M1338.1,417.4c1.7,0.2,3.5,0.6,5.3,1.1C1341.6,418.1,1339.9,417.8,1338.1,417.4z"/>
</svg>
