<?xml version="1.0" encoding="UTF-8"?> <svg xmlns="http://www.w3.org/2000/svg" viewBox="0 0 57.33 11.79"> <defs> <style>.cls-1{fill:#1e1e1c;}</style> </defs> <title>logo</title> <g id="Layer_2" data-name="Layer 2"> <g id="navigation"> <path class="cls-1" d="M18,4H15.38V3h2.29V2H15.38V1H18V.08H14.31V4.94H18Zm1.81-2.14,2.35,3.09h.91V.08H22v3l-2.28-3h-1V4.94h1.06Zm6.54,3.09V1.07h1.48v-1h-4v1H25.3V4.94Zm5.91-1H29.64V3h2.29V2H29.64V1h2.6V.08H28.57V4.94h3.71Zm4.91,1L36,3.21a1.51,1.51,0,0,0,1-1.51v0A1.54,1.54,0,0,0,36.63.57,1.94,1.94,0,0,0,35.21.08H33V4.94h1.07V3.39h.84l1,1.55Zm-2-2.5H34.06V1.05h1.06c.53,0,.85.23.85.69h0c0,.41-.3.69-.83.69m6.55-.66v0A1.67,1.67,0,0,0,39.83.08h-2V4.94h1.07V3.49h.82a1.74,1.74,0,0,0,2-1.71m-1.08,0a.75.75,0,0,1-.85.73h-.85V1.05h.83c.54,0,.87.25.87.73Zm5.79-.1v0A1.54,1.54,0,0,0,46,.57,1.93,1.93,0,0,0,44.57.08H42.34V4.94h1.07V3.39h.84l1,1.55h1.26L45.36,3.21a1.51,1.51,0,0,0,1-1.51m-1.08.05c0,.41-.3.69-.83.69H43.41V1.05h1.06c.53,0,.85.23.85.69Zm2,3.19h1.07V.08H47.27ZM51.36,2c-.84-.21-1-.32-1-.64h0c0-.24.22-.42.63-.42a2.26,2.26,0,0,1,1.26.48l.56-.81A2.81,2.81,0,0,0,51,0a1.51,1.51,0,0,0-1.7,1.47h0c0,1,.63,1.24,1.61,1.49.81.21,1,.35,1,.62h0c0,.29-.27.46-.7.46a2.25,2.25,0,0,1-1.46-.59l-.63.76A3.12,3.12,0,0,0,51.12,5c1.05,0,1.78-.55,1.78-1.51v0c0-.85-.55-1.2-1.54-1.46m3.32,2V3H57V2h-2.3V1h2.61V.08H53.62V4.94h3.71V4ZM14.36,11.32h1.07V6.46H14.36Zm5.95-3.24v0A1.5,1.5,0,0,0,19.89,7a1.93,1.93,0,0,0-1.41-.49H16.25v4.86h1.07V9.77h.84l1.05,1.55h1.25L19.27,9.59a1.51,1.51,0,0,0,1-1.51m-1.08.05c0,.41-.3.69-.82.69H17.32V7.42h1.07c.52,0,.84.24.84.7Zm2.93,1.22h2.29V8.4H22.16v-1h2.61v-1H21.1v4.86h3.7v-1H22.16Zm4.46-2.89H25.55v4.86h3.5v-1H26.62Zm4.95,0-2.08,4.9h1.09L31,10.23h2.06l.45,1.09h1.12l-2.09-4.9Zm-.16,2.87.64-1.58.65,1.58Zm7,.16-2.28-3h-1v4.86h1.06V8.23l2.36,3.09h.91V6.46H38.43Zm3.78-3h-1.9v4.86h1.9A2.44,2.44,0,0,0,44.8,8.89h0a2.43,2.43,0,0,0-2.59-2.42m1.47,2.45a1.39,1.39,0,0,1-1.47,1.45h-.83V7.42h.83a1.4,1.4,0,0,1,1.47,1.47Z"></path> <path class="cls-1" d="M10.4,4.85h0a.8.8,0,0,0-.79.81,4.52,4.52,0,0,1-4.53,4.52A3.45,3.45,0,0,1,1.6,6.72,2.6,2.6,0,0,1,4.21,4.11,1.91,1.91,0,0,1,6.14,6c0,.1,0,.15,0,.17a2.66,2.66,0,0,1-.57,0h-.8A.8.8,0,0,0,4,7H4a.8.8,0,0,0,.8.8h.85a2.22,2.22,0,0,0,1.65-.5A1.79,1.79,0,0,0,7.75,6,3.56,3.56,0,0,0,4.21,2.51,4.23,4.23,0,0,0,0,6.72a5.09,5.09,0,0,0,5.07,5.07A6.16,6.16,0,0,0,11.2,5.66a.81.81,0,0,0-.8-.81"></path> <path class="cls-1" d="M10.41,0h0a1.34,1.34,0,1,0,1.34,1.34A1.34,1.34,0,0,0,10.41,0m0,1.87a.53.53,0,0,1-.52-.53.52.52,0,0,1,.52-.52.52.52,0,0,1,.53.52.54.54,0,0,1-.53.53"></path> </g> </g> </svg> 